<?xml version="1.0" encoding="UTF-8"?><svg id="b" xmlns="http://www.w3.org/2000/svg" viewBox="0 0 1655.21 232.31"><g id="c"><path d="M365.33,57.53h-31.55l-90.99,127.65h31.55l18.24-25.53h85.34l11.12,25.53h31.55l-55.25-127.65ZM310.62,134.12l2.74-3.65,32.82-49.05,19.15,49.05,1.46,3.65h-56.16Z" style="fill:#fff;"/><polygon points="465.79 57.53 493.15 57.53 475.28 185.18 447.92 185.18 465.79 57.53" style="fill:#fff;"/><polygon points="658.17 57.53 685.52 57.53 667.65 185.18 640.3 185.18 555.32 92 552.95 112.24 542.74 185.18 515.39 185.18 533.26 57.53 560.61 57.53 645.59 150.9 647.96 130.47 658.17 57.53" style="fill:#fff;"/><polygon points="794.56 161.47 747.33 93.82 745.32 112.24 735.11 185.18 707.76 185.18 725.63 57.53 752.98 57.53 806.77 134.48 882.09 57.53 909.44 57.53 891.57 185.18 864.22 185.18 874.43 112.24 877.53 93.82 811.15 161.47 794.56 161.47" style="fill:#fff;"/><path d="M1041.45,57.53h-31.55l-91,127.65h31.55l18.24-25.53h85.34l11.12,25.53h31.55l-55.25-127.65ZM986.74,134.12l2.74-3.65,32.82-49.05,19.15,49.05,1.46,3.65h-56.16Z" style="fill:#fff;"/><polygon points="1282.5 185.18 1240.75 185.18 1178.93 132.29 1158.87 132.29 1151.39 185.18 1124.04 185.18 1141.91 57.53 1169.26 57.53 1162.33 106.77 1182.76 106.77 1256.25 57.53 1296.18 57.53 1247.86 89.44 1201.36 119.53 1243.66 153.27 1282.5 185.18" style="fill:#fff;"/><polygon points="1313.49 185.18 1331.36 57.53 1469.77 57.53 1466.31 83.06 1355.25 83.06 1351.79 106.77 1451.9 106.77 1448.43 132.29 1348.32 132.29 1344.49 159.65 1459.19 159.65 1455.55 185.18 1313.49 185.18" style="fill:#fff;"/><path d="M1600.14,138.68c29.54,0,55.07-11.67,55.07-46.5,0-25.53-19.15-34.65-44.13-34.65h-101.21l-17.87,127.65h27.35l6.38-45.59h34.1l45.77,45.59h42.31l-49.42-46.5h1.64ZM1529.39,114.06l4.38-31h74.77c10.94,0,18.42,3.46,18.42,13.13,0,13.13-9.48,17.87-22.79,17.87h-74.76Z" style="fill:#fff;"/><path d="M173.14,138.68c29.54,0,55.07-11.67,55.07-46.5,0-25.53-19.15-34.65-44.13-34.65h-110.94l-19.67,24.87h25.92l-37.98,57.28h41.02l-41.02,92.63,82.39-92.72h9.04l45.77,45.59h42.31l-49.42-46.5h1.64ZM94.54,114.06l12.22-31h74.76c10.94,0,18.42,3.46,18.42,13.13,0,13.13-9.48,17.87-22.79,17.87h-82.61Z" style="fill:#fff;"/><path d="M94.54,114.06l12.22-31h60.72l20.86-21.16C195.15,26.86,155.86-2.26,118.56.14,65.99,3.52,47.1,39.61,47.1,69.84c0,1.1.06,2.2.14,3.29-1.19-.06-2.38-.09-3.59-.11-19.52-.38-43.65,8.4-43.65,32.91,0,16.7,10.63,33.74,33.71,33.72l77.97.02,25.25-25.62h-42.39Z" style="fill:#fff;"/><polygon points="84.44 139.68 33.71 139.66 90.65 83.06 107.23 83.06 84.44 139.68" style="fill:#079550;"/><polygon points="92.53 114.06 147.25 114.06 41.42 232.31 92.53 114.06" style="fill:#079550;"/></g></svg>