<?xml version="1.0" encoding="UTF-8"?><svg id="b" xmlns="http://www.w3.org/2000/svg" viewBox="0 0 1608.49 264.56"><g id="c"><path d="M29.97,176.05v88.51H0V60.09h81.79c42.5,0,65.19,23.12,65.19,54.97,0,26.74-15.2,42.61-33.88,48.15,15.44,4.34,30.11,16.43,30.11,52.14v9.02c0,14.02-.51,31.45,2.78,40.2h-29.3c-3.69-8.83-3.61-24.65-3.61-44.32v-4.1c0-27.83-7.74-40.09-43.71-40.09H29.97ZM29.97,150.9h43.06c29.92,0,42.82-11.27,42.82-33.13s-13.54-32.52-40.15-32.52H29.97v65.65Z" style="fill:#fff;"/><path d="M253.93,205.89l-20.85,58.67h-30.11l72.18-204.47h37.57l75.29,204.47h-32.22l-21.57-58.67h-80.29ZM326.78,180.2c-18.55-51.73-28.99-80.1-33.51-96.21h-.29c-5,17.88-16.65,51.97-31.58,96.21h65.38Z" style="fill:#fff;"/><path d="M478.72,60.09v204.47h-30.35V60.09h30.35Z" style="fill:#fff;"/><path d="M1057.01,222.53l-14.94,42.03h-21.57l51.71-146.49h26.92l53.94,146.49h-23.08l-15.46-42.03h-57.52ZM1109.2,204.12c-13.29-37.06-20.77-57.39-24.01-68.93h-.21c-3.59,12.81-11.93,37.24-22.63,68.93h46.84Z" style="fill:#fff;"/><path d="M1196.31,118.07h21.55v70.64c10.66-11.29,46.52-47.4,68.76-70.64h26.78l-62.2,61.61,65.13,84.88h-26.3l-54.05-70.79-18.12,16.55v54.24h-21.55V118.07Z" style="fill:#fff;"/><path d="M1449.14,197.09h-72.33v49.07h79.5l-2.74,18.41h-98.02V118.07h97v18.41h-75.74v42.2h72.33v18.41Z" style="fill:#fff;"/><path d="M1524.66,201.15v63.41h-21.47V118.07h58.59c30.45,0,46.71,16.57,46.71,39.38,0,19.15-10.89,30.53-24.27,34.49,11.06,3.11,21.57,11.77,21.57,37.35v6.46c0,10.05-.36,22.53,1.99,28.8h-20.99c-2.65-6.33-2.59-17.66-2.59-31.75v-2.93c0-19.94-5.54-28.72-31.31-28.72h-28.23ZM1524.66,183.13h30.85c21.44,0,30.68-8.07,30.68-23.74s-9.7-23.3-28.76-23.3h-32.77v47.03Z" style="fill:#fff;"/><polygon points="736.97 39.23 736.97 1.77 971.33 119.01 971.33 137.01 736.97 39.23" style="fill:#079550;"/><path d="M737.97,3.38l232.35,116.24v15.89l-232.35-96.95V3.38M735.97.15v39.74l236.35,98.62v-20.12L735.97.15h0Z" style="fill:#079550;"/><polygon points="735.97 .44 552.58 60.91 552.58 88.43 735.97 39.74 735.97 .44" style="fill:#079550;"/><path d="M552.58,263.34h182.23l-.5-39.04-181.72,12.96v26.07Z" style="fill:#079550;"/><polygon points="734.81 263.25 734.81 224.85 971.83 246.03 971.83 263.39 734.81 263.25" style="fill:#079550;"/><path d="M735.31,225.39l236.02,21.09v16.41l-236.02-.15v-37.35M734.31,224.3v39.44l238.02.15v-18.32l-238.02-21.27h0Z" style="fill:#079550;"/><path d="M552.58,263.89V60.57l38.72-12.9,122.47,173.95h.49c-2.35-29.19-2.16-67.08-2.16-105.62l.36-108.26,23.5-7.74,8.84,263.89h-42.86l-117.84-179.13h-.49l1.82,179.13h-32.86Z" style="fill:#fff;"/><path d="M953.76,134.89h-1.33l-72.8,129.01h-28l-93.49-211.55h-1.14l2.68,211.55h-47.39l.17-256.15,23.5-7.74,43.22,21.74s93.61,205.72,93.09,205.72h.52l71.63-123.08,27.89,13.86v145.65h-20.07l1.51-129.01Z" style="fill:#fff;"/></g></svg>