<?xml version="1.0" encoding="UTF-8"?><svg id="b" xmlns="http://www.w3.org/2000/svg" viewBox="0 0 1007.37 514.45"><g id="c"><polyline points="391.68 63.73 503.81 127.26 559.8 95.43 587.91 111.37 503.81 159.09 363.6 79.5" style="fill:#fff;"/><polygon points="615.94 95.46 643.94 79.53 503.71 0 419.6 47.74 447.64 63.64 503.71 31.82 615.94 95.46" style="fill:#fff;"/><polyline points="601.48 167.04 601.48 295.06 573.7 310.86 573.7 182.9" style="fill:#fff;"/><polyline points="518.15 182.71 518.15 342.46 545.93 326.66 545.93 198.89 629.26 150.91 629.26 279.23 657.07 263.44 657.07 102.72 518.15 182.71" style="fill:#fff;"/><polyline points="350.59 102.87 489.93 183.08 489.93 183.08 489.93 279.56 378.27 215.27 378.27 279.2 350.59 263.44 350.59 167.22 462.15 231.43 462.15 199.24 350.59 135.02 350.59 102.87" style="fill:#fff;"/><polyline points="432.02 245.79 487.57 341.05 441.23 315.12 385.13 219.27" style="fill:#fff;"/><path d="M74.25,506.95c.25.75.38,1.38.38,2.12,0,2.38-1.62,4.25-4.12,4.88-.88.25-1.88.38-2.75.38-2.12,0-4-1-4.88-3.25l-3.12-8c-9-24.38-12.5-33.25-25-33.25H11.75v39.25c0,3.5-2.38,5.25-5.75,5.25s-6-1.75-6-5.38v-79.25c0-9.62,3.88-13.5,12.75-13.5h29.25c18.12,0,28.12,9.62,28.12,25,0,14.38-8.12,21.88-19.75,24.38,7.5,2.25,11.5,10.62,20.75,34l3.12,7.38ZM40.5,459.57c10.62,0,17.62-6.62,17.62-16.62,0-10.62-5.75-16.38-16.88-16.38H15.88c-2.62,0-4.12,1.38-4.12,4.38v28.62h28.75Z" style="fill:#fff;"/><path d="M124.62,510.82c-.88,2.5-2.75,3.5-4.88,3.5-.88,0-1.62-.12-2.5-.38-2.5-.62-4.38-2.75-4.38-5.12,0-.75.12-1.38.38-2.12l34-85.38c1.62-4.25,4.75-5.88,8.62-5.88s7.25,1.62,8.88,5.88l34,85.62c.38.75.5,1.38.5,2.12,0,2.5-2,4.38-4.5,5-.75.25-1.5.38-2.25.38-2.25,0-4.25-1.12-5.12-3.5l-9.88-25.88h-43.25l-9.62,25.75ZM173.75,474.57l-13.88-36.38c-1.38-3.62-2.75-7.62-3.88-11.88-1.12,4.25-2.38,8.25-3.88,12l-14.12,36.25h35.75Z" style="fill:#fff;"/><path d="M243.75,420.57c0-3.5,2.5-5.12,5.88-5.12s6.12,1.62,6.12,5.12v88.62c0,3.38-2.62,5.12-6.12,5.12s-5.88-1.75-5.88-5.12v-88.62Z" style="fill:#fff;"/><path d="M370.5,420.57c0-3.5,2.5-5.12,6-5.12s5.88,1.62,5.88,5.12v85.88c0,4.88-2.5,7.88-7.5,7.88-5.38,0-7.38-2.12-10.5-7.12l-33.12-53.62c-5-8-11.25-20.25-14.12-26.5.75,8,1.75,25.38,1.75,43.75v38.38c0,3.38-2.5,5.12-5.88,5.12s-6-1.75-6-5.12v-86.25c0-4.62,3-7.5,7.88-7.5,5.62,0,7.75,2.25,10.12,6l31.5,51.12c5.75,9.38,12.75,22.75,16,29.75-.75-7.75-2-25.88-2-43.88v-37.88Z" style="fill:#fff;"/><path d="M490.25,508.57c-1.75,4.25-4,5.75-8,5.75s-6.25-1.5-8-5.88l-18.88-47.38c-3.62-9-9.62-27.12-12-34.88.38,8.12,1.88,30.75,1.88,48.38v34.75c0,3.38-2.38,5-5.88,5s-5.75-1.62-5.75-5v-86.5c0-4.5,3.25-7.38,8-7.38,5.5,0,8.12,2,10,6.62l23,57.75c2.5,6.12,6.62,17.88,7.75,23.25,1.25-5.5,5-16.38,7.88-23.5l22.62-57.25c2-5,4.88-6.88,10.38-6.88,4.62,0,7.88,2.88,7.88,7.38v86.5c0,3.38-2.5,5-5.75,5s-5.88-1.62-5.88-5v-34.62c0-17.75,1.5-40.12,2-48.62-2.38,8-8.5,25.88-11.88,34.38l-19.38,48.12Z" style="fill:#fff;"/><path d="M587.5,510.82c-.88,2.5-2.75,3.5-4.88,3.5-.88,0-1.62-.12-2.5-.38-2.5-.62-4.38-2.75-4.38-5.12,0-.75.12-1.38.38-2.12l34-85.38c1.62-4.25,4.75-5.88,8.62-5.88s7.25,1.62,8.88,5.88l34,85.62c.38.75.5,1.38.5,2.12,0,2.5-2,4.38-4.5,5-.75.25-1.5.38-2.25.38-2.25,0-4.25-1.12-5.12-3.5l-9.88-25.88h-43.25l-9.62,25.75ZM636.62,474.57l-13.88-36.38c-1.38-3.62-2.75-7.62-3.88-11.88-1.12,4.25-2.38,8.25-3.88,12l-14.12,36.25h35.75Z" style="fill:#fff;"/><path d="M777.37,504.95c.75,1,1.12,2.12,1.12,3.25,0,1.88-1.12,3.75-2.75,5-1.12.88-2.38,1.25-3.75,1.25-1.62,0-3.38-.75-4.38-2.12l-35.38-47-13.62,13.88v30c0,3.38-2.5,5.12-5.88,5.12s-6-1.75-6-5.12v-88.62c0-3.5,2.5-5.12,6-5.12s5.88,1.62,5.88,5.12v43.62l45.25-47.25c1-1.12,2.5-1.62,3.88-1.62,1.5,0,3,.5,4.12,1.5,1.38,1.12,2.12,3,2.12,4.75,0,1.25-.38,2.5-1.25,3.38l-32.25,32.5,36.88,47.5Z" style="fill:#fff;"/><path d="M834.24,498.7c0,2.88,1.88,4,4.62,4h44.75c3.25,0,5,2.25,5,5.38s-1.75,5.5-5,5.5h-48.38c-8.88,0-12.75-3.88-12.75-13.38v-70.5c0-9.62,3.88-13.5,12.75-13.5h47.25c3.25,0,5,2.25,5,5.38s-1.75,5.5-5,5.5h-44c-3,0-4.25,1.38-4.25,4.38v25.88h42.62c3.12,0,4.88,2.25,4.88,5.38,0,2.88-1.88,5.25-4.88,5.25h-42.62v30.75Z" style="fill:#fff;"/><path d="M1006.99,506.95c.25.75.38,1.38.38,2.12,0,2.38-1.62,4.25-4.12,4.88-.88.25-1.88.38-2.75.38-2.12,0-4-1-4.88-3.25l-3.12-8c-9-24.38-12.5-33.25-25-33.25h-23v39.25c0,3.5-2.38,5.25-5.75,5.25s-6-1.75-6-5.38v-79.25c0-9.62,3.88-13.5,12.75-13.5h29.25c18.12,0,28.12,9.62,28.12,25,0,14.38-8.12,21.88-19.75,24.38,7.5,2.25,11.5,10.62,20.75,34l3.12,7.38ZM973.24,459.57c10.62,0,17.62-6.62,17.62-16.62,0-10.62-5.75-16.38-16.88-16.38h-25.38c-2.62,0-4.12,1.38-4.12,4.38v28.62h28.75Z" style="fill:#fff;"/><g id="d"><path d="M503.04,87.04c-7.95-3.28-15.88-7.9-16.94-15.05-.29-2.05.07-4.21,1.1-6.51-6.46,6.45-12.25,13.6-12.42,18.69-.38,11.68,12.37,21.37,28.49,21.64,3.69.06,6.44-.15,9.7-1.04,1.88-.51,5.39-2.69,4.65-6.41-.65-3.27-2.11-6.17-14.58-11.33h0Z" style="fill:#fff;"/><path d="M506.02,49.03c-40.54,31.51,8.84,32.64,13.5,43.89,5.32-10.96-22.56-14.25-13.5-32.79-5.15,17.89,34.05,19.72,16.52,40.94,30.1-18.22-3.62-32.26-16.52-52.03Z" style="fill:#24a14d;"/></g></g></svg>