<?xml version="1.0" encoding="UTF-8"?><svg id="b" xmlns="http://www.w3.org/2000/svg" xmlns:xlink="http://www.w3.org/1999/xlink" viewBox="0 0 1251.01 642.19"><defs><clipPath id="e"><polygon points="583.61 208.21 615.17 224.93 615.15 271.27 584.07 253.41 583.61 208.21" style="fill:none;"/></clipPath><clipPath id="f"><polygon points="583.61 208.21 615.17 224.93 615.15 271.27 584.07 253.41 583.61 208.21" style="fill:none;"/></clipPath><clipPath id="g"><path d="M599.82,216.8c-20.64,14.05,4.76,29.06,7.25,39.5,2.81-7.26-11.86-18.05-7.21-30.45-2.62,13,18.2,26.01,8.82,37.89,4.68-1.62,6.47-4.62,6.47-8.56v-.03c0-9.58-10.47-24.35-15.33-38.36Z" style="fill:none;"/></clipPath><linearGradient id="h" x1="-5321.82" y1="1060.74" x2="-5321.28" y2="1060.74" gradientTransform="translate(102313.67 -800539.28) rotate(-94.03) scale(148.76 -148.76)" gradientUnits="userSpaceOnUse"><stop offset="0" stop-color="#9dc53f"/><stop offset=".98" stop-color="#089550"/><stop offset="1" stop-color="#089550"/></linearGradient></defs><g id="c"><line x1="823.06" y1="282.97" x2="773.51" y2="311.51" style="fill:none; stroke:#000; stroke-miterlimit:10; stroke-width:.5px;"/><line x1="427.19" y1="112.69" x2="477.34" y2="141.56" style="fill:none; stroke:#000; stroke-miterlimit:10; stroke-width:.5px;"/><line x1="625.15" y1="283.39" x2="625.11" y2="226.6" style="fill:none; stroke:#000; stroke-miterlimit:10; stroke-width:.5px;"/><line x1="575.69" y1="426.14" x2="575.73" y2="368.66" style="fill:none; stroke:#000; stroke-miterlimit:10; stroke-width:.5px;"/><polyline points="575.69 198.12 625.11 226.6 823.08 112.61" style="fill:none; stroke:#000; stroke-miterlimit:10; stroke-width:.5px;"/><polyline points="674.79 141.27 723.76 113.18 625.5 57.47 477.34 141.56 476.85 311.71 575.73 368.66 625.07 340.18" style="fill:none; stroke:#000; stroke-miterlimit:10; stroke-width:.5px;"/><polyline points="724.07 283.26 773.53 254.78 823.06 282.97 823.2 339.76 773.53 370.23 575.69 254.96 575.69 198.12 674.79 141.27 625.31 113.27 526.27 169.53 526.27 283.37 625.11 340.28 625.11 396.96 575.69 426.14 427.31 340.59 427.19 112.69 623.25 .29 823.08 112.61 823.12 169.47 674.59 255 773.51 311.51" style="fill:#e6e6e6; stroke:#fff; stroke-miterlimit:10; stroke-width:.5px;"/><line x1="625.31" y1="113.38" x2="625.5" y2="57.47" style="fill:none; stroke:#fff; stroke-miterlimit:10; stroke-width:.5px;"/><line x1="476.85" y1="311.71" x2="526.27" y2="283.37" style="fill:none; stroke:#fff; stroke-miterlimit:10; stroke-width:.5px;"/><line x1="574.68" y1="368.92" x2="624.1" y2="340.59" style="fill:none; stroke:#fff; stroke-miterlimit:10; stroke-width:.5px;"/><polygon points="575.69 426.14 427.19 340.59 427.19 112.69 477.34 141.56 476.85 311.71 575.73 368.66 575.69 426.14" style="fill:#079550;"/><polygon points="625.11 226.6 575.69 198.12 773.66 84.61 823.08 112.61 625.11 226.6" style="fill:#fff;"/><polygon points="477.54 141.56 427.19 112.69 623.25 .29 675.19 29.4 477.54 141.56" style="fill:#fff;"/><polygon points="773.04 311.12 723.57 282.69 773.66 254.24 823.06 282.97 773.04 311.12" style="fill:#fff;"/><polygon points="625.13 227.1 625.08 283.63 575.69 254.96 575.69 198.12 625.13 227.1" style="fill:#e6e6e6;"/><polygon points="723.76 113.18 625.5 57.47 675.19 29.4 773.66 84.61 723.76 113.18" style="fill:#fff;"/><g id="d"><g style="clip-path:url(#e);"><g style="clip-path:url(#f);"><path d="M590.11,224.9c-.52,1.56-.69,3.19-.53,4.92.59,6.01,4.7,11.98,8.84,16.91,6.54,7.8,7.32,10.56,7.67,13.38.4,3.2-1.44,3.88-2.42,3.73-1.7-.28-3.13-.93-5.05-2.08-8.28-4.97-14.81-16.29-14.71-25.41.04-3.99,2.93-8.08,6.2-11.44" style="fill:#fff;"/></g><g style="clip-path:url(#g);"><polygon points="579.59 250.07 576.34 204.56 617.91 223.22 620.76 270.43 579.59 250.07" style="fill:url(#h);"/></g></g></g><rect y="520.27" width="1251.01" height="121.92" style="fill:none;"/><path d="M250.88,585.74l-14.6-29.11h-31.25v29.11h-15.16v-65.47h56.92c15.25,0,21.11,6.42,21.11,15.81v4.74c0,7.81-3.72,14.04-15.44,15.62l14.69,29.3h-16.28ZM252.64,535.89c0-2.6-2.05-3.81-5.86-3.81h-41.76v12.74h41.76c4,0,5.86-.74,5.86-3.91v-5.02Z" style="fill:#fff;"/><path d="M366.11,585.74l-31.71-49.85-32.37,49.85h-16.93l43.62-65.47h11.16l43.34,65.47h-17.11Z" style="fill:#fff;"/><path d="M403.13,585.74v-65.47h15.16v65.47h-15.16Z" style="fill:#fff;"/><path d="M525.61,585.74l-68.17-47.71v47.71h-13.21v-65.47h13.11l62.4,44.83v-44.83h13.3v65.47h-7.44Z" style="fill:#fff;"/><path d="M646.52,585.74v-41.29l-30.69,41.29h-12.46l-30.88-41.2v41.2h-14.04v-65.47h14.14l37.67,50.69,37.39-50.69h12.93v65.47h-14.04Z" style="fill:#fff;"/><path d="M761.01,585.74l-31.71-49.85-32.37,49.85h-16.93l43.62-65.47h11.16l43.34,65.47h-17.11Z" style="fill:#fff;"/><path d="M854.57,585.74l-21.76-27.9h-20.09v27.9h-15.16v-65.47h15.16v25.67h19.72l21.67-25.67h17.95l-27.06,30.41,26.97,35.06h-17.39Z" style="fill:#fff;"/><path d="M892.52,585.74v-65.47h69.01v11.81h-53.85v13.11h50.96v11.9h-50.96v16.74h53.85v11.9h-69.01Z" style="fill:#fff;"/><path d="M1046.35,585.74l-14.6-29.11h-31.25v29.11h-15.16v-65.47h56.92c15.25,0,21.11,6.42,21.11,15.81v4.74c0,7.81-3.72,14.04-15.44,15.62l14.69,29.3h-16.28ZM1048.12,535.89c0-2.6-2.05-3.81-5.86-3.81h-41.76v12.74h41.76c4,0,5.86-.74,5.86-3.91v-5.02Z" style="fill:#fff;"/></g></svg>