<?xml version="1.0" encoding="UTF-8"?><svg id="b" xmlns="http://www.w3.org/2000/svg" viewBox="0 0 500.73 355.69"><g id="c"><path d="M244.72,125.52c-1.5.05-2.98.23-4.41.7-.41.14-.95.26-.96.77-.02.55.54.7.95.85,1.32.47,2.7.64,4.08.78,3.79.36,7.59.39,11.39.1,1.95-.15,3.89-.34,5.76-.94.42-.14.83-.3,1.19-.56.53-.38.55-.82.09-1.28-.43-.43-1.02-.6-1.55-.87,1.93.28,3.86.5,5.66,1.31.44.2,1,.4.99.98-.01.6-.58.8-1.05.98-1.65.64-3.4.9-5.14,1.13-6.24.81-12.49.87-18.75.4-2.67-.2-5.32-.48-7.91-1.24-.42-.12-.84-.27-1.22-.49-.78-.45-.82-1.01-.08-1.55.65-.47,1.41-.72,2.17-.94,2.39-.69,4.86-.99,7.32-1.24,9.14-.75,17.65.7,17.63,2,0,.49-.57.58-.96.7-1.5.47-3.06.63-4.62.75-3.53.26-7.07.29-10.59-.18-.78-.11-1.57-.22-2.31-.51-.23-.09-.5-.19-.51-.47-.02-.31.28-.37.5-.47.75-.32,1.55-.44,2.35-.59.44-.05.88-.1,1.14-.13-.26-.05-.7-.08-1.15.01Z" style="fill:#6a4322;"/><path d="M246.71,121.74c1.05-.03,2.03.26,2.39,1.17" style="fill:#6a4322;"/><path d="M267.12,123.34c3.47,1.03,4.74,2,4.67,2.85-.07.83-2.06,1.74-2.5,1.68.26-.16.44-.26.6-.39.77-.58.77-1.17,0-1.74-.88-.65-1.92-.95-2.95-1.23-2.43-.67-4.92-1.09-7.42-1.27-4.7-.33-6.18-.44-10.41-.33-4.4.11-9.79.45-13.89,1.38-1.1.25-2.17.57-3.19,1.07-.19.09-.37.21-.54.33-.95.67-.93,1.35.06,2,.12.08.23.15.38.24-.68-.05-1.81-.63-2.18-1.12-.37-.49-.35-1.06.08-1.53.47-.52,1.09-.82,1.72-1.1,1.9-.82,3.91-1.24,5.94-1.56,3.39-.53,5.8-.71,9.23-.89,3.86-.19,5.55-.1,8.1-.02,3.1.1,9,.64,12.3,1.62Z" style="fill:#6a4322;"/><path d="M250.89,80.55c-.06-.16-.1-.26-.18-.38-.21-.33-.44-.41-.48-.8-.04-.44.2-.74.34-1.06.07-.15-.05-.33-.22-.33,0,0,0,0,0,0-.97,0-1.76,1.04-1.76,2.32s.79,2.32,1.76,2.32h0c.22,0,.38-.18.43-.24.28-.3.35-1.16.11-1.83Z" style="fill:#6a4322;"/><path d="M251.22,78.04c-.2.08-.29.26-.41.52-.03.07-.2.44-.17.79.01.12.04.19.05.21.04.1.11.17.19.26.07.08.15.17.22.29.09.14.13.24.19.4.12.33.18.72.15,1.1-.02.28-.08.52-.18.69-.02.03-.05.08-.1.13-.06.07-.02.17.07.18,0,0,0,0,0,0,.64.12,1.76-1.08,1.76-2.32s-.92-2.16-1.41-2.27c-.06-.01-.21-.05-.37.01Z" style="fill:#6a4322;"/><path d="M228.67,89.4c-.11-.12-.17-.19-.28-.28-.29-.22-.52-.22-.68-.55-.18-.37-.06-.72-.04-1.04,0-.16-.15-.27-.3-.21,0,0,0,0,0,0-.85.31-1.21,1.47-.8,2.6.41,1.12,1.43,1.78,2.28,1.47h0c.19-.07.27-.28.31-.35.15-.35-.06-1.13-.49-1.64Z" style="fill:#6a4322;"/><path d="M228.16,87.09c-.15.13-.17.32-.2.59,0,.07-.04.45.11.75.05.1.1.15.11.17.07.07.15.11.24.17.09.05.18.1.29.18.12.09.19.17.29.29.21.25.39.58.48.92.07.25.1.48.07.67,0,.03-.02.09-.04.14-.03.08.04.15.12.14,0,0,0,0,0,0,.6-.1,1.2-1.5.8-2.6s-1.5-1.6-1.96-1.54c-.06,0-.2.03-.32.13Z" style="fill:#6a4322;"/><path d="M215.18,99.23c-.12-.1-.19-.15-.3-.21-.3-.16-.51-.12-.71-.4-.22-.31-.17-.64-.2-.94-.02-.14-.18-.22-.31-.15,0,0,0,0,0,0-.73.42-.87,1.54-.31,2.5s1.59,1.4,2.32.98h0c.16-.09.21-.3.22-.37.08-.34-.24-1.02-.71-1.42Z" style="fill:#6a4322;"/><path d="M214.35,97.21c-.12.15-.1.32-.08.57,0,.07.04.42.22.67.06.08.11.12.13.14.07.05.15.08.25.11.09.03.18.06.29.12.13.07.2.13.31.22.24.2.45.47.59.76.11.22.16.43.17.6,0,.03,0,.08-.02.14-.01.07.06.13.13.11,0,0,0,0,0,0,.53-.19.85-1.57.31-2.5s-1.63-1.22-2.04-1.09c-.05.02-.18.06-.27.17Z" style="fill:#6a4322;"/><path d="M286.03,99.33c.03-.15.04-.23.03-.36-.01-.34-.15-.49-.01-.81.16-.35.47-.47.71-.64.12-.09.1-.26-.03-.34,0,0,0,0,0,0-.72-.42-1.76.02-2.31.97-.55.96-.41,2.07.31,2.49h0c.16.09.36.03.43.01.34-.1.76-.71.87-1.32Z" style="fill:#6a4322;"/><path d="M287.36,97.61c-.18-.03-.33.07-.53.21-.05.04-.34.24-.47.52-.04.09-.05.16-.05.18,0,.09,0,.17.03.27.02.09.04.19.04.31,0,.14,0,.24-.03.38-.05.3-.18.62-.36.89-.13.2-.29.35-.43.44-.02.01-.08.04-.13.05-.07.03-.09.12-.03.16,0,0,0,0,0,0,.43.36,1.78-.04,2.31-.97.52-.91.24-2.01-.07-2.3-.04-.04-.14-.13-.29-.15Z" style="fill:#6a4322;"/><path d="M273.11,89.46c0-.16,0-.26-.03-.39-.08-.36-.25-.5-.16-.85.1-.4.41-.59.64-.82.11-.11.06-.3-.09-.36,0,0,0,0,0,0-.85-.31-1.87.35-2.28,1.47-.41,1.12-.05,2.28.8,2.59h0c.19.07.39-.03.46-.07.34-.17.68-.9.68-1.57Z" style="fill:#6a4322;"/><path d="M274.2,87.37c-.2,0-.34.14-.53.32-.05.05-.32.32-.4.64-.03.1-.02.18-.02.2,0,.1.04.18.08.28.04.09.08.19.1.32.03.15.04.25.04.41,0,.33-.08.69-.22,1.01-.11.24-.24.43-.37.55-.02.02-.07.05-.12.08-.07.04-.07.14,0,.18,0,0,0,0,0,0,.52.3,1.88-.38,2.28-1.47.39-1.06-.12-2.19-.51-2.44-.05-.03-.17-.11-.33-.11Z" style="fill:#6a4322;"/><path d="M264.08,112.95s0-.02,0-.04v-.02s0-.01,0-.02c0,0,0-.01,0-.02h0s0-.01,0-.01h0s0-.03,0-.04h0s0,0,0,0c0,0,0,0,0,0h0s0,0,0,0c0,0,0-.01,0-.02,0-.01,0-.03,0-.04,0-.01,0-.03,0-.04,0,0,0-.01,0-.02,0,0,0-.01,0-.02,0-.01,0-.03,0-.04,0-.01,0-.02,0-.04,0-.01,0-.02,0-.04-.02-.05-.03-.09-.06-.13-.04-.08-.1-.14-.15-.18-.02-.02-.05-.04-.07-.06-.02-.02-.05-.03-.07-.05-.01,0-.02-.01-.03-.02,0,0-.02-.01-.03-.02,0,0-.02,0-.02-.01,0,0-.01,0-.02,0-.02-.01-.04-.02-.04-.02,0,0,0,.01.02.03,0,.01.01.02.02.04,0,0,0,.02.01.02,0,0,0,.02.01.03.01.02.02.04.03.06,0,.01.01.02.02.04,0,0,0,0,0,0,0,0,0,0,0,0,0,0,0,.01,0,.02.02.05.04.11.05.17,0,.03,0,.06,0,.09,0,0,0,.02,0,.02,0,0,0,.02,0,.02,0,0,0,.02,0,.02,0,0,0,0,0,.01h0s0,.03,0,.04c0,0,0,.02,0,.02h0s0,.01,0,.01h0s0,0,0,0h0s0,0,0,0c0,.01,0,.02-.01.03h0s0,0,0,0h0s0,.02,0,.02h0s0,.03,0,.03c0,0,0,.02-.01.03,0,0,0,.02-.01.03-.04.07-.08.15-.13.23-.05.08-.1.16-.15.25-.03.04-.05.09-.08.13-.01.02-.03.04-.04.07-.01.02-.02.05-.04.07-.05.09-.09.19-.11.29-.01.05-.02.1-.03.15,0,.01,0,.03,0,.04,0,.01,0,.02,0,.04h0s0,.01,0,.01h0s0,0,0,0c0,0,0,.01,0,0v.02s0,.02,0,.03c0,.01,0,.03,0,.04,0,0,0,.01,0,.02,0,0,0,.01,0,.02,0,.01,0,.02,0,.04,0,.01,0,.02.01.03.01.05.03.09.05.13.04.08.1.14.15.18.05.05.1.08.14.11.01,0,.02.01.03.02,0,0,.02.01.03.01,0,0,.02,0,.02.01,0,0,.01,0,.02,0,.02.01.04.02.04.02,0,0,0-.01-.02-.03-.01-.02-.03-.05-.05-.09-.02-.04-.04-.09-.06-.14-.02-.05-.04-.11-.05-.17,0-.03,0-.06,0-.09,0,0,0-.02,0-.02,0,0,0-.02,0-.02,0,0,0,0,0-.01,0,0,0,0,0,0,0,0,0-.01,0-.02,0-.01,0-.02,0-.03,0,0,0-.01,0-.02,0,0,0,0,0,0h0s0,0,0,0h0s0,0,0,0c0,0,0-.02,0-.03,0,0,0-.02,0-.03h0s0-.03,0-.03c0,0,0-.02.01-.03,0-.02.02-.04.03-.05.03-.07.08-.15.13-.23.02-.04.05-.08.08-.12.03-.04.05-.08.08-.13.05-.09.1-.18.15-.27.05-.09.09-.19.11-.29,0-.01,0-.02,0-.04Z" style="fill:#6a4322;"/><path d="M282.02,104.91c-.81.87-3.96,3.5-5.52,4.27-.3.15-.61.28-.92.4-2.14.78-3.6.09-4.37-2.06-.04-.1-.08-.21-.1-.32-.18-1.12-.44-2.24-.51-3.36-.14-2.43.06-4.86.35-7.28.05-.42.71-4.11.71-4.11,0,0-.68,1.54-1.61,3.25-.58,1.05-.91,1.5-1.38,2.23-1.34,2.09-2.78,4.1-4.6,5.81-.87.81-1.82,1.51-2.96,1.91-1.23.44-2.38.27-3.43-.49-.41-.3-.79-.66-1.12-1.05-1.08-1.28-1.77-2.78-2.35-4.33-1.51-4.08-2.28-8.34-2.93-12.62-.06-.43-.49-3.2-.49-3.2,0,0-.45,2.16-.53,2.63-.36,2-.66,4-1.05,5.99-.57,2.89-1.3,5.74-2.49,8.45-.57,1.3-1.24,2.52-2.25,3.54-1.39,1.41-2.99,1.67-4.76.81-1.14-.56-2.09-1.36-2.96-2.27-2.07-2.16-3.68-4.64-5.2-7.2-.05-.09-1.74-3.37-1.74-3.37,0,0,.63,3.4.68,3.82.33,3,.61,5.99.25,9.01-.14,1.13-.37,2.25-1.01,3.23-.67,1.03-1.69,1.48-2.88,1.21-.65-.15-1.3-.35-1.89-.65-2.07-1.05-3.81-2.55-5.45-4.17-.03-.03-2.62-2.86-2.62-2.86,0,0,8.15,15.85,11.26,22.01,4.09-6.47,43.85-5.32,45.07.11,3.18-6.28,7.96-15.82,9.5-18.78.75-1.44,1.62-3.09,1.62-3.09l-2.35,2.52ZM236.62,115.67s-.02-.05-.03-.08c-.02-.05-.05-.1-.09-.16,0-.01-.02-.03-.03-.04-.01-.01-.02-.03-.03-.04,0,0-.01-.01-.02-.02h0s0,0,0,0c0,0,0,0,0,0h0s0,0,0,0c0,0,0,0,0-.01,0,0-.01-.01-.02-.02,0,0,0,0-.01-.01,0,0,0,0-.01-.01,0,0-.01-.01-.02-.02,0,0,0,0-.01-.01,0,0,0,0-.01-.01-.02-.01-.03-.03-.05-.04,0,0-.02-.01-.03-.02,0,0-.02-.01-.03-.02,0,0-.02-.01-.03-.02,0,0-.02-.01-.03-.02,0,0-.02-.01-.03-.02,0,0-.02-.01-.03-.02-.02-.01-.03-.02-.05-.03-.02,0-.03-.02-.05-.03,0,0-.02,0-.02-.01,0,0-.02,0-.02-.01-.03-.02-.06-.04-.09-.06-.03-.02-.06-.04-.09-.06h-.01s0-.01,0-.01c0,0,0,0,0,0l-.02-.02s-.02-.01-.02-.02h0s0,0,0,0c0,0,0,0,0,0h0s0,0,0,0h-.01s-.03-.03-.04-.04c-.01-.01-.03-.02-.04-.04-.06-.05-.11-.1-.16-.15-.01-.01-.03-.02-.04-.04h0s0-.01,0-.01h0s-.01-.02-.02-.02c0,0-.01-.01-.02-.02,0,0-.01-.01-.02-.02-.01-.01-.02-.02-.03-.04-.04-.05-.09-.1-.12-.14-.04-.05-.07-.09-.1-.13-.03-.04-.06-.08-.08-.11-.02-.03-.04-.05-.05-.07-.01-.02-.02-.03-.02-.03,0,0,0,0,0,.03,0,.02,0,.05,0,.08,0,.03.01.08.02.13.01.05.03.1.05.16.02.06.05.12.09.19,0,0,0,.02.01.02,0,0,.01.02.02.02,0,0,.01.02.02.03,0,0,.01.02.02.03,0,0,.01.02.02.03h0s0,.03,0,.03c.01.02.02.03.04.05.05.07.11.13.17.19.03.03.06.06.1.09h.01s.01.02.01.02c0,0,.02.01.02.02l.02.02s0,0,0,0h0s.01.02.01.02c.02.01.04.03.06.04,0,0,.02.01.03.02h.01s.01.02.01.02c.04.02.08.05.12.07.08.04.15.07.21.1.06.03.11.06.16.09h0s0,.01,0,.01c0,0,.01,0,.02.01,0,0,.01,0,.02.01,0,0,0,0,.01,0,0,0,0,0,0,0,.01,0,.02.02.03.03,0,0,.01,0,.02.01,0,0,.01,0,.02.01.04.04.08.07.12.11.03.03.05.06.08.08-.44.37-1.21.23-1.76-.34-.56-.58-.67-1.39-.24-1.81s1.24-.29,1.81.29c.56.58.67,1.38.25,1.8ZM237.32,115.31c-.13,0-.26-.03-.38-.08.03-.13.03-.27,0-.42-.05-.36-.23-.72-.52-1.01-.14-.15-.3-.27-.47-.36,0,0,0,0,0-.01.02-1.03.65-1.85,1.41-1.84.76.01,1.37.85,1.36,1.88-.02,1.03-.65,1.85-1.41,1.84ZM248.32,115.25c-.2-.42-.23-.86-.12-1.31.09-.37.27-.7.42-1.04.16-.35.21-.7.11-1.07-.22-.83-1-1.37-1.8-1.25-.88.13-1.49.88-1.44,1.78.03.68.33,1.22.84,1.66.27.23.57.4.89.54.05.02.12.02.14.11-.43,0-.83-.08-1.23-.22-2.25-.82-2.19-3.26-1.14-4.38.87-.93,2.29-1.11,3.34-.42,1.09.71,1.5,2.08.99,3.27-.1.23-.22.44-.36.64-.35.52-.64,1.06-.65,1.71ZM249.6,115.64c-.09.36-.09.73,0,1.14-.29-.32-.43-.66-.48-1.03-.09-.76.18-1.36.77-1.84.28-.23.59-.41.85-.67.27-.27.49-.57.53-.96.03-.3-.05-.57-.16-.85-.3-.73-.81-1.29-1.38-1.82-.42-.39-.84-.78-1.16-1.26-.83-1.24-.77-2.86.14-3.94.86-1.02,2.45-1.36,3.65-.77.93.45,1.44,1.45,1.22,2.42-.23,1.01-1.3,1.55-2.18,1.1-.5-.25-.75-.79-.6-1.29.1-.33.35-.54.73-.57-.33.29-.42.61-.28.98.23.6,1.03.72,1.51.23.49-.5.45-1.36-.1-1.88-.61-.57-1.55-.63-2.29-.13-.77.53-1.03,1.46-.67,2.4.17.45.45.82.78,1.16.36.37.74.72,1.08,1.11.61.71.98,1.52.98,2.48,0,.84-.33,1.52-.97,2.06-.29.24-.61.43-.93.63-.49.31-.9.69-1.04,1.29ZM254.47,114.51c-.56.43-1.22.66-1.87.9-.45.17-.89.34-1.29.61-.6.41-.91.97-.87,1.7,0,.04,0,.08,0,.13,0,0,0,0,0,0h0s0,0,0,0c-.38-.52-.46-1.09-.28-1.7.21-.71.65-1.24,1.26-1.63.39-.25.82-.41,1.24-.58.3-.12.59-.25.87-.42.98-.63,1.41-1.62,1.12-2.75-.31-1.21-1.06-2.05-2.2-2.54,0,0,0,0,0,0h0s0,0,0,0c.06-.04.12-.02.18-.01,1.54.26,2.91,1.59,3.16,3.14.21,1.31-.27,2.36-1.31,3.16ZM263.64,115.31c-.76.01-1.4-.81-1.41-1.84s.59-1.87,1.36-1.88c.76-.01,1.4.81,1.41,1.84,0,0,0,0,0,.01-.17.09-.33.21-.47.36-.28.29-.47.65-.52,1.01-.02.15-.02.29,0,.42-.12.05-.25.08-.38.08ZM266.16,115.39c-.54.56-1.32.7-1.76.34.02-.02.05-.05.08-.08.03-.03.07-.07.12-.11,0,0,.01,0,.02-.01,0,0,.01,0,.02-.01.01,0,.02-.02.03-.03,0,0,0,0,0,0,0,0,0,0,.01,0,0,0,.01,0,.02-.01,0,0,.01,0,.02-.01,0,0,0,0,0,0h0c.05-.04.1-.07.16-.09.06-.03.13-.06.21-.1.04-.02.08-.04.12-.07h.01s.01-.02.01-.02c0,0,.02-.01.03-.02.02-.01.04-.03.06-.04h.01s0-.02,0-.02c0,0,0,0,0,0l.02-.02s.02-.01.02-.02h.01s.01-.02.01-.02c.03-.03.07-.06.1-.09.06-.06.12-.13.17-.19.01-.02.03-.03.04-.05h0s0-.03,0-.03c0,0,.01-.02.02-.03,0,0,.01-.02.02-.03,0,0,.01-.02.02-.03,0,0,.01-.02.02-.02,0,0,0-.02.01-.02.04-.07.07-.13.09-.19.02-.06.04-.11.05-.16.01-.05.02-.09.02-.13,0-.03,0-.06,0-.08,0-.02,0-.03,0-.03,0,0,0,0-.02.03-.01.02-.03.04-.05.07-.02.03-.05.07-.08.11-.03.04-.06.08-.1.13-.04.05-.08.09-.12.14-.01.01-.02.02-.03.04,0,0-.01.01-.02.02,0,0-.01.01-.02.02,0,0-.01.01-.02.02h0s0,0,0,0h0s-.02.03-.04.05c-.05.05-.1.1-.16.15-.01.01-.03.02-.04.04-.01.01-.03.02-.04.04h-.01s0,0,0,0h0s0,0,0,0h0s0,0,0,0c0,0-.02.01-.02.02l-.02.02s0,0,0,0h0s-.01.01-.01.01c-.03.02-.06.04-.09.06-.03.02-.06.04-.09.06,0,0-.02,0-.02.01,0,0-.02,0-.02.01-.02,0-.03.02-.05.03-.02.01-.03.02-.05.03,0,0-.02.01-.03.02,0,0-.02.01-.03.02,0,0-.02.01-.03.02,0,0-.02.01-.03.02,0,0-.02.01-.03.02,0,0-.02.01-.03.02-.02.01-.03.03-.05.04,0,0,0,0-.01.01,0,0,0,0-.01.01,0,0-.01.01-.02.02,0,0,0,0-.01.01,0,0,0,0-.01.01,0,0-.01.01-.02.02,0,0,0,0,0,.01h0s0,0,0,0c0,0,0,0,0,0h0s0,0,0,0c0,0-.01.01-.02.02-.01.02-.02.03-.03.04-.01.01-.02.03-.03.04-.04.06-.07.11-.09.16-.01.03-.02.06-.03.08-.42-.42-.31-1.23.25-1.8.56-.58,1.37-.71,1.81-.29s.33,1.23-.24,1.81Z" style="fill:#6a4322;"/><path d="M237.86,114.16h0s0,0,0,0h0s0-.03,0-.05c0-.01,0-.02,0-.04,0-.05-.02-.1-.03-.15-.03-.1-.07-.2-.11-.29-.01-.02-.02-.05-.04-.07-.01-.02-.02-.05-.04-.07-.03-.04-.05-.09-.08-.13-.05-.09-.1-.17-.15-.25-.05-.08-.09-.16-.13-.23,0,0,0-.02-.01-.03,0,0,0-.02-.01-.03h0s0-.03,0-.03h0s0-.02,0-.02h0s0,0,0,0c0-.01,0-.02-.01-.03h0s0,0,0,0c0,0,0,0,0,0h0s0,0,0,0h0s0-.03,0-.03c0,0,0-.02,0-.02h0s0-.02,0-.02c0,0,0-.02,0-.02,0,0,0-.02,0-.02,0,0,0-.02,0-.02,0-.03,0-.06,0-.09,0-.06.03-.12.05-.17,0,0,0-.01,0-.02,0,0,0,0,0,0,0,0,0,0,0,0,0-.01.01-.02.02-.04.01-.02.02-.04.03-.06,0,0,0-.02.01-.03,0,0,0-.02.01-.02,0-.02.02-.03.02-.04.01-.02.02-.03.02-.03,0,0-.01,0-.04.02,0,0-.01,0-.02,0,0,0-.01,0-.02.01,0,0-.02,0-.03.02,0,0-.02.01-.03.02-.02.01-.04.03-.07.05-.02.02-.05.04-.07.06-.05.05-.1.11-.15.18-.02.04-.04.08-.06.13,0,.01,0,.02,0,.04,0,.01,0,.02,0,.04,0,.01,0,.02,0,.04,0,0,0,.01,0,.02,0,0,0,.01,0,.02,0,.01,0,.03,0,.04,0,.01,0,.03,0,.04,0,0,0,.01,0,.02h0s0,0,0,0c0,0,0,0,0,0h0s0,0,0,0c0,.01,0,.02,0,.03h0s0,0,0,0h0s0,.02,0,.03c0,0,0,.01,0,.02v.02s0,.02.01.04c0,.01,0,.02,0,.04.03.1.07.2.11.29.05.09.1.18.15.27.03.04.05.09.08.13.03.04.05.08.08.12.05.08.09.16.13.23,0,.02.02.04.03.05,0,0,0,.02.01.03h0s0,.03,0,.03c0,0,0,.02,0,.03,0,0,0,.02,0,.03h0s0,0,0,0h0s0,0,0,0c0,0,0-.01,0,0,0,0,0,.01,0,.02,0,.01,0,.02,0,.03,0,0,0,.01,0,.02,0,0,0,0,0,0,0,0,0,0,0,.01,0,0,0,.02,0,.02,0,0,0,.02,0,.02,0,.03,0,.06,0,.09,0,.06-.03.12-.05.17-.02.05-.04.1-.06.14-.02.04-.04.07-.05.09-.01.02-.02.03-.02.03,0,0,.01,0,.04-.02,0,0,.01,0,.02,0,0,0,.02,0,.02-.01,0,0,.02,0,.03-.01,0,0,.02-.01.03-.02.04-.03.09-.06.14-.11.05-.05.1-.11.15-.18.02-.04.04-.08.05-.13,0-.01,0-.02.01-.03,0-.01,0-.02,0-.04,0,0,0-.01,0-.02,0,0,0-.01,0-.02,0-.01,0-.03,0-.04,0-.01,0-.02,0-.03v-.02s0,0,0,0h0Z" style="fill:#6a4322;"/><path d="M213.02,23.11c-.08.01-.16.02-.23.02-.07,0-.15,0-.23.02-.16.03-.53.25-1.1.67-.57.42-1.29.92-2.16,1.48-.87.57-1.88,1.11-3.01,1.63-1.14.52-2.35.92-3.65,1.19-1.7.36-3.38.51-5.04.45-1.66-.06-3.21-.37-4.64-.94-1.43-.57-2.68-1.41-3.75-2.53-1.07-1.12-1.85-2.55-2.33-4.3-.47-1.73-.53-3.35-.14-4.87.39-1.52,1.12-2.9,2.18-4.12,1.07-1.22,2.41-2.27,4.01-3.11,1.6-.85,3.35-1.47,5.22-1.87,1.51-.32,2.91-.48,4.18-.51,1.27-.02,2.39,0,3.36.08.96.08,1.73.18,2.3.3.57.12.91.18,1.03.16.15-.02.26-.11.34-.26.08-.15.15-.27.19-.36.25.12.5.25.74.38-.9,1.8-1.77,3.61-2.62,5.42-.16-.07-.32-.14-.48-.2-.01-.08-.04-.16-.06-.24-.03-.08-.07-.17-.12-.27-.11-.28-.45-.53-1.03-.75-.58-.21-1.28-.37-2.1-.46-.82-.09-1.68-.14-2.57-.12-.89.01-1.71.1-2.44.25-1.23.26-2.37.67-3.42,1.24-1.05.57-1.91,1.26-2.59,2.06-.68.8-1.15,1.71-1.42,2.71-.27,1-.25,2.07.03,3.2.28,1.13.77,2.08,1.47,2.84.69.77,1.5,1.36,2.43,1.77.93.42,1.96.67,3.09.74,1.13.08,2.26,0,3.42-.24.88-.18,1.78-.47,2.7-.86.92-.39,1.76-.81,2.51-1.26.75-.45,1.36-.92,1.83-1.4.47-.48.69-.9.63-1.24-.03-.19-.11-.34-.25-.45.18-.14.36-.28.53-.42,1.17,1.26,2.32,2.53,3.45,3.81-.09.12-.19.25-.28.37Z" style="fill:#6a4322;"/><path d="M221.65,24.13c.35-.1.61-.3.78-.62.17-.32.33-.68.48-1.08,1.96-5.53,4.11-11.04,6.44-16.51.18-.37.34-.71.48-1.02.14-.31.2-.57.19-.79-.02-.27-.14-.45-.36-.54-.22-.09-.45-.16-.69-.19-.02-.24-.04-.49-.06-.73,2.54-.2,5.08-.36,7.63-.48.01.24.02.49.03.73-.21.06-.41.15-.62.25-.21.11-.3.31-.28.6.01.22.07.43.19.64.11.21.29.49.51.83,3.36,5.36,6.5,10.8,9.43,16.29.14.3.33.51.57.65.23.13.5.27.81.4,0,.24,0,.49,0,.73-2.42,0-4.83.06-7.25.14,0-.24-.02-.49-.03-.73.11,0,.25-.05.41-.14.16-.09.24-.21.23-.37,0-.27-.13-.62-.37-1.05-.56-.98-1.13-1.97-1.71-2.95-3.43.14-6.85.36-10.28.66-.42,1-.83,2.01-1.24,3.01-.22.59-.32,1.01-.3,1.25.03.3.3.42.83.37.02.24.04.49.07.73-1.94.18-3.89.39-5.82.62-.03-.24-.06-.49-.09-.73ZM236.82,15.27c-1.32-2.46-2.68-4.91-4.07-7.35-1.22,2.61-2.39,5.22-3.52,7.84,2.53-.21,5.06-.37,7.6-.49Z" style="fill:#6a4322;"/><path d="M277.91,8.2c.04-.3-.06-.53-.29-.71-.23-.18-.66-.31-1.28-.38-4.78-.58-9.58-1-14.38-1.29-.1,1.68-.2,3.36-.3,5.04,2.84.17,5.69.39,8.53.66.58.06,1.03.05,1.36-.03.33-.08.52-.3.55-.68.26.03.52.05.79.08-.21,1.94-.42,3.88-.63,5.82-.26-.03-.51-.05-.77-.08.06-.62-.05-1.03-.35-1.24-.3-.21-.73-.34-1.3-.39-2.8-.27-5.6-.49-8.4-.65-.16,2.63-.31,5.25-.47,7.88-.01.24.09.43.32.57.23.14.52.21.88.24-.02.24-.03.49-.05.73-2.33-.15-4.66-.26-7-.34,0-.24.02-.49.02-.73.71.02,1.08-.21,1.1-.69.23-6.15.46-12.3.7-18.46.02-.49-.36-.75-1.14-.77,0-.24.02-.49.02-.73,6.99.23,13.96.76,20.92,1.6.63.08,1.08.04,1.36-.1.28-.14.43-.36.47-.66.27.03.54.07.81.1-.23,1.77-.46,3.55-.7,5.32-.26-.03-.53-.07-.79-.1Z" style="fill:#6a4322;"/><path d="M309.52,14.43c.08-.29.01-.54-.19-.75-.21-.21-.61-.4-1.22-.55-4.69-1.22-9.41-2.3-14.15-3.24-.32,1.65-.65,3.3-.97,4.95,2.81.55,5.61,1.16,8.4,1.82.57.13,1.03.17,1.38.1.35-.07.6-.41.74-1.01.26.06.52.13.77.19-.51,2.05-1.02,4.11-1.52,6.16-.25-.06-.5-.12-.75-.18.15-.61.09-1.03-.18-1.28-.27-.25-.68-.44-1.24-.57-2.75-.65-5.51-1.24-8.27-1.79-.36,1.84-.72,3.67-1.08,5.51,4.6.91,9.17,1.96,13.72,3.15.41.11.77.1,1.08-.01.31-.11.5-.33.59-.64.25.07.49.13.74.2-.49,1.79-.98,3.58-1.47,5.38-.24-.07-.48-.13-.72-.2.11-.39.04-.65-.2-.77-.24-.12-.56-.23-.96-.34-6.24-1.64-12.53-3-18.86-4.09.04-.24.08-.48.12-.72.19.03.37,0,.54-.09.17-.1.28-.26.32-.5,1.06-6.06,2.12-12.13,3.18-18.19.04-.24,0-.44-.15-.58-.14-.15-.32-.24-.53-.28.04-.24.08-.48.12-.72,6.79,1.16,13.55,2.62,20.25,4.37.62.16,1.07.19,1.37.09.29-.1.48-.3.56-.59.26.07.53.14.79.21-.47,1.73-.94,3.45-1.41,5.18-.26-.07-.52-.14-.78-.21Z" style="fill:#6a4322;"/><path d="M302.54,4.95c-1.11-.29-2.22-.57-3.33-.85,1.64-1.38,3.3-2.75,4.98-4.11,1.82.48,3.63.98,5.44,1.5-2.4,1.12-4.76,2.27-7.09,3.45Z" style="fill:#6a4322;"/><path d="M133.48,74.78c70.04-51.05,183.92-46.41,236.63,13.57" style="fill:none; stroke:#6a4322; stroke-linecap:round; stroke-miterlimit:10; stroke-width:.7px;"/><path d="M319.38,23.84c60.6,20.05,83.12,55.39,83.12,55.39" style="fill:none; stroke:#6a4322; stroke-linecap:round; stroke-miterlimit:10; stroke-width:.7px;"/><path d="M91.97,74.18c22.42-21.04,49.87-37.55,79.69-48.88" style="fill:none; stroke:#6a4322; stroke-linecap:round; stroke-miterlimit:10; stroke-width:.7px;"/><path d="M386.76,268.97c-94.29,80.78-218.92,67.85-294.8-16.37" style="fill:none; stroke:#6a4322; stroke-linecap:round; stroke-miterlimit:10; stroke-width:.75px;"/><path d="M103.11,286.99c.23-.27.16-.57-.22-.9.12-.13.23-.27.35-.4,1.33,1.16,2.66,2.3,4.01,3.42-.11.14-.23.27-.34.41-.12-.1-.26-.16-.41-.17-.15-.01-.29.05-.4.19-2.88,3.44-5.75,6.88-8.63,10.32-.11.14-.15.28-.1.44.05.15.14.29.27.39-.11.14-.23.27-.34.41-1.44-1.2-2.87-2.42-4.29-3.67.12-.13.23-.27.35-.4.4.35.72.4.96.13,1.22-1.4,2.43-2.81,3.65-4.21-2.89-2.51-5.74-5.11-8.53-7.79-1.29,1.34-2.57,2.68-3.86,4.02-.12.13-.17.27-.13.43.04.16.12.29.24.42-.12.13-.25.26-.37.39-1.35-1.29-2.69-2.6-4.02-3.93.13-.13.25-.25.38-.38.33.33.63.37.88.12,3.16-3.18,6.32-6.36,9.48-9.54.25-.25.22-.53-.09-.85.13-.13.25-.25.38-.38,1.24,1.24,2.49,2.46,3.75,3.67-.12.13-.24.26-.37.39-.12-.11-.25-.18-.41-.2-.15-.02-.29.03-.41.16-1.16,1.21-2.33,2.42-3.49,3.64,2.76,2.65,5.57,5.21,8.43,7.69,1.1-1.27,2.2-2.54,3.3-3.81Z" style="fill:#6a4322;"/><path d="M121.06,299.52c1.01.71,1.94,1.56,2.81,2.55.87.99,1.57,2.05,2.1,3.18.52,1.13.81,2.29.84,3.5.04,1.21-.31,2.39-1.04,3.54-.73,1.15-1.66,1.96-2.79,2.42-1.13.46-2.34.66-3.63.59-1.29-.07-2.59-.37-3.88-.89-1.29-.52-2.48-1.17-3.56-1.94-1.08-.77-2.09-1.68-3.02-2.73-.93-1.05-1.65-2.18-2.16-3.39-.5-1.2-.73-2.42-.68-3.65.05-1.23.5-2.38,1.34-3.45.84-1.07,1.84-1.79,3-2.15,1.16-.36,2.36-.48,3.6-.35,1.25.13,2.48.44,3.71.94,1.23.5,2.34,1.1,3.35,1.82ZM119.49,301.74c-.71-.5-1.48-.91-2.32-1.22-.84-.32-1.67-.51-2.5-.57-.83-.06-1.61.04-2.35.29-.74.26-1.37.71-1.87,1.37-.5.66-.77,1.39-.81,2.18-.03.79.11,1.58.42,2.37.32.79.77,1.55,1.36,2.27.59.72,1.26,1.35,2,1.87.74.52,1.54.94,2.42,1.26.87.32,1.74.49,2.58.53.84.03,1.63-.1,2.36-.4.73-.3,1.32-.8,1.78-1.49.46-.69.68-1.43.68-2.22,0-.79-.17-1.55-.5-2.31-.33-.76-.78-1.48-1.35-2.16-.58-.69-1.21-1.28-1.92-1.78Z" style="fill:#6a4322;"/><path d="M127.4,321.83c.39.23.67.19.85-.11,2.29-3.86,4.58-7.71,6.87-11.57.18-.31.09-.57-.27-.78.09-.15.18-.3.27-.46,1.63.98,3.27,1.93,4.92,2.86-.09.15-.17.31-.26.46-.15-.09-.28-.04-.38.13-.08.14-.02.49.18,1.05,1.35,4.13,2.84,8.27,4.46,12.39,1.42-2.8,2.84-5.61,4.25-8.41.16-.32-.02-.61-.53-.87.08-.16.16-.32.24-.47,1.48.76,2.97,1.5,4.47,2.22-.08.16-.15.32-.23.48-.38-.18-.64-.11-.8.21-1.96,4.04-3.92,8.07-5.88,12.11-.16.32-.03.58.37.77-.08.16-.15.32-.23.48-1.72-.83-3.43-1.68-5.13-2.55.08-.16.16-.32.24-.48.27.14.45.13.53-.03.06-.12,0-.41-.19-.86-1.75-4.43-3.34-8.87-4.77-13.31-1.63,2.85-3.26,5.69-4.89,8.54-.18.31-.03.6.44.87-.09.15-.18.31-.26.46-1.53-.87-3.04-1.75-4.55-2.66.09-.15.18-.31.27-.46Z" style="fill:#6a4322;"/><path d="M168.22,325.1c1.12.43,2.11.98,2.97,1.64.86.66,1.54,1.41,2.05,2.28.51.86.81,1.83.91,2.9.1,1.07-.07,2.23-.5,3.48-.43,1.25-1.02,2.27-1.78,3.04-.75.77-1.62,1.33-2.6,1.66-.98.33-2.05.46-3.19.37-1.15-.09-2.32-.37-3.52-.83-3.61-1.41-7.2-2.9-10.76-4.49.07-.16.15-.32.22-.49.49.22.81.16.95-.16,1.82-4.1,3.64-8.2,5.46-12.3.14-.33-.01-.59-.48-.8.07-.16.14-.32.22-.49,3.32,1.49,6.67,2.88,10.05,4.2ZM162.2,336.75c1.01.4,1.92.67,2.73.81.81.14,1.54.11,2.17-.08.64-.2,1.19-.57,1.67-1.11.48-.54.89-1.29,1.24-2.26.35-.97.52-1.81.51-2.53-.01-.72-.18-1.36-.52-1.91-.34-.56-.84-1.05-1.5-1.47-.67-.42-1.48-.82-2.45-1.21-1.59-.63-3.18-1.28-4.76-1.95-1.36,3.22-2.73,6.44-4.09,9.66,1.65.7,3.31,1.38,4.98,2.04Z" style="fill:#6a4322;"/><path d="M185.7,331.62c-.46-.14-.74-.03-.84.31-.85,2.84-1.7,5.68-2.55,8.52-.36,1.19-.16,2.14.6,2.85.76.71,2.01,1.3,3.73,1.78,1.73.47,3.11.59,4.12.36,1.02-.22,1.67-.94,1.97-2.15.71-2.88,1.43-5.75,2.14-8.63.09-.35-.19-.6-.82-.75.04-.17.09-.34.13-.52,1.68.42,3.36.83,5.05,1.21-.04.17-.08.35-.12.52-.51-.11-.8,0-.88.35-.66,2.84-1.32,5.68-1.98,8.52-.26,1.14-.67,2.03-1.22,2.68-.55.65-1.26,1.11-2.13,1.37-.87.26-1.89.32-3.07.19-1.17-.14-2.5-.4-3.98-.8-1.48-.4-2.76-.85-3.84-1.33-1.08-.48-1.93-1.05-2.55-1.72-.62-.66-1-1.42-1.14-2.26-.15-.84-.04-1.82.31-2.93.88-2.78,1.76-5.56,2.64-8.34.11-.34-.13-.6-.71-.79.05-.17.11-.34.16-.51,1.7.54,3.4,1.07,5.11,1.57-.05.17-.1.34-.15.51Z" style="fill:#6a4322;"/><path d="M215.57,337.67c1.02.15,1.94.37,2.75.65.81.28,1.49.64,2.05,1.08.56.44.96.97,1.22,1.58.25.62.33,1.35.23,2.19-.15,1.29-.7,2.24-1.65,2.82-.95.58-2.18.89-3.67.92,1.22,2.06,2.47,4.12,3.77,6.17.14.22.31.35.52.42.21.06.41.11.59.13-.02.18-.04.35-.06.53-2.14-.25-4.28-.52-6.42-.82.03-.18.05-.35.08-.53.21.03.39.03.54-.01.16-.04.24-.11.25-.2.01-.1-.01-.22-.09-.36-.07-.14-.19-.33-.34-.57-1.03-1.7-2.04-3.41-3.02-5.12-1.59-.25-3.17-.52-4.76-.8-.31,1.73-.62,3.46-.94,5.19-.03.17.02.32.15.43.13.11.39.21.78.27-.03.18-.06.35-.09.53-1.97-.34-3.93-.71-5.89-1.11.04-.17.07-.35.11-.52.66.13,1.02.02,1.09-.33.87-4.4,1.74-8.8,2.61-13.2.07-.35-.2-.58-.82-.71.04-.17.07-.35.11-.52,3.62.73,7.26,1.36,10.9,1.91ZM213.68,344.4c.79.12,1.46.16,2,.13.54-.03.98-.12,1.32-.28.33-.15.59-.35.75-.6.17-.25.27-.53.31-.84.04-.31.02-.61-.08-.89-.1-.28-.28-.54-.56-.78-.27-.24-.67-.45-1.17-.63-.5-.18-1.14-.33-1.92-.45-1.87-.29-3.73-.6-5.59-.93-.26,1.44-.52,2.88-.78,4.32,1.9.34,3.8.66,5.7.95Z" style="fill:#6a4322;"/><path d="M225.19,354.02c.3,0,.55-.11.74-.32.19-.2.38-.43.57-.69,2.47-3.63,4.83-7.3,7.1-11,.17-.25.32-.47.45-.68.13-.21.2-.39.21-.55.01-.2-.05-.34-.2-.43-.15-.09-.3-.16-.47-.21.01-.18.02-.35.04-.53,1.82.12,3.63.22,5.45.3,0,.18-.01.35-.02.53-.15.03-.31.08-.46.14-.15.06-.24.2-.25.42,0,.16.02.32.09.48.07.16.17.37.32.64,2.09,4.11,4.29,8.2,6.63,12.25.11.22.27.38.46.48.19.1.42.2.67.3,0,.18,0,.36,0,.53-2.03-.02-4.05-.06-6.08-.13,0-.18.01-.36.02-.53.09,0,.21-.02.35-.08.14-.05.21-.14.22-.26,0-.2-.08-.46-.25-.78-.41-.74-.82-1.49-1.22-2.24-2.76-.1-5.53-.26-8.28-.46-.46.67-.92,1.34-1.39,2.01-.26.4-.4.68-.41.86-.02.22.19.34.63.38-.01.18-.03.35-.04.53-1.63-.13-3.26-.27-4.89-.43.02-.18.04-.35.05-.53ZM238.4,349.43c-.86-1.88-1.7-3.76-2.52-5.64-1.13,1.78-2.29,3.55-3.47,5.31,1.99.14,3.99.25,5.99.34Z" style="fill:#6a4322;"/><path d="M251.44,355.14c.44,0,.65-.19.65-.54-.07-4.48-.14-8.97-.21-13.45,0-.36-.21-.53-.62-.53,0-.18,0-.35,0-.53,1.84-.02,3.68-.07,5.52-.14,0,.18.01.35.02.53-.17,0-.26.11-.25.31,0,.16.23.43.68.8,3.23,2.82,6.58,5.57,10.04,8.24-.26-3.13-.51-6.26-.77-9.39-.03-.35-.32-.51-.88-.47-.01-.18-.03-.35-.04-.53,1.62-.13,3.24-.27,4.86-.43.02.18.04.35.05.53-.41.04-.6.24-.56.59.44,4.46.87,8.93,1.31,13.39.03.35.27.51.71.47.02.18.04.35.05.53-1.86.19-3.72.35-5.58.49-.01-.18-.03-.35-.04-.53.3-.02.44-.12.43-.3,0-.14-.21-.35-.6-.64-3.72-2.87-7.31-5.83-10.76-8.86.1,3.28.21,6.56.31,9.83.01.36.28.53.81.51,0,.18.01.36.02.53-1.7.06-3.41.1-5.11.12,0-.18,0-.36,0-.53Z" style="fill:#6a4322;"/><path d="M308.51,345.74c-.07.02-.13.03-.19.03-.06,0-.12.02-.19.03-.13.04-.42.23-.86.59-.44.36-1.01.78-1.71,1.26-.7.48-1.52.95-2.46,1.39-.94.45-1.95.79-3.04,1.04-1.42.32-2.83.46-4.2.41-1.38-.04-2.63-.29-3.76-.76-1.13-.46-2.07-1.13-2.82-2-.75-.87-1.24-1.96-1.47-3.26-.23-1.28-.14-2.47.25-3.55.39-1.08,1-2.04,1.82-2.88.83-.84,1.82-1.55,2.98-2.13,1.16-.58,2.4-1.02,3.73-1.31,1.08-.24,2.07-.39,2.98-.44.91-.05,1.71-.08,2.41-.07.7.01,1.25.04,1.67.1.42.06.67.07.76.05.11-.03.18-.1.23-.21.05-.11.09-.21.11-.27.19.07.38.15.56.22-.51,1.37-1.04,2.74-1.59,4.11-.12-.04-.25-.08-.37-.12-.01-.06-.03-.11-.06-.17-.02-.06-.06-.12-.1-.19-.1-.2-.36-.36-.8-.49-.44-.13-.96-.21-1.57-.24-.61-.04-1.24-.04-1.89-.01-.66.03-1.25.1-1.78.22-.9.2-1.73.5-2.5.91-.77.41-1.42.89-1.95,1.46-.52.57-.91,1.21-1.15,1.93-.24.72-.29,1.5-.13,2.33.16.83.49,1.54.99,2.12.5.58,1.12,1.03,1.84,1.34.73.32,1.55.5,2.46.56.91.05,1.84-.03,2.78-.24.71-.16,1.45-.4,2.19-.73.75-.33,1.41-.68,2.01-1.06.59-.38,1.06-.76,1.42-1.15.36-.39.51-.71.44-.95-.03-.13-.11-.24-.22-.31.13-.12.27-.23.4-.35.98.83,1.98,1.65,2.98,2.47-.07.1-.14.2-.21.3Z" style="fill:#6a4322;"/><path d="M320.41,327.88c1.13-.39,2.33-.64,3.61-.76,1.28-.12,2.52-.06,3.72.18,1.2.24,2.29.7,3.28,1.38.99.68,1.74,1.65,2.25,2.92.51,1.27.63,2.49.35,3.67-.27,1.18-.8,2.27-1.59,3.27-.79,1-1.75,1.86-2.9,2.6-1.14.73-2.33,1.31-3.54,1.73-1.21.42-2.5.69-3.85.82-1.35.13-2.64.04-3.88-.26-1.23-.3-2.31-.84-3.25-1.6-.94-.76-1.6-1.8-1.98-3.11-.38-1.31-.39-2.54-.04-3.68.35-1.15.92-2.18,1.71-3.11.79-.93,1.72-1.73,2.8-2.43,1.08-.7,2.18-1.24,3.31-1.63ZM321.3,330.46c-.79.27-1.54.65-2.26,1.14-.72.49-1.33,1.05-1.84,1.68-.51.63-.86,1.32-1.07,2.07-.21.75-.19,1.52.05,2.31.25.79.67,1.44,1.28,1.93.61.49,1.31.85,2.11,1.06.8.21,1.65.29,2.56.24.9-.05,1.77-.22,2.6-.51.83-.28,1.61-.69,2.36-1.2.74-.52,1.37-1.11,1.87-1.77.5-.66.84-1.37,1.01-2.14.17-.76.11-1.53-.18-2.31-.3-.78-.76-1.39-1.39-1.85-.63-.46-1.34-.78-2.13-.96-.79-.18-1.62-.24-2.49-.18-.87.06-1.7.22-2.49.5Z" style="fill:#6a4322;"/><path d="M351.55,318.18c-.1-.19-.26-.29-.48-.3-.22,0-.54.09-.95.31-3.21,1.65-6.46,3.21-9.73,4.69.51,1.12,1.01,2.23,1.52,3.35,2.01-.91,4.02-1.85,6.01-2.82.41-.2.7-.39.89-.57.19-.18.22-.4.1-.64.18-.09.36-.18.55-.27.64,1.27,1.27,2.55,1.91,3.82-.19.09-.37.18-.56.28-.2-.41-.44-.61-.73-.62-.28,0-.63.1-1.04.3-2.01.98-4.04,1.93-6.07,2.85.79,1.75,1.58,3.49,2.37,5.24.07.16.22.24.44.24.22,0,.46-.07.74-.19.07.16.15.32.22.49-1.82.83-3.64,1.64-5.47,2.42-.07-.16-.14-.33-.21-.49.56-.24.77-.52.63-.85-1.78-4.12-3.56-8.24-5.34-12.35-.14-.33-.47-.38-1-.15-.07-.16-.14-.33-.21-.49,4.67-1.99,9.28-4.16,13.83-6.49.41-.21.67-.42.78-.62.11-.2.11-.4.01-.59.18-.09.35-.18.53-.27.6,1.16,1.21,2.31,1.81,3.47-.18.09-.36.19-.54.28Z" style="fill:#6a4322;"/><path d="M370.09,307.38c-.12-.18-.29-.27-.51-.25-.22.01-.53.15-.93.4-3.08,1.97-6.19,3.86-9.34,5.67.61,1.06,1.22,2.13,1.83,3.19,1.94-1.11,3.86-2.25,5.77-3.42.39-.24.67-.46.84-.66.17-.2.18-.42.04-.65.17-.11.35-.22.52-.33.75,1.21,1.51,2.41,2.26,3.62-.18.11-.36.22-.53.33-.24-.39-.5-.57-.79-.54-.28.03-.62.16-1.02.4-1.93,1.19-3.88,2.34-5.84,3.46.95,1.66,1.9,3.33,2.86,4.99.09.15.24.22.46.2.22-.02.46-.11.73-.27.09.15.18.31.27.46-1.75,1.01-3.5,2-5.27,2.96-.09-.16-.17-.31-.26-.47.54-.29.72-.6.55-.91-2.16-3.93-4.32-7.86-6.49-11.79-.17-.31-.51-.33-1.01-.05-.08-.16-.17-.31-.25-.47,4.5-2.46,8.94-5.08,13.29-7.87.39-.25.64-.49.73-.7.09-.21.08-.41-.04-.59.17-.11.34-.22.5-.33.71,1.09,1.42,2.19,2.14,3.28-.17.11-.34.22-.51.33Z" style="fill:#6a4322;"/><path d="M388.07,294.4c-.13-.17-.31-.23-.53-.2-.22.04-.52.2-.9.5-2.91,2.3-5.87,4.52-8.87,6.66.71,1,1.42,2,2.13,3,1.84-1.31,3.67-2.66,5.49-4.04.37-.28.62-.54.76-.78.14-.24.07-.54-.21-.9.17-.13.33-.25.5-.38.94,1.22,1.88,2.44,2.83,3.66-.17.13-.34.26-.51.39-.28-.36-.56-.51-.84-.46-.28.06-.61.23-.98.51-1.83,1.39-3.68,2.75-5.55,4.08.79,1.11,1.58,2.22,2.37,3.33,3.23-2.31,6.42-4.7,9.56-7.2.28-.22.47-.46.56-.71.09-.25.06-.47-.08-.65.17-.13.34-.27.5-.4.85,1.05,1.7,2.11,2.55,3.16-.17.14-.34.27-.51.41-.19-.23-.38-.29-.58-.18-.21.11-.45.28-.74.51-4.43,3.52-8.96,6.85-13.57,10-.1-.15-.2-.29-.3-.44.14-.09.24-.22.3-.36.06-.15.04-.29-.07-.44-2.54-3.7-5.07-7.4-7.61-11.1-.1-.15-.23-.22-.38-.23-.15,0-.29.04-.42.13-.1-.15-.2-.29-.3-.44,4.22-2.88,8.36-5.92,12.41-9.13.37-.3.59-.56.67-.78.07-.22.04-.42-.1-.59.16-.13.32-.25.48-.38.82,1.02,1.63,2.03,2.45,3.05-.16.13-.32.26-.48.39Z" style="fill:#6a4322;"/><path d="M406.09,278.32c-.15-.15-.34-.2-.56-.14-.22.06-.5.27-.85.61-2.71,2.66-5.47,5.23-8.28,7.73.81.92,1.62,1.83,2.44,2.75,1.73-1.53,3.44-3.1,5.13-4.69.34-.32.57-.62.69-.88.11-.26.01-.55-.3-.88.15-.15.31-.29.46-.44,1.07,1.11,2.13,2.22,3.2,3.34-.16.15-.31.3-.47.45-.31-.33-.61-.45-.89-.36-.28.09-.59.3-.94.63-1.71,1.61-3.44,3.19-5.19,4.74.9,1.02,1.81,2.04,2.71,3.06,3.03-2.69,6.01-5.47,8.93-8.34.26-.26.43-.52.49-.78.07-.26.02-.48-.15-.65.16-.15.31-.31.47-.47.96.96,1.91,1.91,2.87,2.87-.16.16-.32.32-.48.47-.21-.21-.41-.25-.61-.11-.2.14-.43.34-.69.6-4.12,4.06-8.35,7.93-12.69,11.62-.12-.14-.23-.27-.35-.41.13-.11.22-.24.26-.4.04-.15,0-.3-.11-.43-2.91-3.41-5.83-6.82-8.74-10.23-.12-.14-.25-.19-.4-.18-.15.01-.29.07-.41.18-.11-.14-.23-.27-.34-.41,3.96-3.37,7.83-6.91,11.6-10.61.35-.34.55-.63.6-.86.05-.23,0-.42-.16-.58.15-.15.29-.29.44-.44.92.92,1.84,1.85,2.76,2.77-.15.15-.3.3-.45.45Z" style="fill:#6a4322;"/><path d="M436.06,276.43l50.44-.46c3.24,13.31,21.33-2.24-1.24-13.07" style="fill:none; stroke:#6a4322; stroke-linecap:round; stroke-miterlimit:10; stroke-width:.75px;"/><path d="M468.49,256.33c-2.41-2.41-6.98-1.74-10.22,1.5-3.21,3.21-3.9,7.75-1.55,10.17.05-.14.11-.29.18-.46.12-.27.29-.58.5-.9.05-.08.11-.16.17-.24.06-.08.12-.16.2-.25.03-.04.06-.08.1-.12h.01s0-.02,0-.02c0,0,0,0,0,0h0s.03-.03.03-.03c.02-.02.04-.04.06-.06.04-.04.08-.08.11-.12.02-.02.04-.04.06-.06.02-.02.04-.04.06-.06.04-.04.08-.08.13-.12.02-.02.04-.04.07-.06.02-.02.05-.04.07-.06.09-.08.18-.16.28-.23.05-.04.1-.08.15-.11.05-.04.1-.07.15-.11.05-.03.1-.07.15-.1.05-.03.1-.07.15-.1.05-.03.1-.06.15-.09.05-.03.1-.06.15-.09.1-.06.19-.11.29-.17.09-.05.19-.11.28-.16.05-.03.09-.05.14-.08.04-.03.09-.05.13-.08.18-.11.35-.22.52-.33.17-.11.34-.23.49-.35l.06-.04.03-.02s.02-.01.03-.02l.14-.11s.09-.07.14-.11l.03-.03h.02s.02-.03-.01,0h0s0,0,0,0l.06-.05c.08-.07.16-.13.25-.2.08-.07.16-.13.24-.2.32-.27.63-.54.92-.82.07-.07.14-.14.21-.2l.05-.05.03-.03.02-.02s.07-.07.1-.1c.03-.03.07-.07.1-.1.03-.03.07-.07.1-.1.07-.07.13-.14.19-.21.25-.27.49-.54.7-.8.22-.26.41-.5.58-.72.17-.22.32-.42.44-.59.12-.17.22-.3.29-.39.07-.09.11-.14.11-.14,0,0,0,.06,0,.16,0,.1-.02.26-.05.45-.03.2-.08.43-.15.71-.07.27-.18.58-.32.92-.14.33-.32.69-.53,1.06-.03.05-.05.09-.08.14-.03.05-.06.09-.09.14-.03.05-.06.09-.09.14-.03.05-.06.09-.1.14-.03.05-.06.09-.1.14l-.05.07-.05.07c-.07.1-.14.19-.22.28-.3.37-.63.74-.99,1.09-.18.17-.37.34-.56.51l-.07.06-.09.07s-.09.07-.14.11l-.14.11s-.02.02-.04.03l-.04.03-.08.06c-.11.08-.22.16-.33.23-.05.04-.11.07-.16.11l-.08.05-.08.05c-.22.14-.44.26-.66.37-.44.23-.85.4-1.2.55-.35.15-.64.3-.93.49l-.05.03s-.04.02-.05.04c-.04.02-.07.05-.11.07-.03.02-.07.05-.1.07-.02.01-.04.03-.06.04-.02.01-.03.02-.05.04-.06.04-.13.1-.2.15-.03.03-.06.05-.1.08-.03.03-.06.05-.09.08-.25.2-.47.41-.67.6-.16.16-.31.31-.43.44,2.47,2.11,6.83,1.38,9.96-1.74,3.24-3.24,3.91-7.81,1.5-10.22Z" style="fill:#6a4322;"/><path d="M454.91,263.14c.31-2.02,1.37-4.04,3-5.67.81-.81,1.72-1.48,2.67-1.99,0-.03,0-.05,0-.08,0-5.8-3.5-10.5-7.82-10.5s-7.82,4.7-7.82,10.5,3.5,10.5,7.82,10.5c.75,0,1.47-.14,2.15-.4-.13-.74-.14-1.53-.01-2.36ZM453.88,255.95c-.15.24-.3.48-.46.71-.15.23-.3.46-.44.68-.28.44-.53.87-.74,1.28-.05.1-.1.21-.15.31-.02.05-.04.1-.06.15l-.03.08-.03.08c-.02.05-.04.1-.06.15-.02.05-.03.1-.05.15v.04s-.02.02-.02.02h0s0,.01,0,.01c0,0,0-.06,0-.03,0,.03-.01.06-.02.09-.01.06-.03.12-.04.17,0,.04-.02.07-.02.11,0,.02,0,.04-.01.06,0,.02,0,.04,0,.07,0,.05-.01.09-.02.13,0,.04,0,.09,0,.13-.01.18,0,.36.02.54.04.35.13.69.24.99.11.3.23.57.34.79.11.22.21.39.28.51.07.12.1.19.1.19,0,0-.07-.03-.21-.1-.03-.02-.07-.03-.11-.06-.04-.02-.08-.05-.13-.07-.05-.03-.1-.05-.15-.09-.05-.03-.11-.07-.17-.11-.23-.15-.51-.35-.79-.63-.28-.27-.57-.62-.81-1.05-.11-.22-.22-.46-.3-.72-.02-.07-.04-.13-.06-.2-.01-.07-.03-.14-.04-.21,0-.04-.01-.07-.02-.11,0-.04,0-.08-.01-.12,0-.08-.01-.16-.02-.24,0-.06,0-.12,0-.18v-.09s0-.05,0-.04h0s0-.02,0-.02v-.03s0-.05,0-.05c0-.07.01-.14.02-.21,0-.07.02-.14.03-.21.04-.28.1-.57.18-.85.16-.56.4-1.11.67-1.63.07-.13.14-.26.21-.39.07-.13.14-.25.22-.38.15-.25.3-.49.45-.73.3-.48.61-.94.88-1.38.28-.44.53-.87.74-1.29.03-.05.05-.1.08-.16.02-.05.05-.1.07-.16l.04-.08.03-.07.03-.07.02-.04v-.02s.02-.02.02-.02c.02-.06.04-.12.07-.18l.02-.04h0s0-.03,0,0h0s0-.02,0-.02l.02-.07s.03-.09.05-.13c.01-.04.02-.09.04-.13l.02-.07s0-.04.01-.07c0-.04.02-.09.02-.13,0-.04,0-.09.01-.13,0-.04.01-.09.01-.13,0-.18,0-.36-.02-.53-.04-.35-.14-.69-.25-.99-.01-.04-.03-.07-.04-.11,0-.02-.01-.04-.02-.06,0-.02-.02-.04-.02-.05-.03-.07-.06-.14-.09-.21-.06-.13-.11-.25-.17-.36-.03-.06-.05-.11-.08-.16-.03-.05-.05-.09-.07-.14-.05-.09-.08-.16-.12-.22-.07-.12-.1-.19-.1-.19,0,0,.07.03.21.1.03.02.07.03.11.06.04.02.08.05.13.07.05.03.1.06.15.09.05.03.11.07.17.11.12.07.24.17.38.27.13.11.27.22.41.36.28.27.57.61.81,1.05.12.22.22.46.3.71.02.06.04.13.05.2.01.07.03.14.04.21.01.07.02.14.03.21,0,.04,0,.07.01.11,0,.04,0,.07,0,.11,0,.07,0,.15,0,.22,0,.07,0,.15-.01.23,0,.04,0,.08,0,.11v.03s0,.01,0,.01c0,.03,0,.01,0,.02h0s0,.05,0,.05c0,.06-.02.12-.02.18v.02s0,.03,0,.03v.05s-.02.07-.03.11c0,.04-.01.07-.02.11l-.02.1c-.02.07-.03.14-.05.21-.02.07-.04.14-.06.21-.16.56-.39,1.1-.66,1.63-.27.52-.57,1.02-.87,1.51Z" style="fill:#6a4322;"/><path d="M60.74,276.43l-50.44-.46c-3.24,13.31-21.33-2.24,1.24-13.07" style="fill:none; stroke:#6a4322; stroke-linecap:round; stroke-miterlimit:10; stroke-width:.75px;"/><path d="M47.33,257.47c.27-.83.44-1.31.79-1.93.93-1.67,1.95-2.07,2.12-4.08.19-2.24-.9-3.77-1.51-5.38-.3-.78.23-1.65.99-1.65,0,0,0,0,.01,0,4.31,0,7.81,5.27,7.81,11.78,0,6.5-3.5,11.78-7.81,11.78h-.01c-.96,0-1.68-.89-1.93-1.2-1.23-1.52-1.58-5.89-.47-9.3Z" style="fill:#6a4322;"/><path d="M45.85,244.74c.9.4,1.28,1.33,1.83,2.65.15.35.91,2.23.74,4.02-.05.58-.19.95-.23,1.08-.19.49-.48.86-.82,1.31-.31.39-.65.84-.99,1.45-.39.7-.57,1.24-.84,2.04-.55,1.69-.79,3.67-.67,5.59.08,1.42.36,2.65.78,3.53.07.15.24.41.42.65.24.34.08.84-.3.92,0,0,0,0,0,0-2.83.59-7.81-5.46-7.81-11.78,0-6.17,4.09-10.99,6.25-11.54.26-.07.95-.24,1.66.08Z" style="fill:#6a4322;"/><path d="M26.63,255.1c2.2-1.49,5.75-.78,8.32,1.79s3.27,6.08,1.82,8.28c-2.48-4.24-7.65-5.83-10.13-10.08Z" style="fill:#6a4322;"/><path d="M25.52,256.22c2.48,4.24,7.65,5.83,10.13,10.08-2.2,1.49-5.75.78-8.32-1.79-2.56-2.56-3.27-6.08-1.82-8.28Z" style="fill:#6a4322;"/><path d="M439.18,87.48c24.18,0,31.48-16.71,51.09-16.71,11.74,0,12.74,12.89,5.59,16.71" style="fill:none; stroke:#6a4322; stroke-linecap:round; stroke-miterlimit:10; stroke-width:.7px;"/><line x1="415.54" y1="87.48" x2="430.46" y2="87.48" style="fill:none; stroke:#6a4322; stroke-linecap:round; stroke-miterlimit:10; stroke-width:.7px;"/><line x1="465.32" y1="87.48" x2="488.37" y2="87.48" style="fill:none; stroke:#6a4322; stroke-linecap:round; stroke-miterlimit:10; stroke-width:.7px;"/><path d="M465.32,87.48c22.29-15.59,31.07-2.93,23.05,0" style="fill:none; stroke:#6a4322; stroke-linecap:round; stroke-miterlimit:10; stroke-width:.7px;"/><path d="M439.18,87.48s7.47-.79,8.59-7.63" style="fill:none; stroke:#6a4322; stroke-linecap:round; stroke-miterlimit:10; stroke-width:.7px;"/><path d="M452.95,81.33s2.59-3.98.82-8.34" style="fill:none; stroke:#6a4322; stroke-linecap:round; stroke-miterlimit:10; stroke-width:.7px;"/><path d="M439.18,220.7c24.18,0,31.48,16.71,51.09,16.71,11.74,0,12.74-12.89,5.59-16.71" style="fill:none; stroke:#6a4322; stroke-linecap:round; stroke-miterlimit:10; stroke-width:.7px;"/><line x1="465.32" y1="220.7" x2="488.37" y2="220.7" style="fill:none; stroke:#6a4322; stroke-linecap:round; stroke-miterlimit:10; stroke-width:.7px;"/><path d="M465.32,220.7c22.29,15.59,31.07,2.93,23.05,0" style="fill:none; stroke:#6a4322; stroke-linecap:round; stroke-miterlimit:10; stroke-width:.7px;"/><path d="M439.18,220.7s7.47.79,8.59,7.63" style="fill:none; stroke:#6a4322; stroke-linecap:round; stroke-miterlimit:10; stroke-width:.7px;"/><path d="M452.95,226.85s2.59,2.96.82,7.32" style="fill:none; stroke:#6a4322; stroke-linecap:round; stroke-miterlimit:10; stroke-width:.7px;"/><path d="M61.76,87.48c-24.18,0-31.48-16.71-51.09-16.71-11.74,0-12.74,12.89-5.59,16.71" style="fill:none; stroke:#6a4322; stroke-linecap:round; stroke-miterlimit:10; stroke-width:.7px;"/><line x1="75.07" y1="87.48" x2="68.99" y2="87.48" style="fill:none; stroke:#6a4322; stroke-linecap:round; stroke-miterlimit:10; stroke-width:.7px;"/><line x1="35.63" y1="87.48" x2="12.58" y2="87.48" style="fill:none; stroke:#6a4322; stroke-linecap:round; stroke-miterlimit:10; stroke-width:.7px;"/><path d="M35.63,87.48c-22.29-15.59-31.07-2.93-23.05,0" style="fill:none; stroke:#6a4322; stroke-linecap:round; stroke-miterlimit:10; stroke-width:.7px;"/><path d="M61.76,87.48s-7.47-.79-8.59-7.63" style="fill:none; stroke:#6a4322; stroke-linecap:round; stroke-miterlimit:10; stroke-width:.7px;"/><path d="M48,81.33s-2.59-3.98-.82-8.34" style="fill:none; stroke:#6a4322; stroke-linecap:round; stroke-miterlimit:10; stroke-width:.7px;"/><path d="M37.09,129.48c-.04-1.15.76-2.59,2.44-3.67,8.2-5.28,26.26-7.45,47.46-8.19,14.87-.52,31.14-.06,45.43,2.39,1.93-3.65,3.86-7.18,5.62-10.57,4.11-.02,6.04,1.33,6.13,3.88.06,1.66-.72,3.87-2.16,6.74l-.97,1.7c16.4,4.04,28.3,11.57,28.74,24.23.7,20.08-32.6,36.87-56.02,37.3-.68.02-1.88.07-2.91-.15,21.44,11.42,46.79,26.8,71.09,31.59,5.34,1.1,17.51,1.57,20.24,1.47,1.19-.17,1.22.73-.14.9-2.9.23-5.63.45-8.37.55-32.3,1.13-63.81-9.3-100.13-30.07-11.64,14.75-22.28,28.57-29.03,40.85-1.45,2.74-6.1,1.88-4.3-.62,7.67-10.77,18.44-25.62,30.02-42.16-2.27-1.33-4.54-2.66-6.82-4.12-3.85-2.43-5.47-4.8-5.53-6.59-.1-2.81,3.27-4.47,6.55-3.56,3.8,1.15,7.96,2.67,12.31,4.69,11.41-16.41,22.61-33.7,31.82-49.26-16.41-4.42-37.01-6.27-56.67-5.58-11.11.39-26.76,2.98-30.08,11.04-2.72.61-4.65-.99-4.72-2.78ZM101.41,177.96c3.99,1.53,6.25,2.6,13.43,2.35,1.71-.06,3.75-.26,6.31-.48,15.52-1.44,39.45-12.13,38.85-29.27-.33-9.34-9.65-16.44-23.33-21.34-9.7,16.22-22.64,32.81-35.26,48.75Z" style="fill:#6a4322; stroke:#6a4322; stroke-miterlimit:10; stroke-width:2px;"/><path d="M251.27,186.73c-4.87,5.87-17.54,18.33-44.36,19.27-16.26.57-23.27-6.63-23.45-11.68-.32-9.17,15.8-25.71,24.57-28.86,5.43-1.93,10.33-.83,9.28,5.53-1.37,9.06-10.84,16.36-19.53,21.72,3.56,5.1,11.44,6.72,19.46,6.44,11.19-.39,21.84-4.09,32.71-13.8.82-.82,3.35-1.07,1.32,1.38ZM196.66,190.69c4.13-2.67,9.9-6.99,10.95-13.35.33-2.54-.99-3.92-3.71-3.19-3.35.75-7.63,5.33-8.1,10.09-.33,2.54-.05,4.59.86,6.46Z" style="fill:#6a4322; stroke:#6a4322; stroke-miterlimit:10; stroke-width:2px;"/><path d="M261.43,162.96c7.12-1.99,12.67-.44,10.26,3.28-3.01,4.53-8.44,12.48-10.7,20.46-.56,2.08-.72,3.66-.67,5.09.18,5.22,4.03,6.35,9.07,5.38,8.82-1.57,27.81-14.74,35.34-29.24,1.78-3.54,1.55-4.01,4.91-4.6,4.83-.96,8.25.03,5.47,5.19-7.35,13.55-14.48,33.42-26.01,54.39,11.5-3.57,23.69-5.73,35.93-6.16,32.94-1.15,49.96,8.07,50.43,21.66.19,5.37-2.14,11.31-7.2,17.66-2.84,3.58-4.35,2.68-4.07-1.6,1.37-21.41-21.24-33.12-52.06-32.04-8.45.29-16.85,1.7-25.01,4.04-12.34,21.95-29.51,45.01-56.34,63.67-4.95,3.5-9.13,4.91-12.51,5.02-5.7.2-8.81-3.96-9-9.34-.14-4.11,1.38-8.91,4.61-13.29,12.72-17.21,36.61-35.29,65.2-46.1,5.91-12.39,10.75-25.06,15.19-37.24,1.94-5.13-.94-2.66-3.82-.34-6.79,5.46-13.35,11.07-22.14,13.74-2.72.89-5.45,1.3-7.98,1.39-6.96.24-12.98-2.39-13.24-9.98-.08-2.37.45-5.24,1.6-8.6,2.51-6.74,5.73-11.59,8.08-16.9.96-2.88,1.12-4.47,4.67-5.54ZM277.5,229.64c-29.21,10.99-53.44,31.61-61.2,45.33-2.4,4.04-3.33,7.55-3.23,10.4.14,4.11,2.77,6.71,6.78,6.57,2.53-.09,5.67-1.15,9.39-3.65,21.9-14.53,36.8-35.77,48.27-58.64Z" style="fill:#6a4322; stroke:#6a4322; stroke-miterlimit:10; stroke-width:2px;"/><path d="M340.79,159.08c4.86-.17,7.45,1.48,7.57,4.8.04,1.26-.33,2.86-1.11,4.63-4.88,11.56-10.53,19.19-13.61,28.01-.78,2.08,1.97,1.99,4.42-.47,10.01-10,23.44-31.03,31.89-31.33,2.74-.1,5.57,2.18,5.67,5.02.3,8.69-2.75,18.13-2.08,25.39.38,4.73,3.79,5.4,7.36,4.96,8.62-1.25,14.39-5.72,20.38-9.73,1.24-.84,2.98.69,1.33,1.69-9.3,6.18-20.24,13.52-28.49,13.33-9.52-.15-12.05-6.07-12.03-11.45-.03-6.8,1.47-12.55,1.92-17.79.12-2.53-2.18-1.82-4.01-.02-12.47,12.14-18.99,25.34-29.04,28.07-5.45,1.46-11-.25-8.45-6.03,3.53-7.88,8.45-18.33,14.21-28.82,1.19-2.26,2.36-5.14,2.05-7.98-.28-2.05.13-2.22,2.04-2.29Z" style="fill:#6a4322; stroke:#6a4322; stroke-miterlimit:10; stroke-width:2px;"/><path d="M458.93,200.69c-10.74,1.32-16.18-3.23-16.78-8.28-.33-3.47.39-6.97,1.14-9.69.56-2.08,1.32-4.48-1.99-2.46-3.31,2.01-17.35,11.68-26.1,15.47-3.54,1.54-7.1,2.3-9.85,2.4-3.8.13-6.59-1.04-6.71-4.36-.05-1.58.51-3.65,1.9-6.24,4.95-9.51,18.68-22.17,30.16-26.36,4.18-1.41,8.38-2.19,12.18-2.32,6.54-.23,11.25,1.35,9.65,3.78-10.25-2.81-29.68,9.74-36.91,20.59-3.02,4.54-4.4,7.27-4.35,8.7.07,2.05,3.21,1.15,8.62-1.41,8.52-4.09,23.19-14.1,32.18-22.96,3.28-3.12,6.13-.21,6.19,1.68-2.57,5.15-3.77,13.11-3.59,18.48.23,6.64,4.16,10.14,8.59,9.98.84-.03.72,2.35-4.34,3Z" style="fill:#6a4322; stroke:#6a4322; stroke-miterlimit:10; stroke-width:2px;"/><path d="M471.33,123.24c0,.47-.86.87-1.29.88-.76.02-4.08-6.64-20.84-6.14-6.33.18-11.88,1.01-11.88,1.01-24.56,3.64-41.78,15.23-58.76,15.74-16.33.48-25.76-11.44-25.78-12.57,0-.28.53-.68.97-.69.86-.03,7.57,9.07,20.22,8.7,17.3-.51,33.73-10.49,59.65-13.42,0,0,5.28-.72,10.91-.79,20.11-.6,26.79,6.53,26.8,7.28Z" style="fill:#6a4322; stroke:#6a4322; stroke-miterlimit:10; stroke-width:1.5px;"/></g></svg>