<?xml version="1.0" encoding="UTF-8"?><svg id="b" xmlns="http://www.w3.org/2000/svg" viewBox="0 0 400 278.34"><g id="c"><path d="M169.13,253.57c-7.99.26-15.89,1.21-23.51,3.74-2.17.72-5.05,1.39-5.15,4.13-.11,2.94,2.86,3.71,5.08,4.51,7.02,2.53,14.39,3.43,21.77,4.14,20.22,1.93,40.48,2.09,60.73.55,10.38-.79,20.75-1.8,30.74-5.02,2.24-.72,4.41-1.61,6.32-3.01,2.8-2.04,2.94-4.35.45-6.82-2.32-2.31-5.43-3.2-8.26-4.65,10.27,1.47,20.61,2.65,30.19,6.99,2.35,1.06,5.33,2.15,5.26,5.23-.07,3.18-3.08,4.27-5.6,5.25-8.81,3.43-18.11,4.8-27.4,6.01-33.25,4.33-66.61,4.66-100.01,2.16-14.22-1.07-28.4-2.58-42.16-6.61-2.25-.66-4.47-1.44-6.51-2.61-4.19-2.42-4.37-5.4-.42-8.26,3.47-2.51,7.49-3.82,11.55-4.99,12.76-3.68,25.89-5.26,39.05-6.62,48.76-4.02,94.15,3.75,94.01,10.68-.05,2.64-3.05,3.07-5.09,3.71-8.02,2.5-16.34,3.36-24.66,3.97-18.85,1.38-37.69,1.55-56.47-.97-4.18-.56-8.36-1.16-12.33-2.69-1.23-.48-2.65-.99-2.74-2.5-.1-1.66,1.51-1.99,2.66-2.48,4-1.71,8.28-2.33,12.51-3.17,2.36-.28,4.72-.55,6.1-.71-1.37-.26-3.74-.44-6.11.07Z" style="fill:#f3ede4;"/><path d="M179.73,233.4c5.6-.14,10.81,1.41,12.74,6.26" style="fill:#f3ede4;"/><path d="M288.56,241.93c18.53,5.48,25.28,10.64,24.92,15.2-.35,4.43-11,9.3-13.34,8.96,1.37-.87,2.35-1.41,3.22-2.07,4.11-3.11,4.12-6.22-.03-9.25-4.71-3.44-10.23-5.06-15.74-6.57-12.97-3.56-26.22-5.84-39.6-6.78-25.07-1.75-32.98-2.33-55.53-1.75-23.47.6-52.23,2.41-74.07,7.37-5.85,1.33-11.6,3.02-16.99,5.71-1,.5-1.96,1.11-2.88,1.75-5.08,3.56-4.96,7.21.32,10.66.62.4,1.24.81,2.01,1.31-3.62-.24-9.66-3.38-11.65-5.97-1.99-2.59-1.87-5.64.44-8.17,2.52-2.76,5.8-4.4,9.17-5.85,10.14-4.39,20.86-6.62,31.69-8.33,18.08-2.85,30.94-3.8,49.21-4.72,20.57-1.04,29.59-.55,43.21-.11,16.54.54,48,3.42,65.63,8.64Z" style="fill:#f3ede4;"/><path d="M202.02,13.7c-.32-.87-.53-1.37-.95-2.03-1.12-1.76-2.34-2.17-2.55-4.28-.23-2.35,1.08-3.96,1.81-5.65.36-.82-.27-1.73-1.19-1.74,0,0-.01,0-.02,0-5.18,0-9.38,5.54-9.38,12.37s4.2,12.37,9.38,12.37h.01c1.15,0,2.01-.94,2.32-1.26,1.48-1.59,1.89-6.19.56-9.77Z" style="fill:#f3ede4;"/><path d="M203.8.33c-1.08.42-1.54,1.4-2.2,2.78-.17.37-1.09,2.34-.89,4.23.07.61.22,1,.28,1.13.23.52.57.9.99,1.37.37.41.78.88,1.19,1.52.47.73.69,1.3,1,2.14.66,1.77.94,3.86.81,5.87-.1,1.49-.43,2.78-.93,3.7-.08.15-.29.43-.51.69-.29.35-.1.89.36.97,0,0,0,0,.01,0,3.4.62,9.38-5.73,9.38-12.37s-4.91-11.54-7.5-12.12c-.32-.07-1.14-.26-1.99.08Z" style="fill:#f3ede4;"/><path d="M83.5,60.91c-.56-.66-.9-1.03-1.48-1.48-1.54-1.19-2.75-1.16-3.6-2.94-.96-1.99-.32-3.82-.21-5.54.05-.83-.79-1.44-1.6-1.14,0,0,0,0-.01,0-4.54,1.65-6.46,7.85-4.28,13.85,2.18,5.99,7.63,9.51,12.18,7.86h.01c1.01-.37,1.47-1.47,1.63-1.85.79-1.87-.32-6.03-2.63-8.75Z" style="fill:#f3ede4;"/><path d="M80.79,48.6c-.81.71-.91,1.72-1.04,3.14-.04.38-.21,2.4.57,3.99.25.52.52.81.61.9.37.38.79.61,1.31.89.45.25.97.53,1.53.96.64.49,1.02.92,1.56,1.56,1.14,1.34,2.06,3.08,2.58,4.89.39,1.34.51,2.58.36,3.55-.02.16-.12.47-.23.76-.14.4.19.81.63.74,0,0,0,0,.01,0,3.18-.55,6.4-8.03,4.28-13.85-2.07-5.68-7.99-8.55-10.45-8.24-.3.04-1.08.14-1.72.71Z" style="fill:#f3ede4;"/><path d="M11.58,113.35c-.62-.51-.99-.8-1.59-1.11-1.6-.83-2.7-.62-3.76-2.11-1.19-1.66-.9-3.44-1.09-5.02-.09-.77-.95-1.18-1.64-.79,0,0,0,0-.01,0-3.88,2.24-4.63,8.21-1.68,13.33,2.96,5.12,8.5,7.45,12.38,5.21h0c.86-.5,1.1-1.58,1.19-1.96.42-1.83-1.26-5.46-3.81-7.57Z" style="fill:#f3ede4;"/><path d="M7.13,102.55c-.63.78-.55,1.72-.45,3.03.03.35.2,2.22,1.17,3.55.31.43.6.65.7.73.4.29.82.43,1.34.6.46.15.97.32,1.55.63.67.35,1.08.67,1.68,1.17,1.26,1.04,2.38,2.48,3.15,4.05.57,1.16.88,2.27.9,3.18,0,.15-.03.45-.08.73-.07.39.31.71.69.57,0,0,0,0,0,0,2.81-1.01,4.55-8.36,1.68-13.33-2.8-4.86-8.67-6.52-10.87-5.84-.27.08-.96.3-1.46.92Z" style="fill:#f3ede4;"/><path d="M389.45,113.89c.13-.79.2-1.25.17-1.92-.08-1.79-.81-2.63-.06-4.3.84-1.86,2.51-2.49,3.79-3.44.62-.46.55-1.41-.14-1.81,0,0,0,0-.01,0-3.87-2.23-9.39.09-12.33,5.19-2.94,5.1-2.2,11.04,1.67,13.27h0c.86.5,1.9.17,2.28.06,1.79-.55,4.08-3.8,4.63-7.05Z" style="fill:#f3ede4;"/><path d="M396.54,104.67c-.99-.15-1.75.38-2.84,1.13-.29.2-1.82,1.28-2.48,2.77-.22.49-.26.84-.28.97-.05.48.04.92.15,1.45.1.47.2,1,.23,1.65.03.75-.04,1.27-.17,2.03-.27,1.6-.96,3.28-1.93,4.73-.72,1.07-1.52,1.89-2.29,2.36-.13.08-.4.19-.68.29-.37.14-.46.62-.15.88,0,0,0,0,0,0,2.27,1.92,9.47-.24,12.33-5.19,2.79-4.83,1.31-10.73-.38-12.28-.21-.19-.74-.68-1.52-.8Z" style="fill:#f3ede4;"/><path d="M320.54,61.23c0-.86-.03-1.37-.18-2.08-.42-1.89-1.36-2.65-.87-4.56.55-2.13,2.21-3.12,3.39-4.37.57-.6.32-1.6-.49-1.9,0,0,0,0-.01,0-4.53-1.65-9.97,1.86-12.14,7.83-2.18,5.98-.26,12.16,4.27,13.81h.01c1.01.37,2.06-.17,2.43-.36,1.8-.92,3.63-4.81,3.6-8.37Z" style="fill:#f3ede4;"/><path d="M326.35,50.1c-1.08.03-1.79.73-2.81,1.73-.27.27-1.7,1.7-2.12,3.42-.14.56-.12.95-.11,1.08.04.52.21.97.43,1.52.19.48.4,1.02.56,1.71.17.79.19,1.36.2,2.19.01,1.76-.4,3.67-1.16,5.39-.56,1.27-1.26,2.3-2,2.94-.12.11-.39.28-.66.44-.37.21-.37.74,0,.96,0,0,0,0,0,0,2.78,1.62,10.03-2.03,12.14-7.83,2.06-5.67-.62-11.66-2.7-12.99-.25-.16-.91-.59-1.77-.57Z" style="fill:#f3ede4;"/><path d="M272.38,186.49c.01-.07.03-.13.04-.2l.02-.1s.01-.07.02-.1c0-.03.01-.07.02-.1v-.05s.01-.03.01-.03v-.02c0-.06.02-.12.02-.17v-.04s0,0,0,0c0,0,0,.01,0-.02h0s0-.04,0-.04c0-.04,0-.07,0-.11,0-.07,0-.14,0-.21,0-.07,0-.14,0-.21,0-.03,0-.07,0-.1,0-.03,0-.07-.01-.1,0-.07-.02-.13-.03-.2-.01-.07-.03-.13-.04-.19-.02-.06-.03-.13-.05-.19-.08-.24-.18-.47-.3-.67-.23-.41-.51-.72-.78-.98-.13-.13-.27-.24-.39-.33-.13-.09-.25-.18-.36-.25-.06-.03-.11-.07-.16-.1-.05-.03-.1-.06-.15-.08-.05-.02-.09-.05-.13-.07-.04-.02-.07-.04-.11-.05-.13-.06-.2-.09-.2-.09,0,0,.03.06.1.18.03.06.07.13.12.21.02.04.05.08.07.13.02.05.05.1.08.15.06.1.11.22.17.34.03.06.06.13.08.19,0,.02.01.03.02.05,0,.02.01.03.02.05.01.03.03.07.04.1.11.28.2.6.25.93.03.17.03.34.03.5,0,.04,0,.08,0,.13,0,.04,0,.08-.01.13,0,.04-.02.08-.02.13,0,.02,0,.04-.01.06l-.02.06s-.02.08-.03.13c-.01.04-.03.08-.04.12l-.02.06v.02s0,0,0,0c0-.03,0,0,0-.01h0s-.02.05-.02.05c-.02.06-.04.11-.06.17v.02s-.01.02-.01.02v.03s-.04.07-.04.07l-.03.07-.03.07s-.04.1-.07.15c-.02.05-.05.1-.07.15-.19.4-.42.81-.68,1.23-.26.42-.53.86-.81,1.32-.14.23-.28.46-.41.7-.07.12-.14.24-.2.36-.07.12-.13.24-.19.37-.25.5-.47,1.02-.61,1.55-.07.27-.13.54-.16.8,0,.07-.02.13-.02.2,0,.07,0,.13-.01.2v.05s0,.02,0,.02h0s0,.02,0,.02c0,0,0,.07,0,.04v.09c0,.06,0,.11.01.17,0,.08.01.15.02.23,0,.04,0,.07.01.11,0,.04.01.07.02.1.01.07.03.13.04.19.02.06.04.13.05.19.07.25.18.47.29.67.23.41.51.73.78.98.27.25.53.44.76.58.06.03.11.07.16.1.05.03.1.05.15.08.05.02.09.05.13.07.04.02.08.04.11.05.13.06.2.09.2.09,0,0-.03-.06-.1-.17-.07-.11-.16-.28-.27-.48-.1-.21-.23-.45-.33-.74-.11-.28-.2-.6-.24-.93-.02-.17-.03-.34-.02-.51,0-.04,0-.08,0-.13,0-.04.01-.08.02-.13,0-.02,0-.04,0-.06,0-.02,0-.04.01-.05,0-.04.02-.07.02-.11.01-.05.03-.11.04-.17,0-.03.01-.06.02-.08,0-.03,0,.04,0,.03h0s0-.01,0-.01v-.02s.02-.04.02-.04c.02-.05.03-.09.05-.14.02-.05.03-.1.05-.14l.03-.07.03-.07s.04-.1.06-.14c.05-.1.09-.19.13-.29.19-.39.42-.8.68-1.22.13-.21.27-.43.4-.65.14-.22.28-.45.42-.67.28-.46.56-.94.8-1.43.25-.5.46-1.02.6-1.55.02-.07.03-.13.05-.2Z" style="fill:#f3ede4;"/><path d="M368.08,143.64c-4.31,4.63-21.12,18.66-29.44,22.78-1.6.79-3.24,1.51-4.91,2.12-11.43,4.16-19.22.47-23.29-11-.2-.56-.45-1.12-.54-1.7-.95-5.97-2.34-11.93-2.7-17.94-.77-12.97.34-25.91,1.88-38.8.27-2.25,3.81-21.91,3.81-21.91,0,0-3.61,8.21-8.61,17.34-3.08,5.63-4.86,8.01-7.37,11.9-7.16,11.13-14.82,21.87-24.53,30.98-4.63,4.35-9.71,8.04-15.77,10.21-6.56,2.35-12.7,1.44-18.27-2.61-2.19-1.59-4.2-3.53-5.95-5.6-5.76-6.81-9.45-14.81-12.51-23.1-8.03-21.77-12.16-44.46-15.61-67.29-.35-2.29-2.59-17.05-2.59-17.05,0,0-2.39,11.5-2.83,14-1.9,10.65-3.54,21.35-5.61,31.96-3.01,15.43-6.95,30.62-13.27,45.09-3.02,6.91-6.64,13.46-11.97,18.88-7.39,7.51-15.96,8.91-25.41,4.31-6.08-2.96-11.14-7.27-15.77-12.11-11.01-11.52-19.63-24.77-27.75-38.38-.29-.48-9.29-17.99-9.29-17.99,0,0,3.37,18.15,3.62,20.36,1.78,15.98,3.24,31.97,1.32,48.04-.72,6.05-1.97,12.01-5.36,17.23-3.57,5.51-8.99,7.91-15.35,6.48-3.44-.78-6.92-1.89-10.06-3.48-11.04-5.6-20.32-13.6-29.09-22.22-.14-.14-13.96-15.25-13.96-15.25,0,0,43.46,84.55,60.06,117.37,21.8-34.51,233.86-28.4,240.36.57,16.94-33.49,42.46-84.38,50.65-100.13,4-7.69,8.64-16.5,8.64-16.5l-12.54,13.46ZM125.91,201.01c-.04-.13-.1-.28-.17-.43-.11-.26-.26-.55-.46-.86-.05-.08-.1-.15-.16-.23-.06-.08-.11-.15-.18-.24-.03-.04-.06-.07-.09-.11h-.01s0-.02,0-.02c0,0,0,0,0,0h0s-.03-.03-.03-.03c-.02-.02-.03-.04-.05-.06-.04-.04-.07-.08-.11-.12-.02-.02-.04-.04-.05-.06-.02-.02-.04-.04-.06-.06-.04-.04-.08-.08-.12-.12-.02-.02-.04-.04-.06-.06-.02-.02-.04-.04-.06-.06-.09-.08-.17-.15-.26-.22-.05-.04-.09-.07-.14-.11-.05-.03-.09-.07-.14-.1-.05-.03-.1-.07-.14-.1-.05-.03-.09-.06-.14-.09-.05-.03-.09-.06-.14-.09-.05-.03-.09-.06-.14-.09-.09-.05-.18-.11-.27-.16-.09-.05-.18-.11-.26-.16-.04-.03-.08-.05-.13-.08-.04-.03-.08-.05-.12-.08-.16-.1-.32-.21-.48-.32-.16-.11-.32-.22-.46-.33l-.06-.04-.03-.02s-.02-.01-.03-.02l-.13-.1s-.09-.07-.13-.1l-.03-.03h-.02s-.02-.03.01,0h0s0,0,0,0l-.06-.05c-.08-.06-.15-.13-.23-.19-.08-.06-.15-.13-.23-.19-.3-.26-.59-.52-.86-.79-.07-.07-.13-.13-.2-.2l-.05-.05-.03-.03-.02-.02s-.06-.07-.1-.1c-.03-.03-.06-.07-.09-.1-.03-.03-.06-.07-.09-.1-.06-.07-.12-.13-.18-.2-.24-.26-.45-.52-.65-.77-.2-.25-.38-.48-.54-.69-.16-.21-.3-.4-.41-.56-.12-.16-.21-.29-.27-.38-.06-.09-.1-.14-.1-.14,0,0,0,.05,0,.15,0,.1.01.24.04.43.02.18.07.41.13.67.07.26.16.55.29.87.13.32.29.66.49,1.01.03.04.05.09.08.13.03.04.05.09.08.13.03.04.06.09.08.13.03.04.06.09.09.13.03.04.06.09.09.14l.05.07.05.07c.07.09.13.18.2.27.28.36.59.71.92,1.04.17.17.34.33.52.49l.07.06.08.07s.08.07.13.1l.13.1s.02.02.04.03l.04.03.08.06c.1.08.21.16.3.22.05.03.1.07.15.1l.08.05.08.05c.2.13.41.25.62.36.41.22.8.39,1.12.54.32.15.6.3.87.47l.05.03s.03.02.05.03c.03.02.07.05.1.07.03.02.06.04.1.07.02.01.04.03.05.04.02.01.03.02.05.04.06.04.12.09.18.14.03.02.06.05.09.07.03.02.06.05.09.07.23.2.44.39.63.58.15.15.29.29.4.42-2.36,1.96-6.47,1.2-9.38-1.79-3.01-3.1-3.58-7.43-1.27-9.67,2.31-2.24,6.62-1.54,9.63,1.56,2.99,3.08,3.57,7.37,1.32,9.62ZM129.67,199.09c-.7-.01-1.38-.15-2.03-.41.14-.69.15-1.44.05-2.23-.26-1.92-1.24-3.83-2.75-5.39-.76-.78-1.6-1.43-2.5-1.92,0-.03,0-.05,0-.08.08-5.48,3.46-9.87,7.53-9.8,4.08.06,7.31,4.55,7.23,10.03-.08,5.48-3.46,9.87-7.53,9.8ZM188.34,198.79c-1.04-2.26-1.22-4.59-.62-6.99.48-1.95,1.44-3.71,2.27-5.52.84-1.84,1.12-3.74.59-5.72-1.16-4.4-5.34-7.32-9.6-6.67-4.69.71-7.93,4.69-7.7,9.47.18,3.61,1.74,6.53,4.49,8.83,1.43,1.2,3.05,2.11,4.74,2.9.25.12.61.11.76.57-2.29,0-4.44-.41-6.54-1.18-12.02-4.4-11.7-17.38-6.05-23.38,4.65-4.93,12.21-5.93,17.81-2.26,5.82,3.81,8.03,11.11,5.26,17.42-.52,1.2-1.18,2.33-1.91,3.41-1.86,2.76-3.39,5.65-3.48,9.11ZM195.12,200.87c-.46,1.93-.47,3.88-.03,6.09-1.55-1.7-2.3-3.49-2.54-5.49-.47-4.03.98-7.28,4.12-9.79,1.5-1.2,3.16-2.2,4.54-3.56,1.44-1.43,2.62-3.02,2.8-5.14.14-1.58-.27-3.07-.85-4.51-1.58-3.89-4.33-6.9-7.36-9.7-2.25-2.08-4.48-4.16-6.21-6.73-4.43-6.59-4.13-15.24.76-21.03,4.6-5.45,13.05-7.25,19.46-4.13,4.98,2.42,7.65,7.72,6.5,12.88-1.21,5.4-6.91,8.28-11.64,5.89-2.67-1.35-4.01-4.23-3.22-6.88.52-1.75,1.87-2.88,3.87-3.05-1.75,1.53-2.22,3.26-1.47,5.23,1.22,3.21,5.47,3.83,8.04,1.2,2.63-2.69,2.4-7.26-.51-10-3.25-3.06-8.27-3.34-12.19-.68-4.13,2.8-5.52,7.79-3.58,12.82.92,2.39,2.41,4.38,4.18,6.19,1.93,1.96,3.95,3.84,5.73,5.93,3.24,3.81,5.25,8.1,5.24,13.21,0,4.49-1.74,8.12-5.17,10.99-1.54,1.29-3.25,2.3-4.93,3.37-2.62,1.67-4.79,3.71-5.54,6.88ZM221.1,194.83c-3,2.28-6.51,3.5-9.99,4.8-2.38.89-4.74,1.81-6.86,3.26-3.21,2.19-4.84,5.16-4.64,9.08.01.22-.03.44-.05.67,0,0,0,.01.01.02l-.02.02s0-.03,0-.04c-2.05-2.76-2.44-5.82-1.5-9.05,1.09-3.77,3.45-6.6,6.73-8.68,2.07-1.31,4.35-2.19,6.62-3.09,1.6-.64,3.16-1.33,4.62-2.26,5.23-3.34,7.51-8.67,5.99-14.67-1.63-6.44-5.68-10.92-11.76-13.57,0,0,0,0-.01,0v-.02s0,0,.01,0c.31-.24.65-.12.98-.06,8.24,1.37,15.54,8.49,16.88,16.73,1.13,6.99-1.42,12.6-7.01,16.85ZM270.01,199.09c-4.08.06-7.45-4.33-7.53-9.8-.08-5.48,3.15-9.97,7.23-10.03,4.08-.06,7.45,4.33,7.53,9.8,0,.03,0,.05,0,.08-.89.49-1.74,1.14-2.5,1.92-1.52,1.56-2.49,3.48-2.75,5.39-.11.79-.09,1.54.05,2.23-.64.26-1.32.4-2.03.41ZM283.45,199.5c-2.9,2.99-7.02,3.75-9.38,1.79.12-.13.25-.27.4-.42.18-.18.4-.38.63-.58.03-.02.06-.05.09-.07.03-.02.06-.05.09-.07.06-.05.12-.1.18-.14.02-.01.03-.02.05-.04.02-.01.04-.03.05-.04.03-.02.06-.04.1-.07.03-.02.07-.05.1-.07.02-.01.03-.02.05-.03l.05-.03c.27-.18.55-.32.87-.47.32-.15.71-.32,1.12-.54.2-.11.41-.23.62-.36l.08-.05.08-.05c.05-.03.1-.07.15-.1.1-.07.2-.15.3-.22l.08-.06.04-.03s.03-.02.04-.03l.13-.1s.09-.07.13-.1l.08-.07.07-.06c.18-.16.36-.32.52-.49.34-.33.65-.68.92-1.04.07-.09.14-.18.2-.27l.05-.07.05-.07s.06-.09.09-.14c.03-.04.06-.09.09-.13.03-.05.06-.09.08-.13.03-.04.05-.09.08-.13.03-.04.05-.09.08-.13.2-.35.36-.69.49-1.01.13-.32.22-.61.29-.87.07-.26.11-.48.13-.67.03-.18.04-.33.04-.43,0-.1,0-.15,0-.15,0,0-.04.05-.1.14-.06.09-.15.21-.27.38-.11.16-.25.35-.41.56-.16.21-.34.45-.54.69-.2.25-.42.5-.65.77-.06.07-.12.13-.18.2-.03.03-.06.07-.09.1-.03.03-.06.07-.09.1-.03.03-.06.07-.1.1l-.02.02-.03.03-.05.05c-.06.06-.13.13-.2.2-.27.26-.56.53-.86.79-.08.06-.15.13-.23.19-.08.06-.15.13-.23.19l-.06.05h0s0,0,0,0c.03-.02,0,0,.01,0h-.02s-.03.04-.03.04c-.04.03-.09.07-.13.1l-.13.1s-.02.02-.03.02l-.03.02-.06.04c-.14.11-.3.22-.46.33-.16.11-.32.21-.48.32-.04.03-.08.05-.12.08-.04.03-.08.05-.13.08-.08.05-.17.1-.26.16-.09.06-.18.11-.27.16-.05.03-.09.06-.14.09-.05.03-.09.06-.14.09-.05.03-.09.06-.14.09-.05.03-.09.07-.14.1-.05.03-.09.07-.14.1-.05.04-.09.07-.14.11-.09.07-.18.15-.26.22-.02.02-.04.04-.06.06-.02.02-.04.04-.06.06-.04.04-.08.08-.12.12-.02.02-.04.04-.06.06-.02.02-.04.04-.05.06-.04.04-.07.08-.11.12-.02.02-.03.04-.05.06l-.03.03h0s0,0,0,.01h0s-.01.02-.01.02c-.03.04-.06.07-.09.11-.07.08-.13.16-.18.24-.06.08-.11.16-.16.23-.2.31-.35.6-.46.86-.07.16-.12.3-.17.43-2.25-2.25-1.67-6.54,1.32-9.62,3.01-3.1,7.32-3.8,9.63-1.56,2.31,2.24,1.74,6.57-1.27,9.67Z" style="fill:#f3ede4;"/><path d="M132.51,192.94h0s0-.04,0-.04v-.05c0-.07-.01-.13-.01-.2,0-.07-.02-.13-.02-.2-.03-.27-.09-.54-.16-.8-.14-.53-.36-1.06-.61-1.55-.06-.12-.13-.25-.19-.37-.06-.12-.13-.24-.2-.36-.13-.24-.28-.47-.41-.7-.28-.46-.56-.89-.81-1.32-.25-.42-.49-.83-.68-1.23-.02-.05-.05-.1-.07-.15-.02-.05-.04-.1-.07-.15l-.03-.07-.03-.07-.03-.07v-.03s-.02-.02-.02-.02v-.02c-.03-.06-.05-.11-.07-.17l-.02-.04h0s0-.02,0,0h0s0-.02,0-.02l-.02-.06s-.03-.08-.04-.12c0-.04-.02-.08-.03-.13l-.02-.06s0-.04-.01-.06c0-.04-.01-.08-.02-.13,0-.04,0-.08-.01-.13,0-.04,0-.08,0-.13,0-.17,0-.34.03-.5.04-.33.14-.65.25-.93.01-.04.03-.07.04-.1,0-.02.01-.03.02-.05,0-.02.01-.03.02-.05.03-.07.06-.13.08-.19.06-.12.11-.24.17-.34.03-.05.05-.1.08-.15.03-.05.05-.09.07-.13.04-.08.08-.15.12-.21.07-.11.1-.18.1-.18,0,0-.07.03-.2.09-.03.02-.07.03-.11.05-.04.02-.08.04-.12.07-.04.02-.09.05-.15.08-.05.03-.1.06-.16.1-.11.07-.23.15-.36.25-.12.1-.26.21-.39.33-.27.25-.55.57-.78.98-.12.2-.22.43-.3.67-.02.06-.04.12-.05.19-.01.06-.03.13-.04.19-.01.07-.02.13-.03.2,0,.03-.01.07-.01.1,0,.03,0,.07,0,.1,0,.07,0,.14,0,.21,0,.07,0,.14,0,.21,0,.04,0,.07,0,.11v.03s0,.01,0,.01c0,.03,0,.01,0,.02h0s0,.05,0,.05c0,.06.01.12.02.17v.02s0,.03,0,.03v.05s.02.07.03.1c0,.03.01.07.02.1l.02.1c.01.07.03.13.04.2.02.07.03.13.05.2.14.53.36,1.05.6,1.55.25.5.52.98.8,1.43.14.23.28.46.42.67.14.22.27.44.4.65.26.42.49.83.68,1.22.05.1.09.2.13.29.02.05.04.1.06.14l.03.07.03.07s.03.1.05.14c.02.05.03.09.05.14v.04s.02.02.02.02h0s0,.01,0,.01c0,0,0-.06,0-.03,0,.03.01.06.02.08.01.06.03.11.04.17,0,.04.01.07.02.11,0,.02,0,.04.01.05,0,.02,0,.04,0,.06,0,.04.01.08.02.13,0,.04,0,.08,0,.13.01.17,0,.34-.02.51-.04.33-.14.65-.24.93-.1.28-.23.53-.33.74-.11.21-.2.37-.27.48-.07.11-.1.17-.1.17,0,0,.07-.03.2-.09.03-.02.07-.03.11-.05.04-.02.08-.04.13-.07.04-.02.1-.05.15-.08.05-.03.1-.06.16-.1.22-.14.49-.33.76-.58.27-.25.55-.57.78-.98.11-.2.22-.43.29-.67.02-.06.04-.12.06-.19.01-.06.03-.13.04-.19,0-.03.01-.06.02-.1,0-.04,0-.07.01-.11,0-.07.01-.15.02-.23,0-.06,0-.11,0-.17v-.09s0-.04,0-.04h0Z" style="fill:#f3ede4;"/></g></svg>