<?xml version="1.0" encoding="UTF-8"?><svg id="b" xmlns="http://www.w3.org/2000/svg" viewBox="0 0 600 137.36"><g id="c"><path d="M395.02,90.05c-1.29,6.27-.89,12.22,1.42,17.6,11.45,26.67,65.56,29.04,120.85,5.29,15.44-6.63,29.13-14.45,40.9-23.07h-17.38c-8.36,5.17-17.55,9.97-27.42,14.2-51.69,22.2-102.04,20.53-112.46-3.73-1.53-3.57-2.12-7.43-1.83-11.49l-4.08,1.2Z" fill="#f9db68"/><path d="M598.72,29.84c-.18-3.55-.93-5.58-2.05-8.19-8.7-20.25-41.99-26.47-81.71-17.91,35.84-7.33,65.45-1.76,73.17,16.2.65,1.52.92,3.32.89,5.3,0,0,5.01.32,9.71,4.61Z" fill="#f9db68"/><path d="M7.76,31.67h10.31v59.53c0,9.02-3.46,15.41-10.39,19.14l-7.67-7.53c2.38-.83,4.27-2.28,5.66-4.36,1.4-2.08,2.1-4.49,2.1-7.25V31.67ZM12.63,9.75c1.7,0,3.15.6,4.36,1.78,1.21,1.19,1.81,2.62,1.81,4.28s-.58,3.19-1.73,4.36c-1.15,1.17-2.6,1.76-4.33,1.76-1.62,0-3.06-.6-4.3-1.81-1.25-1.21-1.87-2.64-1.87-4.3s.61-2.99,1.84-4.22,2.63-1.84,4.22-1.84Z" fill="#fade69"/><path d="M66.49,83.77v-6.68c-2.19,2.4-4.69,4.26-7.5,5.59-2.81,1.33-5.62,2-8.41,2-3.29,0-6.32-.82-9.09-2.46-2.78-1.64-4.87-3.87-6.29-6.68-1.42-2.81-2.12-7.49-2.12-14.02v-29.85h10.31v29.7c0,5.47.78,9.29,2.35,11.46,1.57,2.17,4.31,3.25,8.24,3.25,4.91,0,9.08-2.4,12.52-7.19V31.67h10.31v52.11h-10.31Z" fill="#fade69"/><path d="M88.75,80.03v-11.1c2.91,2.04,5.88,3.69,8.92,4.96,3.04,1.27,5.6,1.9,7.67,1.9s4-.53,5.55-1.59c1.55-1.06,2.32-2.32,2.32-3.79s-.5-2.77-1.5-3.77c-1-1-3.16-2.45-6.49-4.33-6.65-3.7-11-6.86-13.06-9.49s-3.09-5.48-3.09-8.58c0-4,1.56-7.27,4.67-9.8,3.12-2.53,7.13-3.79,12.04-3.79s10.33,1.44,15.69,4.3v10.19c-6.12-3.7-11.12-5.55-15.01-5.55-2,0-3.62.43-4.84,1.28-1.23.85-1.84,1.97-1.84,3.37,0,1.21.56,2.36,1.67,3.46,1.11,1.1,3.07,2.42,5.86,3.96l3.68,2.09c8.69,4.91,13.03,10.34,13.03,16.31,0,4.27-1.67,7.77-5.01,10.5-3.34,2.74-7.64,4.1-12.88,4.1-3.1,0-5.85-.33-8.27-.99-2.42-.66-5.46-1.88-9.12-3.65Z" fill="#fade69"/><path d="M128.63,39.93l19.37-19.03v10.76h16.48v9.29h-16.48v25.5c0,5.96,2.47,8.93,7.42,8.93,3.7,0,7.61-1.23,11.72-3.68v9.63c-3.96,2.23-8.29,3.34-12.97,3.34s-8.65-1.38-11.78-4.13c-.98-.83-1.79-1.76-2.44-2.8-.64-1.04-1.18-2.4-1.61-4.08-.43-1.68-.65-4.88-.65-9.6v-23.11h-9.06v-1.02Z" fill="#fade69"/><path d="M176.54,12.76l11.82-11.56v82.57h-11.82V12.76Z" fill="#fade69"/><path d="M213.87,31.67v6.63c4.61-5.1,9.84-7.65,15.69-7.65,3.25,0,6.27.84,9.06,2.52,2.79,1.68,4.92,3.98,6.37,6.91,1.45,2.93,2.18,7.56,2.18,13.91v29.79h-10.31v-29.68c0-5.32-.81-9.13-2.44-11.41-1.62-2.28-4.34-3.43-8.16-3.43-4.87,0-9.01,2.44-12.4,7.31v37.21h-10.53V31.67h10.53Z" fill="#fade69"/><path d="M300.58,71.74l-1.17,10.16c-5.4,1.92-10.57,2.88-15.51,2.88-8.16,0-14.38-2.41-18.68-7.22-4.3-4.81-5.98-11.27-5.04-19.36.94-8.16,4.06-14.75,9.36-19.75,5.3-5,11.8-7.51,19.5-7.51,2.68,0,5.06.25,7.13.76,2.07.51,4.6,1.46,7.57,2.85l-1.27,10.95c-4.83-3.31-9.47-4.97-13.93-4.97s-8.65,1.63-12.01,4.88c-3.36,3.25-5.33,7.4-5.91,12.44-.61,5.3.51,9.52,3.38,12.64,2.87,3.12,7.04,4.68,12.51,4.68,3.96,0,8.65-1.15,14.05-3.44Z" fill="#fade69"/><path d="M358.2,58.82h-36.64c-.31,4.97.9,8.92,3.64,11.85,2.74,2.93,6.54,4.4,11.41,4.4,6.8,0,13.31-2.11,19.53-6.32l-1.16,10.04c-3.42,2.11-6.73,3.61-9.95,4.51-3.22.9-6.92,1.35-11.12,1.35-5.74,0-10.25-1.19-13.52-3.56-3.28-2.37-5.75-5.56-7.42-9.56-1.67-4.01-2.2-8.64-1.59-13.91.91-7.9,3.9-14.32,8.97-19.27,5.06-4.95,11.18-7.42,18.36-7.42s12.14,2.41,15.7,7.22c3.56,4.82,4.87,11.27,3.94,19.36l-.15,1.3ZM322.5,52.66h26.22c.21-4.1-.65-7.26-2.58-9.48-1.93-2.22-4.75-3.33-8.45-3.33s-6.86,1.11-9.48,3.33c-2.62,2.22-4.52,5.38-5.71,9.48Z" fill="#fade69"/><path d="M362.72,110.34l9.06-78.38h18.05c9.24,0,16.17,2.3,20.78,6.88,4.62,4.59,6.45,11,5.5,19.24-.9,7.79-4.06,14.18-9.49,19.19-5.42,5-11.88,7.51-19.39,7.51-3.32,0-6.91-.73-10.77-2.2l-3.21,27.76h-10.54ZM388.5,41.55h-7.29l-3.69,31.94c2.98,1.62,6.2,2.43,9.67,2.43,4.82,0,8.96-1.67,12.42-5.02,3.46-3.35,5.49-7.66,6.1-12.92.39-3.39.01-6.38-1.14-8.97s-2.91-4.49-5.28-5.67c-2.37-1.19-5.96-1.78-10.79-1.78Z" fill="#fade69"/><path d="M422.21,40.19l21.56-18.96-1.24,10.72h16.48l-1.07,9.25h-16.48l-2.94,25.41c-.69,5.93,1.44,8.9,6.39,8.9,3.7,0,7.75-1.22,12.15-3.67l-1.11,9.59c-4.22,2.22-8.67,3.33-13.35,3.33s-8.49-1.37-11.3-4.12c-.89-.83-1.59-1.76-2.11-2.79-.52-1.03-.9-2.39-1.14-4.06-.24-1.67-.09-4.86.45-9.57l2.66-23.02h-9.06l.12-1.02Z" fill="#fade69"/><polygon points="469.32 31.96 479.63 31.96 473.63 83.87 463.32 83.87 469.32 31.96" fill="#fade69"/><path d="M519.46,31.84c7.93,0,14.22,2.55,18.88,7.65,4.66,5.1,6.54,11.5,5.65,19.21s-4.25,13.7-10.14,18.65c-5.9,4.95-12.88,7.42-20.97,7.42s-14.06-2.51-18.72-7.53c-4.67-5.02-6.57-11.29-5.7-18.82s4.26-13.93,10.15-18.99c5.89-5.06,12.84-7.59,20.84-7.59ZM517.82,41.1c-4.95,0-9.19,1.62-12.74,4.85-3.55,3.24-5.61,7.35-6.19,12.36-.57,4.97.58,9.02,3.47,12.16,2.88,3.14,6.87,4.71,11.97,4.71s9.39-1.59,12.98-4.77c3.6-3.18,5.68-7.25,6.26-12.22s-.64-9.01-3.62-12.25c-2.99-3.23-7.03-4.85-12.13-4.85Z" fill="#fade69"/><path d="M568.83,31.96l-.76,6.6c5.19-5.08,10.72-7.62,16.57-7.62,3.25,0,6.17.84,8.77,2.51,2.6,1.67,4.46,3.97,5.58,6.88,1.12,2.92,1.31,7.53.58,13.85l-3.43,29.68h-10.31l3.42-29.57c.61-5.3.24-9.09-1.12-11.37-1.36-2.28-3.95-3.41-7.76-3.41-4.87,0-9.29,2.43-13.24,7.28l-4.29,37.07h-10.54l6-51.92h10.54Z" fill="#fade69"/><path d="M472.2,5.25c.4-.2.69-.04.97.33,1.21,1.6,3.81,4.23,4.76,4.91.75.55,1.67.82,2.6.75,3-.2,9.3-1.79,9.93-1.98.44-.13.78-.08.98.32s.04.69-.33.97c-.53.4-5.58,4.49-7.54,6.76-.61.71-.94,1.6-.95,2.53-.02,1.16.52,4.83,1.08,6.75.13.44.08.78-.32.98s-.69.04-.97-.33c-1.21-1.6-3.81-4.23-4.76-4.91-.75-.55-1.67-.82-2.6-.75-3,.2-9.3,1.79-9.93,1.98-.44.13-.78.08-.98-.32s-.04-.69.33-.97c.53-.4,5.58-4.49,7.54-6.76.61-.71.94-1.6.95-2.53.02-1.16-.52-4.83-1.08-6.75-.13-.44-.08-.78.32-.98Z" fill="#f6df68"/><path d="M130.33,137.36c-1.23,0-2.43-.1-3.6-.31-1.17-.21-2.27-.51-3.27-.9-1.01-.39-1.91-.89-2.72-1.49-.31-.23-.53-.5-.65-.8s-.14-.6-.08-.9c.06-.3.2-.55.39-.76.2-.21.44-.33.72-.35.29-.03.6.07.94.27,1.17.84,2.43,1.44,3.76,1.82,1.33.38,2.83.57,4.5.57,2.35,0,4.09-.44,5.23-1.31,1.14-.87,1.7-2.03,1.7-3.47,0-1.18-.41-2.1-1.23-2.76-.82-.67-2.2-1.19-4.13-1.59l-4.07-.82c-2.45-.52-4.29-1.38-5.5-2.57-1.21-1.19-1.82-2.77-1.82-4.76,0-1.23.25-2.34.74-3.35.5-1,1.19-1.87,2.08-2.58.89-.72,1.94-1.27,3.17-1.66,1.23-.39,2.58-.59,4.07-.59,1.64,0,3.18.23,4.6.69s2.71,1.14,3.86,2.06c.29.24.48.5.59.8.1.3.12.59.04.86-.08.27-.22.5-.41.69-.2.18-.44.29-.74.31-.3.03-.63-.08-1-.31-1.05-.78-2.13-1.35-3.25-1.7-1.12-.35-2.36-.53-3.72-.53s-2.58.21-3.58.63c-1.01.42-1.79,1.03-2.35,1.82-.56.8-.84,1.72-.84,2.76,0,1.25.39,2.25,1.16,2.98s2.03,1.27,3.78,1.61l4.07.86c2.64.55,4.59,1.38,5.86,2.49,1.27,1.11,1.9,2.62,1.9,4.52,0,1.15-.24,2.21-.71,3.17-.47.97-1.15,1.8-2.04,2.49-.89.69-1.96,1.22-3.21,1.59-1.25.36-2.66.55-4.23.55Z" fill="#fff"/><path d="M168.95,137.28c-.5,0-.89-.15-1.18-.45-.29-.3-.43-.71-.43-1.23v-23.42h-8.81c-.47,0-.84-.13-1.1-.39-.26-.26-.39-.6-.39-1.02,0-.44.13-.78.39-1.02.26-.23.63-.35,1.1-.35h20.88c.47,0,.84.12,1.1.35.26.24.39.58.39,1.02s-.13.79-.39,1.04c-.26.25-.63.37-1.1.37h-8.81v23.42c0,.52-.14.93-.41,1.23-.27.3-.69.45-1.23.45Z" fill="#fff"/><path d="M210.7,137.36c-1.83,0-3.43-.24-4.8-.72-1.37-.48-2.53-1.2-3.47-2.15s-1.64-2.14-2.11-3.54c-.47-1.41-.71-3.03-.71-4.86v-15.31c0-.55.14-.96.41-1.23s.67-.41,1.2-.41.92.14,1.19.41.41.68.41,1.23v15.16c0,2.87.67,5.02,2,6.44,1.33,1.42,3.29,2.13,5.88,2.13s4.53-.71,5.84-2.13c1.31-1.42,1.96-3.57,1.96-6.44v-15.16c0-.55.14-.96.43-1.23.29-.27.69-.41,1.21-.41s.88.14,1.16.41c.27.27.41.68.41,1.23v15.31c0,2.43-.41,4.49-1.23,6.19-.82,1.7-2.06,2.97-3.7,3.82-1.64.85-3.67,1.27-6.07,1.27Z" fill="#fff"/><path d="M245.75,137.01c-.58,0-1.01-.15-1.31-.45-.3-.3-.45-.74-.45-1.31v-24.09c0-.57.15-1.01.45-1.31.3-.3.74-.45,1.31-.45h7.56c4.46,0,7.91,1.18,10.34,3.52,2.43,2.35,3.64,5.77,3.64,10.26,0,2.25-.31,4.22-.92,5.93-.61,1.71-1.52,3.15-2.72,4.33-1.2,1.18-2.66,2.06-4.39,2.66-1.72.6-3.71.9-5.95.9h-7.56ZM247.2,134.26h5.87c1.83,0,3.41-.24,4.76-.71,1.34-.47,2.47-1.16,3.37-2.08.9-.91,1.57-2.07,2.02-3.47s.67-3.01.67-4.84c0-3.68-.9-6.44-2.7-8.28-1.8-1.84-4.5-2.76-8.11-2.76h-5.87v22.13Z" fill="#fff"/><path d="M290.32,137.28c-.52,0-.92-.15-1.19-.45-.27-.3-.41-.71-.41-1.23v-24.79c0-.55.14-.97.41-1.25.27-.29.67-.43,1.19-.43s.92.14,1.19.43c.27.29.41.71.41,1.25v24.79c0,.52-.13.93-.39,1.23-.26.3-.67.45-1.21.45Z" fill="#fff"/><path d="M326.04,137.36c-2.56,0-4.78-.58-6.68-1.74-1.89-1.16-3.36-2.8-4.39-4.92s-1.55-4.62-1.55-7.52c0-2.19.29-4.16.88-5.89.59-1.74,1.43-3.21,2.53-4.43,1.1-1.21,2.42-2.15,3.97-2.82s3.3-1,5.23-1c2.61,0,4.86.57,6.76,1.72s3.35,2.77,4.39,4.88c1.03,2.1,1.55,4.6,1.55,7.5,0,2.19-.3,4.17-.9,5.91s-1.45,3.24-2.55,4.46c-1.1,1.23-2.42,2.17-3.98,2.84-1.55.67-3.31,1-5.27,1ZM326.04,134.5c1.98,0,3.66-.44,5.03-1.33,1.37-.89,2.42-2.18,3.15-3.88.73-1.7,1.1-3.73,1.1-6.11,0-3.58-.8-6.35-2.41-8.32-1.61-1.97-3.9-2.96-6.87-2.96-1.93,0-3.58.44-4.95,1.33-1.37.89-2.42,2.17-3.15,3.86-.73,1.68-1.1,3.72-1.1,6.09,0,3.55.81,6.33,2.43,8.32,1.62,2,3.88,3,6.78,3Z" fill="#fff"/></g></svg>