<?xml version="1.0" encoding="UTF-8"?><svg id="b" xmlns="http://www.w3.org/2000/svg" viewBox="0 0 51.56 67.47"><g id="c"><path d="M24.32,45.16c-6.84-3.9-13.67-9.39-14.58-17.88-.25-2.43.06-5,.95-7.73C5.13,27.21.15,35.71,0,41.75c-.33,13.87,10.65,25.38,24.52,25.71,3.18.07,5.54-.18,8.35-1.23,1.62-.61,4.64-3.2,4-7.62-.56-3.89-1.82-7.33-12.55-13.46Z" style="fill:#fff;"/><path d="M26.88,0c-34.89,37.43,7.61,38.77,11.62,52.13,4.58-13.02-19.42-16.93-11.62-38.95-4.43,21.25,29.31,23.42,14.22,48.63,25.91-21.64-3.12-38.32-14.22-61.81Z" style="fill:#24a14d;"/></g></svg>