<?xml version="1.0" encoding="utf-8"?>
<!-- Generator: Adobe Illustrator 26.3.1, SVG Export Plug-In . SVG Version: 6.00 Build 0)  -->
<svg version="1.1" id="Layer_1" xmlns="http://www.w3.org/2000/svg" xmlns:xlink="http://www.w3.org/1999/xlink" x="0px" y="0px"
	 viewBox="0 0 1195.2 276.2" style="enable-background:new 0 0 1195.2 276.2;" xml:space="preserve">
<style type="text/css">
	.st0{fill:url(#SVGID_1_);}
	.st1{fill:#FFFFFF;}
	.st2{fill:none;stroke:#FFFFFF;stroke-width:4;stroke-miterlimit:10;}
	.st3{font-family:'SourceSansPro-Bold';}
	.st4{font-size:26px;}
</style>
<linearGradient id="SVGID_1_" gradientUnits="userSpaceOnUse" x1="752.6072" y1="-24.4398" x2="730.8372" y2="284.2202" gradientTransform="matrix(1 0 0 -1 0 278.78)">
	<stop  offset="0" style="stop-color:#9DC53F"/>
	<stop  offset="0.98" style="stop-color:#009450"/>
</linearGradient>
<path class="st0" d="M718.9,2.6c-140.8,151,30.7,156.4,46.9,210.3c18.5-52.5-78.3-68.3-46.9-157.1C701,141.5,837.1,150.2,776.2,252
	C880.8,164.6,763.6,97.4,718.9,2.6z"/>
<path class="st1" d="M759.2,239.1c-2.2-15.7-7.3-29.6-50.6-54.3c-27.6-15.8-55.2-37.9-58.8-72.1c-1-9.8,0.2-20.2,3.8-31.2
	c-22.5,30.9-42.5,65.2-43.1,89.6c-1.3,55.9,42.9,102.4,98.9,103.7c0,0,0,0,0,0c12.8,0.3,22.4-0.7,33.7-5
	C749.5,267.4,761.8,256.9,759.2,239.1z"/>
<path class="st1" d="M30.9,244.4H111v28.1H2.2V75.9h28.7L30.9,244.4z"/>
<path class="st1" d="M251.1,75.1c13.2-0.1,26.2,2.6,38.3,7.8c36.5,15.7,60,51.7,59.7,91.4c0.1,13.2-2.5,26.2-7.6,38.3
	c-9.8,23.6-28.5,42.5-52.1,52.5c-24.4,10.4-52.1,10.4-76.5,0c-23.5-10.1-42.2-28.9-52-52.5c-5.1-12.1-7.7-25.2-7.6-38.3
	c-0.4-39.7,23.1-75.7,59.6-91.4C225,77.7,238,75,251.1,75.1z M251.1,245.2c9.1,0,18.1-1.9,26.4-5.6c8.2-3.6,15.5-8.8,21.7-15.2
	c19.7-20.9,25.4-51.3,14.6-77.9c-3.4-8.5-8.4-16.2-14.6-22.8c-6.2-6.5-13.5-11.7-21.7-15.3c-8.3-3.7-17.3-5.7-26.4-5.6
	c-9.1-0.1-18,1.9-26.2,5.6c-8.1,3.7-15.4,8.9-21.6,15.3c-6.2,6.6-11.2,14.4-14.6,22.8c-3.6,8.8-5.4,18.2-5.4,27.8
	c-0.1,18.7,7.1,36.7,20,50.2c6.2,6.4,13.5,11.6,21.6,15.2C233.1,243.4,242.1,245.3,251.1,245.2z"/>
<path class="st1" d="M488.5,245.2c11,0.1,21.9-2.7,31.5-8.2c9.4-5.3,17.5-12.8,23.5-21.8l23.3,17.4c-8.9,12.1-20.4,22-33.6,28.9
	c-25.7,13.2-55.8,14.3-82.4,3c-23.3-10-41.8-28.7-51.6-52.1c-10.2-24.4-10.2-51.9,0-76.4c9.8-23.4,28.3-42,51.6-52.1
	c11.9-5.2,24.8-7.9,37.8-7.8c15.5-0.2,30.9,3.5,44.6,10.7c13.3,7,24.8,16.9,33.6,28.9l-23.3,17.4c-6-9-14-16.5-23.5-21.9
	c-9.6-5.5-20.4-8.3-31.5-8.2c-9-0.1-17.9,1.9-26.1,5.6c-8,3.7-15.2,8.9-21.3,15.3c-6.2,6.6-11.1,14.2-14.5,22.5
	c-7.1,17.7-7.1,37.5,0,55.2c3.4,8.4,8.3,16,14.5,22.6c6,6.4,13.3,11.6,21.3,15.3C470.6,243.4,479.5,245.3,488.5,245.2z"/>
<path class="st1" d="M847.3,272l80.1-196.4l80.1,196.4h-29.2l-5.9-15.5h-89.8l-6.2,15.5H847.3z M892.3,231.3h70.2l-35.1-90
	L892.3,231.3z"/>
<path class="st1" d="M1078.5,244.4h80.1v28.1h-108.8V75.9h28.7L1078.5,244.4z"/>
<circle class="st2" cx="1176.2" cy="61.5" r="15.3"/>
<text transform="matrix(1 0 0 1 1168.165 69.84)" class="st1 st3 st4">R</text>
</svg>
