<?xml version="1.0" encoding="utf-8"?>
<!-- Generator: Adobe Illustrator 26.0.1, SVG Export Plug-In . SVG Version: 6.00 Build 0)  -->
<svg version="1.1" id="Layer_10" xmlns="http://www.w3.org/2000/svg" xmlns:xlink="http://www.w3.org/1999/xlink" x="0px" y="0px"
	 viewBox="0 0 795 180" style="enable-background:new 0 0 795 180;" xml:space="preserve">
<style type="text/css">
	.st0{fill:#231F20;}
	.st1{fill:url(#SVGID_1_);}
	.st2{fill:#231F20;enable-background:new    ;}
	.st3{fill:none;stroke:#231F20;stroke-width:3;stroke-miterlimit:10;}
</style>
<path class="st0" d="M430.7,52.2c-2.3,6.6-3.2,13.6-2.5,20.6c2.4,22.6,20.7,37.3,38.9,47.7c28.6,16.3,32,25.5,33.5,35.9
	c1.7,11.8-6.4,18.7-10.7,20.3c-7.5,2.8-13.8,3.5-22.3,3.3c-37-0.9-66.3-31.6-65.4-68.6l0,0C402.6,95.3,415.9,72.6,430.7,52.2z"/>
<linearGradient id="SVGID_1_" gradientUnits="userSpaceOnUse" x1="609.3242" y1="799.5098" x2="594.9243" y2="595.4097" gradientTransform="matrix(1 0 0 1 -113.11 -600.73)">
	<stop  offset="0" style="stop-color:#9DC53F"/>
	<stop  offset="0.98" style="stop-color:#009450"/>
</linearGradient>
<path class="st1" d="M473.9,0c-93.1,99.8,20.3,103.4,31,139.1c12.2-34.7-51.8-45.2-31-103.9c-11.8,56.7,78.2,62.5,37.9,129.7
	C581,107.1,503.5,62.7,473.9,0z"/>
<path class="st0" d="M430.7,52.2c-16.5,25.2-17.6,71.5,18.4,91.5c28.8,16,26.9,36.5,18.5,36.3c-37-0.9-66.3-31.6-65.4-68.6l0,0
	C402.6,95.3,415.9,72.6,430.7,52.2z"/>
<path class="st0" d="M19,159.9h53v18.6H0v-130h19V159.9z"/>
<path class="st0" d="M164.6,47.9c8.7-0.1,17.3,1.7,25.3,5.1c24.1,10.4,39.7,34.2,39.5,60.4c0.1,8.7-1.7,17.3-5,25.3
	c-3.2,7.7-7.9,14.8-13.8,20.7c-5.9,6-12.9,10.7-20.6,14c-16.2,6.9-34.4,6.9-50.6,0c-15.5-6.7-27.9-19.1-34.4-34.7
	c-3.4-8-5.1-16.6-5.1-25.3c-0.2-26.2,15.3-50,39.4-60.4C147.3,49.6,155.9,47.9,164.6,47.9z M164.6,160.4c6,0,12-1.2,17.5-3.7
	c5.4-2.4,10.3-5.8,14.4-10.1c13-13.8,16.8-33.9,9.6-51.5c-2.2-5.6-5.5-10.7-9.6-15.1c-4.1-4.3-8.9-7.7-14.4-10.1
	c-5.5-2.5-11.4-3.7-17.5-3.7c-6,0-11.9,1.2-17.4,3.7C141.9,72.3,137,75.8,133,80c-4.1,4.4-7.4,9.5-9.7,15.1
	c-2.4,5.8-3.6,12.1-3.5,18.4c-0.1,12.4,4.7,24.2,13.2,33.2c4.1,4.2,8.9,7.6,14.3,10.1C152.7,159.2,158.6,160.5,164.6,160.4z"/>
<path class="st0" d="M321.6,160.4c7.3,0.1,14.5-1.8,20.8-5.4c6.2-3.5,11.6-8.5,15.5-14.4l15.4,11.5c-5.9,8-13.5,14.5-22.2,19.1
	c-9.1,4.8-19.2,7.2-29.5,7.1c-8.6,0.1-17.1-1.7-25-5.1c-15.4-6.6-27.6-19-34.1-34.5c-6.7-16.2-6.7-34.3,0-50.5
	c6.5-15.5,18.7-27.8,34.1-34.5c7.9-3.4,16.4-5.2,25-5.1c10.3-0.1,20.4,2.3,29.5,7.1c8.8,4.6,16.4,11.1,22.2,19.1l-15.4,11.5
	c-4-6-9.3-10.9-15.5-14.4c-6.3-3.6-13.5-5.5-20.8-5.4c-6,0-11.9,1.2-17.3,3.7c-5.3,2.4-10.1,5.9-14.1,10.1
	c-4.1,4.3-7.3,9.4-9.6,14.9c-4.7,11.7-4.7,24.8,0,36.5c2.3,5.5,5.5,10.6,9.6,14.9c4,4.2,8.8,7.7,14.1,10.1
	C309.7,159.2,315.6,160.5,321.6,160.4z"/>
<path class="st2" d="M558.8,178.2l53-129.9l53,129.9h-19.4l-3.9-10.3h-59.4l-4.1,10.3H558.8z M588.6,151.3H635l-23.2-59.5
	L588.6,151.3z"/>
<path class="st0" d="M711.7,159.9h53v18.6h-72v-130h19V159.9z"/>
<circle class="st3" cx="777.5" cy="31.6" r="16"/>
<path class="st0" d="M771.6,22.1h5.9c3.8,0,6.6,1.4,6.6,5.3c0,3.8-2.8,5.6-6.6,5.6H774v8h-2.4V22.1z M777.1,31.1
	c2.9,0,4.6-1.2,4.6-3.6s-1.6-3.4-4.6-3.4H774v7H777.1z M777,32.4l1.9-1.2l5.8,9.9H782L777,32.4z"/>
</svg>
