<?xml version="1.0" encoding="UTF-8"?><svg id="b" xmlns="http://www.w3.org/2000/svg" viewBox="0 0 142.6 176.91"><g id="c"><path d="M140.97,31.31c-4.36-9.8-19.03-17.05-35.41-17.17v.53c13.23.71,24.89,6.71,28.51,14.83,7.58,17.03-17,42.16-52.72,58.06-35.72,15.9-68.6,17.2-76.18.17-4.9-11.02.72-28.3,16.53-41.87C3.31,61.06-3.74,80.58,1.89,93.22c8.34,18.74,46.23,20.07,84.64,2.98,38.41-17.09,62.78-46.14,54.44-64.88Z" fill="#f6df68"/><path d="M48.16,92.54v-33.58h15.45v29.76c-8.53,2.72-15.45,3.81-15.45,3.81Z" fill="#fade69"/><path d="M63.61,110.23v37.97c0,13.53-5.19,23.1-15.58,28.7l-11.51-11.29c3.57-1.25,6.4-3.43,8.49-6.54,2.09-3.11,3.14-6.74,3.14-10.87v-34.66s7.73-.85,15.45-3.31Z" fill="#fade69"/><path d="M100.03,96.23v28.46h-17.72v-20.26s6.79-2.55,17.72-8.2Z" fill="#fade69"/><path d="M82.3,80.74V17.32L100.03,0v70.87c-8.86,6.12-17.72,9.87-17.72,9.87Z" fill="#fade69"/><path d="M61.26,41.82c-.47.22-.82.02-1.13-.42-1.36-1.92-4.34-5.09-5.42-5.91-.86-.67-1.93-1.01-3.02-.97-3.52.14-10.96,1.8-11.72,2-.52.14-.92.07-1.14-.4-.22-.47-.02-.82.42-1.13.64-.45,6.69-5.08,9.06-7.69.73-.81,1.16-1.85,1.2-2.94.06-1.36-.45-5.68-1.05-7.95-.14-.52-.07-.92.4-1.14s.82-.02,1.13.42c1.36,1.92,4.34,5.09,5.42,5.91.86.67,1.93,1.01,3.02.97,3.52-.14,10.96-1.8,11.72-2,.52-.14.92-.07,1.14.4s.02.82-.42,1.13c-.64.45-6.69,5.08-9.06,7.69-.73.81-1.16,1.85-1.2,2.94-.06,1.36.45,5.68,1.05,7.95.14.52.07.92-.4,1.14Z" fill="#f6df68"/></g></svg>