<?xml version="1.0" encoding="UTF-8"?>
<svg id="Layer_1" xmlns="http://www.w3.org/2000/svg" version="1.1" viewBox="0 0 512 512">
  <!-- Generator: Adobe Illustrator 29.8.1, SVG Export Plug-In . SVG Version: 2.1.1 Build 2)  -->
  <defs>
    <style>
      .st0 {
        fill: #ffde55;
      }
    </style>
  </defs>
  <path class="st0" d="M396,354c-.8,0-1.6-.2-2.4-.6l-129.6-58.6c-2.8-1.2-4-4.6-2.8-7.4s4.6-4,7.4-2.8l129.8,58.8c2.8,1.2,4,4.6,2.8,7.4-1,2-3,3.2-5.2,3.2h0Z"/>
  <path class="st0" d="M361.4,464.6c-1.4,0-2.6-.4-3.8-1.4-2.4-2-2.6-5.6-.4-8l46.8-52.2c2-2.4,5.6-2.6,8-.4,2.4,2,2.6,5.6.4,8l-46.8,52.2c-1,1.2-2.6,1.8-4.2,1.8h0Z"/>
  <path class="st0" d="M310.8,467.8c-1.2,0-2.2-.4-3.2-1l-74.8-51.6c-2.6-1.8-3.2-5.2-1.4-7.8,1.8-2.6,5.2-3.2,7.8-1.4l74.8,51.6c2.6,1.8,3.2,5.2,1.4,7.8-1,1.6-2.8,2.4-4.6,2.4h0Z"/>
  <path class="st0" d="M207.6,344.6c-.4,0-.8,0-1-.2-3-.6-5-3.6-4.4-6.6l4.8-24.6c.6-3,3.6-5,6.6-4.4s5,3.6,4.4,6.6l-4.8,24.6c-.6,2.8-3,4.6-5.6,4.6h0Z"/>
  <path class="st0" d="M210,237.6c-2.6,0-4.8-1.6-5.4-4.2l-11.4-45.2-11.6-40.2c-.8-3,.8-6,3.8-7,3-.8,6,.8,7,3.8l11.8,40.4,11.4,45.4c.8,3-1,6-4,6.8-.6.2-1.2.2-1.6.2h0Z"/>
  <path class="st0" d="M132.6,79c-1,0-2.2-.4-3.2-1l-31.6-21.2c-2.6-1.8-3.2-5.2-1.6-7.8,1.8-2.6,5.2-3.2,7.8-1.6l31.6,21.4c2.6,1.8,3.2,5.2,1.6,7.8-1,1.6-2.8,2.4-4.6,2.4h0Z"/>
  <path class="st0" d="M173.2,131.6c-17,0-31-13.8-31-31s13.8-30.8,31-30.8,30.8,13.8,30.8,30.8-13.8,31-30.8,31ZM173.2,81c-10.8,0-19.6,8.8-19.6,19.6s8.8,19.6,19.6,19.6,19.6-8.8,19.6-19.6-8.8-19.6-19.6-19.6Z"/>
  <path class="st0" d="M442,401.8c-17,0-31-13.8-31-31s13.8-30.8,31-30.8,31,13.8,31,31c-.2,17-14,30.8-31,30.8ZM442,351.2c-10.8,0-19.6,8.8-19.6,19.6s8.8,19.6,19.6,19.6,19.6-8.8,19.6-19.6-8.8-19.6-19.6-19.6Z"/>
  <path class="st0" d="M208.6,279.6h-6.8c-3.2,0-5.6-2.6-5.6-5.6s2.6-5.6,5.6-5.6h6.8c3.2,0,5.6,2.6,5.6,5.6s-2.6,5.6-5.6,5.6Z"/>
  <path class="st0" d="M242.6,279.6h-6.8c-3.2,0-5.6-2.6-5.6-5.6s2.6-5.6,5.6-5.6h6.8c3.2,0,5.6,2.6,5.6,5.6s-2.6,5.6-5.6,5.6Z"/>
  <path class="st0" d="M222.2,266c-3.2,0-5.6-2.6-5.6-5.6v-6.8c0-3.2,2.6-5.6,5.6-5.6s5.6,2.6,5.6,5.6v6.8c0,3-2.6,5.6-5.6,5.6Z"/>
  <path class="st0" d="M222.2,300c-3.2,0-5.6-2.6-5.6-5.6v-6.8c0-3.2,2.6-5.6,5.6-5.6s5.6,2.6,5.6,5.6v6.8c0,3-2.6,5.6-5.6,5.6Z"/>
  <path class="st0" d="M51,34.4h-6.8c-3.2,0-5.6-2.6-5.6-5.6s2.6-5.6,5.6-5.6h6.8c3.2,0,5.6,2.6,5.6,5.6s-2.4,5.6-5.6,5.6Z"/>
  <path class="st0" d="M85,34.4h-6.8c-3.2,0-5.6-2.6-5.6-5.6s2.6-5.6,5.6-5.6h6.8c3.2,0,5.6,2.6,5.6,5.6s-2.4,5.6-5.6,5.6Z"/>
  <path class="st0" d="M64.6,20.8c-3.2,0-5.6-2.6-5.6-5.6v-6.8c0-3.2,2.6-5.6,5.6-5.6s5.6,2.6,5.6,5.6v6.8c0,3.2-2.4,5.6-5.6,5.6Z"/>
  <path class="st0" d="M64.6,54.8c-3.2,0-5.6-2.6-5.6-5.6v-6.8c0-3.2,2.6-5.6,5.6-5.6s5.6,2.6,5.6,5.6v6.8c0,3.2-2.4,5.6-5.6,5.6Z"/>
  <path class="st0" d="M322.4,488.2h-6.8c-3.2,0-5.6-2.6-5.6-5.6s2.6-5.6,5.6-5.6h6.8c3.2,0,5.6,2.6,5.6,5.6s-2.6,5.6-5.6,5.6Z"/>
  <path class="st0" d="M356.4,488.2h-6.8c-3.2,0-5.6-2.6-5.6-5.6s2.6-5.6,5.6-5.6h6.8c3.2,0,5.6,2.6,5.6,5.6s-2.4,5.6-5.6,5.6Z"/>
  <path class="st0" d="M336,474.6c-3.2,0-5.6-2.6-5.6-5.6v-6.8c0-3.2,2.6-5.6,5.6-5.6s5.6,2.6,5.6,5.6v6.8c0,3-2.6,5.6-5.6,5.6Z"/>
  <path class="st0" d="M336,508.6c-3.2,0-5.6-2.6-5.6-5.6v-6.8c0-3.2,2.6-5.6,5.6-5.6s5.6,2.6,5.6,5.6v6.8c0,3.2-2.6,5.6-5.6,5.6Z"/>
  <path class="st0" d="M198.4,416.2c-17,0-31-13.8-31-31s13.8-31,31-31,31,13.8,31,31-14,31-31,31ZM198.4,365.6c-10.8,0-19.6,8.8-19.6,19.6s8.8,19.6,19.6,19.6,19.6-8.8,19.6-19.6c.2-10.8-8.8-19.6-19.6-19.6Z"/>
  <path class="st0" d="M414.2,239.6c-1.4,0-3-.6-4-1.6s-1-1.2-1.2-1.8-.4-1.4-.4-2.2c0-1.4.6-3,1.6-4,.2-.2.6-.4.8-.6.2-.2.6-.4,1-.6.4-.2.6-.2,1-.4,1.8-.4,3.8.2,5,1.6,1,1,1.6,2.6,1.6,4s-.2,1.4-.4,2.2-.8,1.4-1.2,1.8c-.8,1-2.4,1.6-3.8,1.6h0Z"/>
  <path class="st0" d="M297.4,140.6c-1.4,0-3-.6-4-1.6s-1.6-2.4-1.6-4,.6-3,1.6-4c2.2-2,6-2,8,0s.8,1.2,1.2,1.8c.4.6.4,1.4.4,2.2,0,1.6-.6,3-1.6,4s-2.4,1.6-4,1.6h0Z"/>
  <path class="st0" d="M46.6,222.2c-1.4,0-3-.6-4-1.6s-1.6-2.6-1.6-4,0-.8.2-1.2c0-.4.2-.6.4-1s.2-.6.6-1c.2-.2.4-.6.6-.8.6-.6,1.2-1,1.8-1.2,1.4-.6,3-.6,4.2,0,.6.2,1.2.8,1.8,1.2.2.2.4.6.6.8.2.4.4.6.6,1,.2.4.2.8.4,1,0,.4.2.8.2,1.2,0,.8-.2,1.4-.4,2.2-.2.6-.6,1.2-1.2,1.8-1.2,1-2.8,1.6-4.2,1.6h0Z"/>
  <path class="st0" d="M93.2,403c-.8,0-1.4-.2-2.2-.4-.6-.2-1.2-.6-1.8-1.2-1-1-1.6-2.4-1.6-4s.2-1.4.4-2.2c.2-.6.6-1.2,1.2-1.8.2-.2.6-.4.8-.6.2-.2.6-.4,1-.6s.6-.2,1-.4c1.8-.4,3.8.2,5,1.6.6.6,1,1.2,1.2,1.8.2.6.4,1.4.4,2.2,0,1.6-.6,3-1.6,4-.6.6-1.2.8-1.8,1.2-.4.2-1.2.4-2,.4h0Z"/>
  <path class="st0" d="M414.2,58.8c-.4,0-.8,0-1-.2-.4,0-.8-.2-1-.4-.4-.2-.6-.2-1-.6-.4-.2-.6-.4-.8-.6-1-1-1.6-2.6-1.6-4s.6-3,1.6-4c.2-.2.6-.6.8-.6.2-.2.6-.4,1-.6.4-.2.6-.2,1-.4,1.8-.4,3.8.2,5,1.6,1,1,1.6,2.6,1.6,4s0,.8-.2,1c0,.4-.2.8-.2,1-.2.4-.4.6-.6,1s-.4.6-.6.8c-1.2,1.4-2.6,2-4,2h0Z"/>
</svg>