<?xml version="1.0" encoding="UTF-8"?>
<svg id="Layer_1" xmlns="http://www.w3.org/2000/svg" version="1.1" viewBox="0 0 512 512">
  <!-- Generator: Adobe Illustrator 29.8.1, SVG Export Plug-In . SVG Version: 2.1.1 Build 2)  -->
  <defs>
    <style>
      .st0 {
        fill: #ffde55;
      }
    </style>
  </defs>
  <path class="st0" d="M298,274.1h-84.6c-2.2,0-4.4-1.4-5.3-3.4-12.8-30.5-19.4-67.2-19.4-105.8,0-74.9,25.8-140.7,64.1-164.3,1.9-1.2,4.1-1.2,5.8,0,38.2,23.5,64,89.6,64,164.3s-6.7,75.2-19.4,105.8c-1,2.2-3.1,3.4-5.3,3.4h.2-.1ZM217.4,262.8h76.9c11.3-28.5,17.2-62.3,17.2-97.9,0-67.7-22.7-129.7-55.6-152.7-32.9,22.9-55.6,84.8-55.6,152.7-.2,35.8,5.8,69.6,17.2,97.9h-.2.1Z"/>
  <path class="st0" d="M158.7,305.7c-1,0-2-.2-2.9-.9-1.9-1-2.9-2.9-2.9-4.8v-55.4c0-1.2.3-2.4,1-3.2l37-52c1.4-2,3.9-2.9,6.1-2.2s4.1,2.6,4.3,5.1c2.4,27,8.5,52.5,17.4,74.2,1,2.6,0,5.6-2.4,7.2l-54.8,31.6c-.9.3-1.9.7-2.9.7h0v-.2h0ZM164.3,246.6v43.7l41.8-24.1c-6.8-17.4-11.8-37.2-14.8-58l-27.1,38.4h.2,0Z"/>
  <path class="st0" d="M352.8,305.7c-1,0-2-.2-2.9-.9l-54.8-31.6c-2.4-1.4-3.4-4.4-2.4-7.2,8.9-21.5,15-47.1,17.4-74.2.2-2.4,1.9-4.4,4.3-5.1,2.2-.7,4.6.2,6.1,2.2l37,52c.7,1,1,2,1,3.2v55.4c0,2-1,3.9-2.9,4.8-.9.9-1.9,1-2.9,1h0v.4ZM305.2,266.1l41.8,24.2v-43.7l-27.3-38.4c-2.9,20.6-7.8,40.4-14.5,57.8h0Z"/>
  <path class="st0" d="M255.9,175.5c-21,0-38.2-17.2-38.2-38.2s17.2-38.2,38.2-38.2,38.2,17.2,38.2,38.2-17.2,38.2-38.2,38.2h0ZM255.9,110.3c-14.8,0-27,12.1-27,27s12.1,27,27,27,27-12.1,27-27-12.1-27-27-27Z"/>
  <path class="st0" d="M255.9,350c-1,0-2-.2-3.1-.9-12.3-7.7-20.5-27.5-20.5-50.8s2-22.7,5.8-31.9c.9-2,3.1-3.4,5.3-3.4h24.2c2.2,0,4.4,1.4,5.3,3.4,3.9,9.4,5.8,20.5,5.8,31.9,0,23.2-8,43.3-20.5,50.8-.7.7-1.5.9-2.6.9h.3ZM247.5,274.1c-2.4,7.2-3.6,15.5-3.6,24.1,0,18.9,5.8,32.6,11.9,38.7,6.3-6.3,11.9-19.8,11.9-38.7s-1.2-17.1-3.6-24.1h-16.7.1Z"/>
  <path class="st0" d="M255.9,482.2c-3.2,0-5.6-2.6-5.6-5.6v-95c0-3.2,2.6-5.6,5.6-5.6s5.6,2.6,5.6,5.6v95c0,3.1-2.6,5.6-5.6,5.6h0Z"/>
  <path class="st0" d="M202,430.7c-3.2,0-5.6-2.6-5.6-5.6v-109.9c0-3.2,2.6-5.6,5.6-5.6s5.6,2.6,5.6,5.6v109.9c.2,3.2-2.4,5.6-5.6,5.6Z"/>
  <path class="st0" d="M309.5,440.4c-3.2,0-5.6-2.6-5.6-5.6v-109.9c0-3.2,2.6-5.6,5.6-5.6s5.6,2.6,5.6,5.6v109.9c0,3.2-2.6,5.6-5.6,5.6Z"/>
  <path class="st0" d="M436.1,511.6H75.2c-25.8,0-47.4-20.3-48.1-45-.7-20.5,12.3-39.1,31.6-45.5,6.5-44.2,44.2-77.1,89.2-77.1s10.7.3,15.9,1.4c3.1.7,5.1,3.4,4.6,6.7-.7,3.1-3.4,5.1-6.7,4.6-4.4-.9-9-1.2-13.8-1.2-40.4,0-74.2,30.4-78.5,70.6-.2,2.4-2,4.4-4.3,4.8-16,4.1-27.3,18.8-26.8,35.1.7,18.8,17.1,33.9,36.7,33.9h361c19.6,0,36.2-15.2,36.8-33.9.7-16.5-10.7-31.4-26.8-35.1-2.4-.7-4.1-2.6-4.3-4.8-4.3-40.3-37.9-70.6-78.5-70.6s-9.4.3-13.8,1.2c-3.1.7-6.1-1.4-6.7-4.6-.7-3.2,1.4-6.1,4.6-6.7,5.3-1,10.6-1.4,15.9-1.4,45,0,82.7,32.8,89.2,77.1,19.3,6.5,32.2,25.1,31.6,45.5-.9,24.9-22.2,45.2-48.1,45.2h0v-.2h.2Z"/>
  <path class="st0" d="M100.8,121.4c-10.9,0-19.8-8.9-19.8-19.8s8.9-19.8,19.8-19.8,19.8,8.9,19.8,19.8-8.9,19.8-19.8,19.8ZM100.8,93.3c-4.6,0-8.5,3.9-8.5,8.5s3.9,8.5,8.5,8.5,8.5-3.9,8.5-8.5-3.9-8.5-8.5-8.5Z"/>
  <path class="st0" d="M441.9,254.6c-10.9,0-19.8-8.9-19.8-19.8s8.9-19.8,19.8-19.8,19.8,8.9,19.8,19.8-8.9,19.8-19.8,19.8ZM441.9,226.3c-4.6,0-8.5,3.9-8.5,8.5s3.9,8.5,8.5,8.5,8.5-3.9,8.5-8.5-3.9-8.5-8.5-8.5Z"/>
  <path class="st0" d="M373.1,57.4h-6.7c-3.2,0-5.6-2.6-5.6-5.6s2.6-5.6,5.6-5.6h6.7c3.2,0,5.6,2.6,5.6,5.6s-2.4,5.6-5.6,5.6Z"/>
  <path class="st0" d="M406.4,57.4h-6.7c-3.2,0-5.6-2.6-5.6-5.6s2.6-5.6,5.6-5.6h6.7c3.2,0,5.6,2.6,5.6,5.6s-2.4,5.6-5.6,5.6Z"/>
  <path class="st0" d="M386.6,44.1c-3.2,0-5.6-2.6-5.6-5.6v-6.7c0-3.2,2.6-5.6,5.6-5.6s5.6,2.6,5.6,5.6v6.7c0,3.2-2.4,5.6-5.6,5.6Z"/>
  <path class="st0" d="M386.6,77.2c-3.2,0-5.6-2.6-5.6-5.6v-6.7c0-3.2,2.6-5.6,5.6-5.6s5.6,2.6,5.6,5.6v6.7c0,3.2-2.4,5.6-5.6,5.6Z"/>
  <path class="st0" d="M57.7,290.5h-6.7c-3.2,0-5.6-2.6-5.6-5.6s2.6-5.6,5.6-5.6h6.7c3.2,0,5.6,2.6,5.6,5.6s-2.6,5.6-5.6,5.6Z"/>
  <path class="st0" d="M90.8,290.5h-6.7c-3.2,0-5.6-2.6-5.6-5.6s2.6-5.6,5.6-5.6h6.7c3.2,0,5.6,2.6,5.6,5.6s-2.4,5.6-5.6,5.6Z"/>
  <path class="st0" d="M71,277.2c-3.2,0-5.6-2.6-5.6-5.6v-6.7c0-3.2,2.6-5.6,5.6-5.6s5.6,2.6,5.6,5.6v6.7c0,3.2-2.4,5.6-5.6,5.6Z"/>
  <path class="st0" d="M71,310.4c-3.2,0-5.6-2.6-5.6-5.6v-6.7c0-3.2,2.6-5.6,5.6-5.6s5.6,2.6,5.6,5.6v6.7c0,3.2-2.4,5.6-5.6,5.6Z"/>
  <path class="st0" d="M63.6,196.6c-.9,0-1.4-.2-2.2-.3-.9-.3-1.2-.9-1.9-1.2-.7-.7-.9-1.2-1.2-1.9-.2-.9-.3-1.4-.3-2.2s.2-1.4.3-2.2c.2-.7.7-1.2,1.2-1.9.7-.7,1.2-.9,1.9-1.2,1.4-.7,3.1-.7,4.3,0,.9.2,1.2.7,1.9,1.2.7.7.9,1.2,1.2,1.9.3.7.3,1.4.3,2.2s-.2,1.4-.3,2.2c-.2.7-.7,1.2-1.2,1.9-.9,1-2.2,1.5-3.9,1.5h0Z"/>
  <path class="st0" d="M427.5,145.5c-.3,0-.9,0-1.2-.2-.3,0-.7-.2-1-.2-.3-.2-.7-.3-1-.7-.2-.2-.7-.3-.9-.7-1-1-1.5-2.4-1.5-4.1s.7-3.1,1.5-4.1l.9-.9c.3-.2.7-.3,1-.7.3-.2.7-.2,1-.3,1.9-.3,3.9.2,5.3,1.5,1,1,1.5,2.4,1.5,4.1s0,.9-.2,1.2c0,.3-.2.9-.3,1-.2.3-.2.7-.7,1-.2.2-.3.7-.7.9-1,1.2-2.4,1.9-3.9,1.9h0l.2.2h0Z"/>
  <path class="st0" d="M461.6,350c-.9,0-1.4-.2-2.2-.3-.7-.2-1.2-.9-1.9-1.2-.7-.7-.9-1.2-1.2-1.9-.2-.7-.3-1.4-.3-2.2,0-1.4.7-3.1,1.5-4.1,2-2,6.1-2,8,0s1.5,2.6,1.5,4.1-.2,1.4-.3,2.2-.7,1.4-1.2,1.9-1.2,1-1.9,1.2c-.7.3-1.4.3-2.2.3h.2Z"/>
  <path class="st0" d="M154.7,43.1c-1.4,0-3.1-.7-4.1-1.5s-1.5-2.4-1.5-4.1.2-1.4.3-2.2c.2-.9.7-1.2,1.2-1.9,2.2-2,6.1-2,8,0,.7.7.9,1.2,1.2,1.9.2.7.3,1.4.3,2.2,0,1.4-.7,3.1-1.5,4.1-1,1-2.6,1.5-4.1,1.5h.2Z"/>
</svg>