<?xml version="1.0" encoding="UTF-8"?>
<svg id="Layer_1" xmlns="http://www.w3.org/2000/svg" version="1.1" viewBox="0 0 512 512">
  <!-- Generator: Adobe Illustrator 29.8.1, SVG Export Plug-In . SVG Version: 2.1.1 Build 2)  -->
  <defs>
    <style>
      .st0 {
        fill: #ffde55;
      }
    </style>
  </defs>
  <path class="st0" d="M30.6,273.6h-7.4c-3.2,0-5.6-2.6-5.6-5.6s2.6-5.6,5.6-5.6h7.4c3.2,0,5.6,2.6,5.6,5.6s-2.6,5.6-5.6,5.6Z"/>
  <path class="st0" d="M67.2,273.6h-7.2c-3.2,0-5.6-2.6-5.6-5.6s2.6-5.6,5.6-5.6h7.4c3.2,0,5.6,2.6,5.6,5.6s-2.6,5.6-5.8,5.6Z"/>
  <path class="st0" d="M45.2,258.8c-3.2,0-5.6-2.6-5.6-5.6v-7.2c0-3.2,2.6-5.6,5.6-5.6s5.6,2.6,5.6,5.6v7.4c0,3-2.4,5.4-5.6,5.4h0Z"/>
  <path class="st0" d="M45.2,295.4c-3.2,0-5.6-2.6-5.6-5.6v-7.4c0-3.2,2.6-5.6,5.6-5.6s5.6,2.6,5.6,5.6v7.4c0,3.2-2.4,5.6-5.6,5.6Z"/>
  <path class="st0" d="M474,114c-.8,0-1.4-.2-2.2-.4-.6-.2-1.2-.6-1.8-1.2-.6-.6-1-1.2-1.2-1.8-.2-.6-.4-1.4-.4-2.2,0-1.6.6-3,1.6-4,.6-.6,1.2-1,1.8-1.2,1-.4,2.2-.6,3.2-.2.4,0,.8.2,1,.2.4.2.6.4,1,.6s.6.4.8.6c1,1,1.6,2.4,1.6,4s-.6,3-1.6,4c-.8,1-2.2,1.6-3.8,1.6h0Z"/>
  <path class="st0" d="M302.6,49.8h-7.4c-3.2,0-5.6-2.6-5.6-5.6s2.6-5.6,5.6-5.6h7.4c3.2,0,5.6,2.6,5.6,5.6.2,3-2.4,5.6-5.6,5.6Z"/>
  <path class="st0" d="M339.4,49.8h-7.4c-3.2,0-5.6-2.6-5.6-5.6s2.6-5.6,5.6-5.6h7.4c3.2,0,5.6,2.6,5.6,5.6s-2.6,5.6-5.6,5.6Z"/>
  <path class="st0" d="M317.4,35.2c-3.2,0-5.6-2.6-5.6-5.6v-7.4c0-3.2,2.6-5.6,5.6-5.6s5.6,2.6,5.6,5.6v7.4c0,3-2.6,5.6-5.6,5.6Z"/>
  <path class="st0" d="M317.4,71.8c-3.2,0-5.6-2.6-5.6-5.6v-7.4c0-3.2,2.6-5.6,5.6-5.6s5.6,2.6,5.6,5.6v7.4c0,3-2.6,5.6-5.6,5.6Z"/>
  <path class="st0" d="M437.4,337.8c-18.2,0-32.8-14.8-32.8-32.8s14.8-32.8,32.8-32.8,32.8,14.8,32.8,32.8-14.8,32.8-32.8,32.8ZM437.4,283.4c-12,0-21.6,9.6-21.6,21.6s9.6,21.6,21.6,21.6,21.6-9.6,21.6-21.6-9.8-21.6-21.6-21.6Z"/>
  <path class="st0" d="M117,96c-18.2,0-33-14.8-33-32.8s14.8-32.8,32.8-32.8,32.8,14.8,32.8,32.8-14.6,32.8-32.6,32.8h0ZM117,41.6c-12,0-21.6,9.6-21.6,21.6s9.6,21.6,21.6,21.6,21.6-9.6,21.6-21.6-9.8-21.6-21.6-21.6Z"/>
  <path class="st0" d="M474,405.2c-.8,0-1.6-.2-2.2-.4-.6-.2-1.2-.6-1.8-1.2-.6-.6-1-1.2-1.2-1.8-.2-.6-.4-1.4-.4-2.2,0-1.6.6-3,1.6-4s3.2-2,5-1.6c.4,0,.8.2,1,.2.4.2.6.4,1,.6s.6.4.8.6c1,1,1.6,2.6,1.6,4s-.2,1.4-.4,2.2c-.2.6-.6,1.2-1.2,1.8-.8,1.2-2.2,1.8-3.8,1.8h0Z"/>
  <path class="st0" d="M8.4,156.2c-1.4,0-3-.6-4-1.6-.4-.6-.8-1.2-1.2-1.8-.2-.6-.4-1.4-.4-2.2s0-.8.2-1.2c0-.4.2-.6.4-1s.2-.6.6-1c.2-.2.4-.6.6-.8,2-2,6-2,8,0,.2.2.4.6.6.8.2.4.4.6.6,1,.2.4.2.6.4,1-.2.4-.2.8-.2,1.2,0,.8-.2,1.4-.4,2.2-.2.6-.6,1.2-1.2,1.8-.2.2-.6.4-.8.6-.4.2-.6.4-1,.6-.4.2-.8.2-1,.4h-1.2Z"/>
  <path class="st0" d="M44.8,386c-1.6,0-3-.6-4-1.6-.6-.6-1-1.2-1.2-1.8-.2-.8-.4-1.4-.4-2.2,0-1.4.6-3,1.6-4,2-2.2,5.8-2.2,8,0,1,1,1.6,2.4,1.6,4s-.2,1.4-.4,2.2c-.2.6-.6,1.2-1.2,1.8-1.2,1-2.6,1.6-4,1.6h0Z"/>
  <path class="st0" d="M164.4,459.8c-16.8,0-30.4-13.6-30.4-30.4v-77.6c-3.8,2.6-8.6,4-13.4,4-13.6,0-24.8-11-24.8-24.8v-57.8c0-24,15-46,37.6-54.6,2.8-1.2,6.2.4,7.2,3.2,1.2,2.8-.4,6.2-3.2,7.2-18.2,7-30.4,24.6-30.4,44v57.8c0,7.4,6,13.4,13.4,13.4s13.4-6,13.4-13.4v-58.6c0-3.2,2.6-5.6,5.6-5.6s5.6,2.6,5.6,5.6v156.8c0,10.6,8.6,19,19,19s19-8.6,19-19v-77c0-3.2,2.6-5.6,5.6-5.6s5.6,2.6,5.6,5.6v77c.6,17.2-13,30.8-29.8,30.8h0Z"/>
  <path class="st0" d="M188.4,234.8c-28.6,0-51.8-23.2-51.8-51.8s23.2-51.8,51.8-51.8,51.8,23.2,51.8,51.8-23.2,51.8-51.8,51.8ZM188.4,142.4c-22.4,0-40.6,18.2-40.6,40.6s18.2,40.6,40.6,40.6,40.6-18.2,40.6-40.6-18.2-40.6-40.6-40.6Z"/>
  <path class="st0" d="M188.4,203.2c-15.8,0-28.2-9-28.2-20.2s12.4-20.2,28.2-20.2,28,9,28,20.2c.2,11.4-12.2,20.2-28,20.2ZM188.4,174c-9.6,0-16.8,4.8-16.8,9s7.2,9,16.8,9,16.8-4.8,16.8-9-7.2-9-16.8-9Z"/>
  <path class="st0" d="M209,302.4h-41.2c-3.2,0-5.6-2.6-5.6-5.6v-36c0-3.2,2.6-5.6,5.6-5.6h41.2c3.2,0,5.6,2.6,5.6,5.6v36c0,3-2.4,5.6-5.6,5.6ZM173.4,291h30v-24.8h-30v24.8Z"/>
  <path class="st0" d="M290,231.8h-40.8c-3.2,0-5.6-2.6-5.6-5.6s2.6-5.6,5.6-5.6h40.8c3.2,0,5.6,2.6,5.6,5.6s-2.6,5.6-5.6,5.6h0Z"/>
  <path class="st0" d="M213.2,459.8c-16.8,0-30.4-13.6-30.4-30.4v-77c0-3.2,2.6-5.6,5.6-5.6s5.6,2.6,5.6,5.6v77c0,10.6,8.6,19,19,19s19-8.6,19-19v-165c0-3.2,2.6-5.6,5.6-5.6h52.4c3.2,0,5.6,2.6,5.6,5.6s-2.6,5.6-5.6,5.6h-46.4v159.4c-.2,16.8-13.8,30.4-30.4,30.4h0Z"/>
  <path class="st0" d="M325.2,268.6c-2.2,0-4.4-1.4-5.2-3.6-1.2-2.8.2-6.2,3.2-7.4,5.2-2,8.6-7,8.6-12.6s-3.4-10.4-8.6-12.6c-2.8-1.2-4.2-4.4-3.2-7.4,1.2-2.8,4.4-4.2,7.4-3.2,9.4,3.8,15.6,12.8,15.6,23s-6.2,19.2-15.6,23c-.8.8-1.6.8-2.2.8h0Z"/>
  <path class="st0" d="M309,459.8c-3.2,0-5.6-2.6-5.6-5.6v-165.2c0-3.2,2.6-5.6,5.6-5.6s5.6,2.6,5.6,5.6v165.2c0,3-2.4,5.6-5.6,5.6h0Z"/>
  <path class="st0" d="M309,294.6c-3.2,0-5.6-2.6-5.6-5.6V110.6c0-3.2,2.6-5.6,5.6-5.6s5.6,2.6,5.6,5.6v178.4c0,3-2.4,5.6-5.6,5.6Z"/>
  <path class="st0" d="M421,182.6h-84c-3.2,0-5.6-2.6-5.6-5.6s2.6-5.6,5.6-5.6h78.4v-55.2h-106.2c-3.2,0-5.6-2.6-5.6-5.6s2.6-5.6,5.6-5.6h111.8c3.2,0,5.6,2.6,5.6,5.6v66.4c0,3.2-2.6,5.6-5.6,5.6h0Z"/>
  <path class="st0" d="M19.4,494.8c-1.6,0-3-.6-4.2-1.8-2-2.2-2-5.8.4-8,19.8-18.2,50.6-34,89-45.6,3-.8,6.2.8,7,3.8s-.8,6.2-3.8,7c-36.8,11.2-66,26-84.6,43-1,1.2-2.4,1.6-3.8,1.6h0Z"/>
  <path class="st0" d="M284.2,430h-.2c-7.4-.2-15.2-.4-22.8-.4s-5.6-2.6-5.6-5.6,2.6-5.6,5.6-5.6c7.6,0,15.4.2,23,.4,3.2.2,5.6,2.8,5.4,5.8,0,3-2.4,5.4-5.4,5.4h0Z"/>
  <path class="st0" d="M503,494.8c-1.4,0-2.8-.4-3.8-1.4-31.2-28.6-90.6-50.2-162.6-59.2-3-.4-5.2-3.2-4.8-6.2s3.2-5.2,6.2-4.8c74.4,9.4,136,32,168.8,62,2.2,2,2.4,5.6.4,8-1.2,1-2.6,1.6-4.2,1.6h0Z"/>
</svg>