<?xml version="1.0" encoding="UTF-8"?>
<svg id="a" xmlns="http://www.w3.org/2000/svg" version="1.1" viewBox="0 0 512 512">
  <!-- Generator: Adobe Illustrator 29.8.1, SVG Export Plug-In . SVG Version: 2.1.1 Build 2)  -->
  <defs>
    <style>
      .st0 {
        fill: #ffde55;
      }
    </style>
  </defs>
  <path class="st0" d="M47.8,168.8c-11.8,0-21.4-9.6-21.4-21.4s9.8-21.4,21.4-21.4,21.4,9.6,21.4,21.4-9.6,21.4-21.4,21.4h0ZM47.8,137.2c-5.6,0-10.2,4.6-10.2,10.2s4.6,10.2,10.2,10.2,10.2-4.6,10.2-10.2-4.6-10.2-10.2-10.2Z"/>
  <path class="st0" d="M330.4,432c-11.8,0-21.4-9.6-21.4-21.4s9.6-21.4,21.4-21.4,21.4,9.6,21.4,21.4c-.2,11.8-9.6,21.4-21.4,21.4ZM330.4,400.4c-5.6,0-10.2,4.6-10.2,10.2s4.6,10.2,10.2,10.2,10.2-4.6,10.2-10.2c-.2-5.6-4.6-10.2-10.2-10.2Z"/>
  <path class="st0" d="M421.8,351.2h-199.4c-3.2,0-5.6-2.6-5.6-5.6s2.6-5.6,5.6-5.6h199.4c41.6,0,75.4-33.8,75.4-75.4s-2.8-23.8-8.4-34.6c-5.8-11.2-14.4-21-25-28-12.4-8.4-27-12.8-42.2-12.8H140.6c-3.2,0-5.6-2.6-5.6-5.6s2.6-5.6,5.6-5.6h281.2c17.4,0,34.2,5.2,48.4,14.8,12,8.2,22,19.2,28.6,32.2,6.2,12.2,9.6,26,9.6,39.8.2,47.6-38.6,86.4-86.6,86.4h0Z"/>
  <path class="st0" d="M440.8,480.6c-.8,0-1.4-.2-2.2-.4-.6-.2-1.2-.6-1.8-1.2-.6-.6-1-1.2-1.2-1.8-.2-.6-.4-1.4-.4-2.2,0-1.4.6-3,1.6-4,2-2,5.8-2,8,0,1,1,1.6,2.4,1.6,4s-.2,1.6-.4,2.2c-.2.6-.8,1.2-1.2,1.8-.6.6-1.2,1-1.8,1.2-.6.4-1.4.4-2.2.4h0Z"/>
  <path class="st0" d="M166.2,63.6c-.4,0-.8,0-1-.2-.4,0-.8-.2-1-.4-.4-.2-.6-.4-1-.6-.4-.2-.6-.4-.8-.8-.2-.2-.6-.6-.8-.8s-.4-.6-.6-1c-.2-.4-.2-.6-.4-1,0-.4-.2-.8-.2-1,0-.8.2-1.4.4-2.2.2-.6.6-1.2,1.2-1.8.2-.2.6-.6.8-.6.2-.2.6-.4,1-.6.4-.2.6-.2,1-.2,1-.2,2.2-.2,3.2.2.6.2,1.2.8,1.8,1.2.6.6,1,1.2,1.2,1.8.2.8.4,1.4.4,2.2s0,.8-.2,1c0,.4-.2.8-.2,1-.2.4-.4.6-.6,1-.2.4-.4.6-.6.8-.6.6-1.2,1-1.8,1.2-.4.6-1.2.8-1.8.8h0Z"/>
  <path class="st0" d="M154.2,477.4c-.8,0-1.4-.2-2.2-.4-.6-.2-1.2-.6-1.8-1.2-1-1-1.6-2.4-1.6-4s.2-1.4.4-2.2c.2-.6.6-1.2,1.2-1.8.6-.6,1.2-1,1.8-1.2,1.4-.6,3-.6,4.4,0,.6.2,1.2.8,1.8,1.2.6.6,1,1.2,1.2,1.8.2.8.4,1.4.4,2.2,0,1.4-.6,2.8-1.6,4-.6.6-1.2,1-1.8,1.2-.6.2-1.4.4-2.2.4h0Z"/>
  <path class="st0" d="M281.4,123.6c-.4,0-.8,0-1.2-.2-.4,0-.6-.2-1-.4s-.6-.2-1-.6c-.2-.2-.6-.4-.8-.6-.2-.2-.6-.6-.6-.8-.2-.4-.4-.6-.6-1s-.2-.6-.4-1-.2-.8-.2-1.2c0-1.4.6-3,1.6-4,2-2,6-2,8,0s1.6,2.6,1.6,4,0,.8-.2,1.2c0,.4-.2.6-.4,1s-.2.6-.6,1c-.2.2-.4.6-.8.8-.2.2-.6.6-.8.6-.2.2-.6.4-1,.6s-.6.2-1,.4c.2,0-.2.2-.6.2h0Z"/>
  <path class="st0" d="M326.8,270.2H8.4c-3.2,0-5.6-2.6-5.6-5.6s2.6-5.6,5.6-5.6h318.4c3.2,0,5.6,2.6,5.6,5.6s-2.6,5.6-5.6,5.6h0Z"/>
  <path class="st0" d="M421.8,314.4c-12.8,0-25.6-4.8-35.4-14.6-9.4-9.4-14.6-22-14.6-35.4s5.2-25.8,14.6-35.4c7-7,16-11.8,25.8-13.8,8.2-1.6,16.8-1,24.8,1.4,7.6,2.4,14.4,6.6,20.2,12.2,9.4,9.4,14.6,22,14.6,35.4s-5.2,25.8-14.6,35.4c-9.8,10-22.6,14.8-35.4,14.8h0ZM421.8,225.8c-2.4,0-5,.2-7.4.8-7.6,1.4-14.4,5.2-20,10.6-7.4,7.4-11.4,17-11.4,27.4s4,20,11.4,27.4,17,11.4,27.4,11.4,20-4,27.4-11.4,11.4-17,11.4-27.4-4-20-11.4-27.4-9.6-7.6-15.6-9.6c-3.8-1.2-7.8-1.8-11.8-1.8h0Z"/>
  <path class="st0" d="M351,232H86c-3.2,0-5.6-2.6-5.6-5.6s2.6-5.6,5.6-5.6h265c3.2,0,5.6,2.6,5.6,5.6s-2.4,5.6-5.6,5.6Z"/>
  <path class="st0" d="M351,314.4h-206c-3.2,0-5.6-2.6-5.6-5.6s2.6-5.6,5.6-5.6h206c3.2,0,5.6,2.6,5.6,5.6s-2.4,5.6-5.6,5.6Z"/>
  <path class="st0" d="M411.2,61.6h-6.6c-3.2,0-5.6-2.6-5.6-5.6s2.6-5.6,5.6-5.6h6.6c3.2,0,5.6,2.6,5.6,5.6s-2.4,5.6-5.6,5.6Z"/>
  <path class="st0" d="M444,61.6h-6.6c-3.2,0-5.6-2.6-5.6-5.6s2.6-5.6,5.6-5.6h6.6c3.2,0,5.6,2.6,5.6,5.6s-2.4,5.6-5.6,5.6Z"/>
  <path class="st0" d="M424.4,48.4c-3.2,0-5.6-2.6-5.6-5.6v-6.6c0-3.2,2.6-5.6,5.6-5.6s5.6,2.6,5.6,5.6v6.6c0,3.2-2.6,5.6-5.6,5.6Z"/>
  <path class="st0" d="M424.4,81.2c-3.2,0-5.6-2.6-5.6-5.6v-6.6c0-3.2,2.6-5.6,5.6-5.6s5.6,2.6,5.6,5.6v6.6c0,3.2-2.6,5.6-5.6,5.6Z"/>
  <path class="st0" d="M74,393.2h-6.6c-3.2,0-5.6-2.6-5.6-5.6s2.6-5.6,5.6-5.6h6.6c3.2,0,5.6,2.6,5.6,5.6s-2.4,5.6-5.6,5.6h0Z"/>
  <path class="st0" d="M106.8,393.2h-6.6c-3.2,0-5.6-2.6-5.6-5.6s2.6-5.6,5.6-5.6h6.6c3.2,0,5.6,2.6,5.6,5.6s-2.4,5.6-5.6,5.6Z"/>
  <path class="st0" d="M87.2,380c-3.2,0-5.6-2.6-5.6-5.6v-6.4c0-3.2,2.6-5.6,5.6-5.6s5.6,2.6,5.6,5.6v6.6c0,3-2.6,5.4-5.6,5.4Z"/>
  <path class="st0" d="M87.2,412.8c-3.2,0-5.6-2.6-5.6-5.6v-6.6c0-3.2,2.6-5.6,5.6-5.6s5.6,2.6,5.6,5.6v6.6c0,3.2-2.6,5.6-5.6,5.6Z"/>
</svg>