<?xml version="1.0" encoding="UTF-8"?>
<svg id="a" xmlns="http://www.w3.org/2000/svg" version="1.1" viewBox="0 0 512 512">
  <!-- Generator: Adobe Illustrator 29.8.1, SVG Export Plug-In . SVG Version: 2.1.1 Build 2)  -->
  <defs>
    <style>
      .st0 {
        fill: #ffde55;
      }
    </style>
  </defs>
  <path class="st0" d="M50.4,66.6c-15.6,0-28.2-12.6-28.2-28.2s12.6-28.2,28.2-28.2,28.2,12.6,28.2,28.2-12.6,28.2-28.2,28.2ZM50.4,21.4c-9.4,0-17,7.6-17,17s7.6,17,17,17,17-7.6,17-17-7.6-17-17-17Z"/>
  <path class="st0" d="M450.2,451.2c-15.6,0-28.2-12.6-28.2-28.2s12.6-28.2,28.2-28.2,28.2,12.6,28.2,28.2-12.6,28.2-28.2,28.2ZM450.2,405.8c-9.4,0-17,7.6-17,17s7.6,17,17,17,17-7.6,17-17-7.6-17-17-17Z"/>
  <path class="st0" d="M11,210.8c-1.4,0-3-.6-4-1.6-.6-.6-1-1.2-1.2-1.8s-.4-1.4-.4-2.2.2-1.6.4-2.2c.2-.6.6-1.2,1.2-1.8,1.2-1.2,3.2-2,5-1.6.4.2.6.2,1,.4s.6.4,1,.6c.2.2.6.4.8.8,1,1,1.6,2.4,1.6,4s-.2,1.4-.4,2.2c-.2.6-.8,1.2-1.2,1.8-.2.2-.6.6-.8.8-.4.2-.6.4-1,.6-.4.2-.8.2-1,.2-.4-.2-.6-.2-1-.2h0Z"/>
  <path class="st0" d="M330.8,464.8c-1.6,0-3-.6-4-1.6s-.8-1.2-1.2-1.8c-.4-.8-.4-1.4-.4-2.2s.2-1.4.4-2.2c.2-.6.6-1.2,1.2-1.8,2-2,6-2,8,0s.8,1.2,1.2,1.8c.2.6.4,1.4.4,2.2s-.2,1.4-.4,2.2c-.2.6-.6,1.2-1.2,1.8-.6.6-1.2,1-1.8,1.2-.8.4-1.6.4-2.2.4h0Z"/>
  <path class="st0" d="M244.4,14c-.8,0-1.4-.2-2.2-.4-.6-.2-1.2-.6-1.8-1.2-1-1-1.6-2.6-1.6-4s.6-3,1.6-4c.6-.6,1.2-.8,1.8-1.2,1-.4,2.2-.6,3.2-.4.4,0,.8.2,1,.4.4.2.6.2,1,.6.4.2.6.4.8.6.6.6,1,1.2,1.2,1.8.2.6.4,1.4.4,2.2,0,1.4-.6,3-1.6,4-.2.2-.6.4-.8.6-.2.2-.6.4-1,.6-.4.2-.8.2-1,.4h-1,0Z"/>
  <path class="st0" d="M48.6,410.8h-7.2c-3.2,0-5.6-2.6-5.6-5.6s2.6-5.6,5.6-5.6h7.2c3.2,0,5.6,2.6,5.6,5.6s-2.4,5.6-5.6,5.6Z"/>
  <path class="st0" d="M85,410.8h-7.2c-3.2,0-5.6-2.6-5.6-5.6s2.6-5.6,5.6-5.6h7.2c3.2,0,5.6,2.6,5.6,5.6s-2.4,5.6-5.6,5.6Z"/>
  <path class="st0" d="M63.2,396.2c-3.2,0-5.6-2.6-5.6-5.6v-7.2c0-3.2,2.6-5.6,5.6-5.6s5.6,2.6,5.6,5.6v7.2c0,3.2-2.6,5.6-5.6,5.6Z"/>
  <path class="st0" d="M63.2,432.6c-3.2,0-5.6-2.6-5.6-5.6v-7.2c0-3.2,2.6-5.6,5.6-5.6s5.6,2.6,5.6,5.6v7.2c0,3.2-2.6,5.6-5.6,5.6Z"/>
  <path class="st0" d="M334.8,200.6h-7.2c-3.2,0-5.6-2.6-5.6-5.6s2.6-5.6,5.6-5.6h7.2c3.2,0,5.6,2.6,5.6,5.6s-2.4,5.6-5.6,5.6Z"/>
  <path class="st0" d="M371.2,200.6h-7.2c-3.2,0-5.6-2.6-5.6-5.6s2.6-5.6,5.6-5.6h7.2c3.2,0,5.6,2.6,5.6,5.6s-2.4,5.6-5.6,5.6Z"/>
  <path class="st0" d="M349.4,186c-3.2,0-5.6-2.6-5.6-5.6v-7.2c0-3.2,2.6-5.6,5.6-5.6s5.6,2.6,5.6,5.6v7.2c0,3.2-2.6,5.6-5.6,5.6Z"/>
  <path class="st0" d="M349.4,222.4c-3.2,0-5.6-2.6-5.6-5.6v-7.2c0-3.2,2.6-5.6,5.6-5.6s5.6,2.6,5.6,5.6v7.2c0,3.2-2.6,5.6-5.6,5.6Z"/>
  <path class="st0" d="M500.4,320c-1.6,0-3-.6-4-1.6s-1.6-2.6-1.6-4,.2-1.4.4-2.2c.2-.6.8-1.2,1.2-1.8.6-.6,1.2-.8,1.8-1.2.4-.2.8-.2,1-.4,1.8-.4,3.8.2,5,1.6.6.6,1,1.2,1.2,1.8s.4,1.4.4,2.2c0,1.6-.6,3-1.6,4-.8,1-2.2,1.6-3.8,1.6h0Z"/>
  <path class="st0" d="M143.4,508.6c-.8,0-1.4-.2-2.2-.4-.6-.2-1.2-.6-1.8-1.2-1-1-1.6-2.4-1.6-4s.6-3,1.6-4c.2-.2.6-.6.8-.6.4-.2.6-.4,1-.6s.6-.2,1-.4c1.2-.2,2.2-.2,3.2.4.6.2,1.2.6,1.8,1.2,1,1,1.6,2.6,1.6,4s-.2,1.4-.4,2.2c-.2.6-.6,1.2-1.2,1.8-.6.6-1.2.8-1.8,1.2-.6.4-1.2.4-2,.4h0Z"/>
  <path class="st0" d="M251,412.6c-86.6,0-156.8-70.4-156.8-156.8S164,99.6,249.8,99c2.2,0,4.2,1.2,5,3.2,1,2,.6,4.4-.8,6-22,26.8-34.2,60.8-34.2,95.6,0,79.4,62,145.4,141.2,150.4,2.2.2,4,1.6,4.8,3.6s.4,4.4-1.2,6c-29.6,31.4-70.2,48.8-113.6,48.8h0ZM238.2,110.6c-74.2,6.6-132.8,69.4-132.8,145.2s65.4,145.6,145.6,145.6,70.4-13.2,97.2-37.2c-79.2-11-139.6-79.2-139.6-160.4.2-33.4,10.4-66,29.6-93.2h0Z"/>
  <path class="st0" d="M393,56.8c-1.4,0-3-.6-4-1.6-.6-.6-1-1.2-1.2-1.8s-.4-1.4-.4-2.2c0-1.6.6-3,1.6-4,1.2-1.2,3.2-2,5-1.6.4,0,.8.2,1,.2.4.2.6.4,1,.6.2.2.6.4.8.8.6.6.8,1.2,1.2,1.8.2.8.4,1.4.4,2.2s-.2,1.4-.4,2.2c-.2.6-.8,1.2-1.2,1.8-.2.2-.6.6-.8.8-.4.2-.6.4-1,.6-.2.2-.6.2-1,.4-.2-.2-.6-.2-1-.2h0Z"/>
  <path class="st0" d="M461.2,215.6c-1.6,0-3-.6-4-1.6s-1-1.2-1.2-1.8-.4-1.4-.4-2.2.2-1.4.4-2.2c.2-.6.8-1.2,1.2-1.8,2-2,5.8-2.2,8,0,1,1,1.6,2.4,1.6,4s-.6,3-1.6,4c-1.2,1-2.6,1.6-4,1.6Z"/>
</svg>