<?xml version="1.0" encoding="UTF-8"?>
<svg id="a" xmlns="http://www.w3.org/2000/svg" version="1.1" viewBox="0 0 512 512">
  <!-- Generator: Adobe Illustrator 29.8.1, SVG Export Plug-In . SVG Version: 2.1.1 Build 2)  -->
  <defs>
    <style>
      .st0 {
        fill: #ffde55;
      }
    </style>
  </defs>
  <path class="st0" d="M31.4,70h-8.2c-3.2,0-5.6-2.6-5.6-5.6s2.6-5.6,5.6-5.6h8.2c3.2,0,5.6,2.6,5.6,5.6s-2.6,5.6-5.6,5.6Z"/>
  <path class="st0" d="M72.2,70h-8.2c-3.2,0-5.6-2.6-5.6-5.6s2.6-5.6,5.6-5.6h8.2c3.2,0,5.6,2.6,5.6,5.6.2,3-2.4,5.6-5.6,5.6Z"/>
  <path class="st0" d="M47.8,53.6c-3.2,0-5.6-2.6-5.6-5.6v-8.2c0-3.2,2.6-5.6,5.6-5.6s5.6,2.6,5.6,5.6v8.2c0,3-2.6,5.6-5.6,5.6Z"/>
  <path class="st0" d="M47.8,94.6c-3.2,0-5.6-2.6-5.6-5.6v-8.2c0-3.2,2.6-5.6,5.6-5.6s5.6,2.6,5.6,5.6v8.2c0,3-2.6,5.6-5.6,5.6Z"/>
  <path class="st0" d="M295,14c-1.4,0-3-.6-4-1.6s-1.6-2.6-1.6-4,.6-3,1.6-4c1.6-1.6,4-2,6.2-1.2.6.2,1.2.6,1.8,1.2,1,1,1.6,2.4,1.6,4s-.6,3-1.6,4-2.4,1.6-4,1.6Z"/>
  <path class="st0" d="M422.6,434h-8.2c-3.2,0-5.6-2.6-5.6-5.6s2.6-5.6,5.6-5.6h8.2c3.2,0,5.6,2.6,5.6,5.6s-2.4,5.6-5.6,5.6Z"/>
  <path class="st0" d="M463.6,434h-8.2c-3.2,0-5.6-2.6-5.6-5.6s2.6-5.6,5.6-5.6h8.2c3.2,0,5.6,2.6,5.6,5.6s-2.4,5.6-5.6,5.6Z"/>
  <path class="st0" d="M439,417.6c-3.2,0-5.6-2.6-5.6-5.6v-8.2c0-3.2,2.6-5.6,5.6-5.6s5.6,2.6,5.6,5.6v8.2c0,3.2-2.4,5.6-5.6,5.6Z"/>
  <path class="st0" d="M439,458.6c-3.2,0-5.6-2.6-5.6-5.6v-8.2c0-3.2,2.6-5.6,5.6-5.6s5.6,2.6,5.6,5.6v8.2c0,3-2.4,5.6-5.6,5.6Z"/>
  <path class="st0" d="M58.2,502c-19.8,0-36-16.2-36-36s16.2-36,36-36,36,16.2,36,36-16,36-36,36ZM58.2,441.2c-13.6,0-24.8,11.2-24.8,24.8s11.2,24.8,24.8,24.8,24.8-11.2,24.8-24.8-11-24.8-24.8-24.8Z"/>
  <path class="st0" d="M252.2,264.8c-1.6,0-3-.6-4-1.6s-1.6-2.4-1.6-4,0-.8.2-1.2c0-.4.2-.8.2-1,.2-.4.4-.6.6-1,.2-.2.4-.6.6-.8l.8-.8c.4-.2.6-.4,1-.6.4-.2.8-.2,1-.2,1.8-.4,3.8.2,5,1.6l.8.8c.2.2.4.6.6,1s.2.8.4,1c0,.4.2.8.2,1.2,0,1.4-.6,2.8-1.6,4-1.2,1-2.6,1.6-4.2,1.6h0Z"/>
  <path class="st0" d="M46.6,218.6c-.8,0-1.4-.2-2.2-.4s-1.2-.6-1.8-1.2c-1-1-1.6-2.4-1.6-4s0-.8.2-1.2c0-.4.2-.8.4-1,.2-.4.2-.6.6-1,.2-.2.4-.6.6-.8.6-.6,1.2-1,1.8-1.2,2-.8,4.6-.4,6.2,1.2.2.2.6.6.6.8.2.4.4.6.6,1,.2.4.2.8.4,1,0,.4.2.8.2,1.2,0,1.4-.6,3-1.6,4-1.6,1-3,1.6-4.4,1.6h0Z"/>
  <path class="st0" d="M461.6,318.6c-.8,0-1.6-.2-2.2-.4-.6-.2-1.2-.8-1.8-1.2-.6-.6-1-1.2-1.2-1.8-.2-.6-.4-1.4-.4-2.2,0-1.4.6-3,1.6-4l.8-.8c.2-.2.6-.4,1-.6s.8-.2,1-.4c1.8-.4,3.8.2,5,1.6,1,1,1.6,2.4,1.6,4s-.2,1.4-.4,2.2-.6,1.2-1.2,1.8c-.8,1.2-2.2,1.8-3.8,1.8h0Z"/>
  <path class="st0" d="M156.8,33c-1.4,0-3-.6-4-1.6-.6-.6-.8-1.2-1.2-1.8-.4-.6-.4-1.4-.4-2.2s0-.8.2-1.2c0-.4.2-.8.4-1,.2-.4.2-.6.6-1,.4-.4.4-.6.6-.8,2.2-2,6-2,8,0,.2.2.6.6.6.8.2.2.4.6.6,1,.2.4.2.8.2,1,.2.4.2.8.2,1.2,0,.8-.2,1.4-.4,2.2-.4.6-.8,1.2-1.2,1.8-1.4.8-2.8,1.6-4.2,1.6h0Z"/>
  <path class="st0" d="M457.8,76.2c-19.8,0-36-16.2-36-36s16.2-36,36-36,36,16.2,36,36c.2,19.8-16,36-36,36ZM457.8,15.2c-13.6,0-24.8,11.2-24.8,24.8s11.2,24.8,24.8,24.8,24.8-11.2,24.8-24.8-11-24.8-24.8-24.8Z"/>
  <path class="st0" d="M230.2,452.6c-104.4,0-189.4-85-189.4-189.4s2.6-5.6,5.6-5.6,5.6,2.6,5.6,5.6c0,98.2,79.8,178,178,178s178-79.8,178-178,2.6-5.6,5.6-5.6,5.6,2.6,5.6,5.6c.4,104.6-84.6,189.4-189,189.4h0Z"/>
  <path class="st0" d="M414,269c-3.2,0-5.6-2.6-5.6-5.6,0-11.6-1.6-23-4.8-34-.8-3,.8-6,3.8-7,3-.8,6,.8,7,3.8,3.4,12,5.2,24.6,5.2,37.2s-2.4,5.6-5.6,5.6h0Z"/>
  <path class="st0" d="M155.2,269c-3.2,0-5.6-2.6-5.6-5.6,0-74.4,60.6-135,135-135s68.8,13.6,94.2,38.4c2.2,2.2,2.2,5.8.2,8-2.2,2.2-5.8,2.2-8,.2-23.2-22.6-54-35.2-86.4-35.2-68.2,0-123.8,55.6-123.8,123.8s-2.4,5.4-5.6,5.4h0Z"/>
  <path class="st0" d="M217.8,331.4c-37.6,0-68.2-30.6-68.2-68.2s2.6-5.6,5.6-5.6,5.6,2.6,5.6,5.6c0,31.4,25.6,56.8,56.8,56.8s5.6,2.6,5.6,5.6c.2,3.4-2.4,5.8-5.4,5.8h0Z"/>
  <path class="st0" d="M457.8,260.6c-3.2,0-5.6-2.6-5.6-5.6,0-98.2-79.8-178-178-178s-93.2,18.8-127,53.2c-4.6,4.8-9.2,9.8-13.2,15-7.4,9.4-13.8,19.6-19.2,30.4-12.4,24.8-18.8,51.6-18.8,79.6s-2.6,5.6-5.6,5.6-5.6-2.6-5.6-5.6c0-29.8,6.6-58.2,19.8-84.6,5.6-11.4,12.6-22.2,20.4-32.2,4.4-5.6,9-10.8,14-16,35.8-36.4,83.8-56.6,135-56.6,104.4,0,189.4,85,189.4,189.4s-2.4,5.4-5.6,5.4h0Z"/>
  <path class="st0" d="M219.8,390c-74.4,0-135-60.6-135-135s2.6-5.6,5.6-5.6,5.6,2.6,5.6,5.6c0,68.2,55.6,123.8,123.8,123.8s24.8-1.8,36.6-5.6c3-1,6.2.8,7,3.8,1,3-.8,6.2-3.8,7-12.8,4-26.2,6-39.8,6h0Z"/>
  <path class="st0" d="M306.4,356.8c-1.6,0-3-.6-4.2-1.8-2-2.4-1.8-5.8.4-8,26-23.4,41-57,41-92s2.6-5.6,5.6-5.6,5.6,2.6,5.6,5.6c0,38.2-16.4,74.8-44.8,100.4-1,1-2.4,1.4-3.6,1.4h0Z"/>
  <path class="st0" d="M349.2,260.6c-3.2,0-5.6-2.6-5.6-5.6,0-31.4-25.6-56.8-56.8-56.8s-5.6-2.6-5.6-5.6,2.6-5.6,5.6-5.6c37.6,0,68.2,30.6,68.2,68.2-.2,3-2.6,5.4-5.8,5.4h0Z"/>
  <path class="st0" d="M248,297.2c-9.4,0-17.8-3.4-24.2-9.6-2.2-2.2-2.2-5.8,0-8s5.8-2.2,8,0c4.6,4.6,11.4,6.8,18.8,6.2,7.8-.8,15.6-4.4,21.6-10.6s9.8-13.8,10.6-21.6c.6-7.4-1.6-14.2-6.2-18.8s-11.4-6.8-18.8-6.2c-7.8.8-15.6,4.4-21.6,10.6-2.2,2.2-5.8,2.2-8,0s-2.2-5.8,0-8c8-8,18.2-12.8,28.6-13.8,10.8-1,20.6,2.4,27.8,9.4,7,7,10.4,17,9.4,27.8-1,10.4-5.8,20.6-13.8,28.6s-18.2,12.8-28.6,13.8c-1.2.2-2.4.2-3.6.2h0Z"/>
  <path class="st0" d="M213.2,508.6c-.8,0-1.6-.2-2.2-.4-.6-.2-1.2-.6-1.8-1.2s-1-1.2-1.2-1.8-.4-1.4-.4-2.2c0-1.4.6-3,1.6-4s1.2-.8,1.8-1.2c1-.4,2.2-.6,3.2-.4.4,0,.8.2,1,.4.4.2.6.2,1,.6.4.2.6.4.8.6,1,1,1.6,2.6,1.6,4s-.6,3-1.6,4c-1,1-2.4,1.6-3.8,1.6h0Z"/>
  <path class="st0" d="M351.4,489.8c-.8,0-1.6-.2-2.2-.4-.6-.2-1.2-.6-1.8-1.2-.6-.6-1-1.2-1.2-1.8-.2-.6-.4-1.4-.4-2.2s.2-1.6.4-2.2c.2-.6.8-1.2,1.2-1.8,2-2,6-2.2,8,0,.6.6,1,1.2,1.2,1.8.2.6.4,1.4.4,2.2s-.2,1.4-.4,2.2c-.2.6-.6,1.2-1.2,1.8-1.2,1-2.6,1.6-4,1.6h0Z"/>
  <path class="st0" d="M252.2,202.2c-1.6,0-3-.6-4-1.6s-1.6-2.4-1.6-4,.6-3,1.6-4c2-2,5.8-2,8,0,1,1,1.6,2.4,1.6,4s-.6,3-1.6,4-2.6,1.6-4,1.6h0Z"/>
</svg>