<?xml version="1.0" encoding="UTF-8"?>
<svg id="Layer_1" xmlns="http://www.w3.org/2000/svg" version="1.1" viewBox="0 0 512 512">
  <!-- Generator: Adobe Illustrator 29.8.1, SVG Export Plug-In . SVG Version: 2.1.1 Build 2)  -->
  <defs>
    <style>
      .st0 {
        fill: #ffde55;
      }
    </style>
  </defs>
  <path class="st0" d="M42.8,130.2h-7.4c-3.2,0-5.6-2.6-5.6-5.6s2.6-5.6,5.6-5.6h7.4c3.2,0,5.6,2.6,5.6,5.6s-2.4,5.6-5.6,5.6Z"/>
  <path class="st0" d="M79.6,130.2h-7.4c-3.2,0-5.6-2.6-5.6-5.6s2.6-5.6,5.6-5.6h7.4c3.2,0,5.6,2.6,5.6,5.6s-2.4,5.6-5.6,5.6Z"/>
  <path class="st0" d="M57.6,115.4c-3.2,0-5.6-2.6-5.6-5.6v-7.4c0-3.2,2.6-5.6,5.6-5.6s5.6,2.6,5.6,5.6v7.4c0,3-2.6,5.6-5.6,5.6Z"/>
  <path class="st0" d="M57.6,152.2c-3.2,0-5.6-2.6-5.6-5.6v-7.4c0-3.2,2.6-5.6,5.6-5.6s5.6,2.6,5.6,5.6v7.4c0,3-2.6,5.6-5.6,5.6Z"/>
  <path class="st0" d="M160.2,36.6c-.8,0-1.4-.2-2.2-.4-.6-.2-1.2-.6-1.8-1.2-.6-.6-1-1.2-1.2-1.8s-.4-1.4-.4-2.2.2-1.4.4-2.2c.2-.8.6-1.4,1.2-1.8.6-.6,1.2-.8,1.8-1.2,1.4-.6,3-.6,4.4,0,.6.2,1.2.6,1.8,1.2s1,1.2,1.2,1.8c.2.6.4,1.4.4,2.2,0,1.4-.6,3-1.6,4s-2.4,1.6-4,1.6h0Z"/>
  <path class="st0" d="M419.4,452h-7.4c-3.2,0-5.6-2.6-5.6-5.6s2.6-5.6,5.6-5.6h7.4c3.2,0,5.6,2.6,5.6,5.6s-2.6,5.6-5.6,5.6Z"/>
  <path class="st0" d="M456.2,452h-7.4c-3.2,0-5.6-2.6-5.6-5.6s2.6-5.6,5.6-5.6h7.4c3.2,0,5.6,2.6,5.6,5.6s-2.6,5.6-5.6,5.6Z"/>
  <path class="st0" d="M434,437.2c-3.2,0-5.6-2.6-5.6-5.6v-7.4c0-3.2,2.6-5.6,5.6-5.6s5.6,2.6,5.6,5.6v7.4c0,3.2-2.4,5.6-5.6,5.6Z"/>
  <path class="st0" d="M434,474c-3.2,0-5.6-2.6-5.6-5.6v-7.4c0-3.2,2.6-5.6,5.6-5.6s5.6,2.6,5.6,5.6v7.4c0,3.2-2.4,5.6-5.6,5.6Z"/>
  <path class="st0" d="M475.6,255.4c-18.2,0-33-14.8-33-33s14.8-33,33-33,33,14.8,33,33-14.8,33-33,33ZM475.6,200.8c-12,0-21.8,9.8-21.8,21.8s9.8,21.8,21.8,21.8,21.8-9.8,21.8-21.8-9.8-21.8-21.8-21.8Z"/>
  <path class="st0" d="M74.8,449.8c-18.2,0-33-14.8-33-33s14.8-33,33-33,33,14.8,33,33-14.8,33-33,33ZM74.8,395.2c-12,0-21.8,9.8-21.8,21.8s9.8,21.8,21.8,21.8,21.8-9.8,21.8-21.8-9.8-21.8-21.8-21.8Z"/>
  <path class="st0" d="M196.8,475c-.8,0-1.4-.2-2.2-.4-.6-.2-1.2-.6-1.8-1.2-1-1-1.6-2.4-1.6-4s.2-1.4.4-2.2c.2-.6.8-1.2,1.2-1.8.6-.6,1.2-1,1.8-1.2,2-.8,4.6-.4,6.2,1.2,1,1,1.6,2.4,1.6,4s-.2,1.6-.4,2.2-.6,1.2-1.2,1.8c-.6.6-1.2,1-1.8,1.2-.8.2-1.6.4-2.2.4Z"/>
  <path class="st0" d="M8.4,328c-1.6,0-3-.6-4-1.6s-1.6-2.4-1.6-4,.2-1.4.4-2.2c.2-.6.6-1.2,1.2-1.8,2-2,6-2.2,8,0,.6.6.8,1.2,1.2,1.8.2.6.4,1.4.4,2.2,0,1.6-.6,3-1.6,4-1,1.2-2.4,1.6-4,1.6h0Z"/>
  <path class="st0" d="M488.2,346.4c-1.6,0-3-.6-4-1.6s-1-1.2-1.2-1.8c-.2-.6-.4-1.4-.4-2.2s0-.8.2-1c0-.4.2-.8.4-1,.2-.4.2-.6.6-1,.2-.4.4-.6.8-.8.6-.6,1.2-1,1.8-1.2,1-.4,2.2-.6,3.2-.4.4.2.6.2,1,.4s.6.4,1,.6c.2.2.6.4.8.8.2.2.6.6.6.8.2.2.4.6.6,1s.2.8.2,1c.2.4.2.8.2,1,0,.8-.2,1.6-.4,2.2-.2.6-.8,1.2-1.2,1.8-1.4.8-2.8,1.4-4.2,1.4h0Z"/>
  <path class="st0" d="M470,61c-1.6,0-3-.6-4-1.6s-1.6-2.4-1.6-4,.6-3,1.6-4c1.2-1.2,3.2-1.8,5-1.6.4,0,.8.2,1,.4.4.2.6.2,1,.6.2.2.6.4.8.6,1,1,1.6,2.6,1.6,4s0,.8-.2,1.2c0,.4-.2.6-.4,1s-.2.6-.6,1c-.2.2-.4.6-.6.8s-.6.6-.8.6c-.4.2-.6.4-1,.6-.4.2-.6.2-1,.4-.2-.2-.4,0-.8,0h0Z"/>
  <path class="st0" d="M121.6,308.4c-8.6,0-16.8-3.4-23-9.6-6.2-6.2-9.6-14.2-9.6-23s3.4-16.8,9.6-23l60.2-60.2c-5.2-.8-10.2-3.4-14.2-7.4-10.2-10.2-10.2-27,0-37.4l44.4-44.4c18.4-18.4,46.6-23.6,70.2-13,2.8,1.2,4.2,4.6,2.8,7.4-1.2,2.8-4.6,4-7.4,2.8-19.4-8.6-42.6-4.4-57.8,10.6l-44.2,44.6c-6,6-6,15.6,0,21.4,6,6,15.6,6,21.4,0l45-45c2.2-2.2,5.8-2.2,8,0s2.2,5.8,0,8l-120.6,120.6c-4,4-6.2,9.4-6.2,15s2.2,11,6.2,15c8,8,22,8,30,0l59.2-59.2c2.2-2.2,5.8-2.2,8,0s2.2,5.8,0,8l-59.2,59.2c-6,6.2-14.2,9.6-22.8,9.6h0Z"/>
  <path class="st0" d="M159,345.6c-8.4,0-16.6-3.2-23-9.4-6.2-6.2-9.6-14.2-9.6-23s3.4-16.8,9.6-23l59.2-59.2c2.2-2.2,5.8-2.2,8,0s2.2,5.8,0,8l-59.2,59.2c-4,4-6.2,9.4-6.2,15s2.2,11,6.2,15c8.2,8.2,21.8,8.2,30,0l126.8-126.8c2.2-2.2,5.8-2.2,8,0l20.8,20.8c5.2,5.2,12.4,8.2,19.8,8.2s14.6-3,19.8-8.2l41.4-41.4c6-6,6-15.6,0-21.4-5.8-5.8-15.8-5.8-21.4,0l-21.6,21.6c-7.6,7.6-20.6,7.6-28.2,0-2.2-2.2-2.2-5.8,0-8s5.8-2.2,8,0c3.2,3.2,9,3.2,12.2,0l21.6-21.6c5-5,11.6-7.8,18.6-7.8s13.6,2.8,18.6,7.8,7.8,11.6,7.8,18.6-2.8,13.6-7.8,18.6l-41.4,41.4c-7.4,7.4-17.2,11.6-27.8,11.6s-20.4-4-27.8-11.6l-16.8-16.8-122.8,122.8c-6.2,6.6-14.6,9.6-22.8,9.6h0Z"/>
  <path class="st0" d="M329.4,160.6c-15,0-29-5.8-39.6-16.4-10.6-10.6-16.4-24.6-16.4-39.6s5.8-29,16.4-39.6,24.6-16.4,39.6-16.4,29,5.8,39.6,16.4c10.6,10.6,16.4,24.6,16.4,39.6s-5.8,29-16.4,39.6-24.8,16.4-39.6,16.4ZM329.4,60.2c-12,0-23.2,4.6-31.6,13-8.4,8.4-13,19.6-13,31.6s4.6,23.2,13,31.6,19.6,13,31.6,13,23.2-4.6,31.6-13c8.4-8.4,13-19.6,13-31.6s-4.6-23.2-13-31.6c-8.4-8.4-19.8-13-31.6-13Z"/>
  <path class="st0" d="M338.4,132.8c-1.8,0-3.6-.2-5.6-.6-7-1.4-14-5.4-19.8-11.2-5.8-5.8-9.8-12.8-11.2-19.8-1.6-7.6,0-14.8,4.6-19.4s11.6-6.4,19.4-4.6c7,1.4,14,5.4,19.8,11.2,12.8,12.8,15.6,30,6.6,39-3.4,3.6-8.4,5.4-13.8,5.4h0ZM320.2,88c-2,0-4.2.4-5.8,2-2.6,2.6-2.2,6.8-1.6,9,1,4.8,4,9.8,8.2,14s9.4,7.2,14.2,8.2c2.2.4,6.6,1,9-1.6,4-4,2.2-14.4-6.6-23.2-4.2-4.2-9.4-7.2-14-8.2-1,0-2-.2-3.4-.2h0Z"/>
  <path class="st0" d="M257.8,213.6c-1.4,0-3-.6-4-1.6l-31.8-31.8c-2.2-2.2-2.2-5.8,0-8l27.8-27.8c2.2-2.2,5.8-2.2,8,0l31.8,31.8c1,1,1.6,2.4,1.6,4s-.6,3-1.6,4l-27.8,27.8c-1,1.2-2.4,1.6-4,1.6ZM234,176.4l23.8,23.8,19.8-19.8-23.8-23.8-19.8,19.8h0Z"/>
  <path class="st0" d="M334.2,486c-1.4,0-2.8-.6-4-1.6l-86.2-86.2c-13.2-13.2-13.2-34.6,0-47.6,13.2-13.2,34.6-13.2,47.6,0l12.8,12.8c4.2,4.2,9.8,6.6,15.8,6.6s11.6-2.4,15.8-6.6c8.8-8.8,8.8-23,0-31.8l-60.4-60.4c-2.2-2.2-2.2-5.8,0-8s5.8-2.2,8,0l60.4,60.4c13.2,13.2,13.2,34.6,0,47.6-13.2,13.2-34.6,13.2-47.6,0l-12.8-12.8c-8.8-8.8-23-8.8-31.8,0s-8.8,23,0,31.8l86.2,86.2c2.2,2.2,2.2,5.8,0,8s-2.4,1.6-3.8,1.6h0Z"/>
</svg>