<?xml version="1.0" encoding="UTF-8"?>
<svg id="Layer_1" xmlns="http://www.w3.org/2000/svg" version="1.1" viewBox="0 0 512 512">
  <!-- Generator: Adobe Illustrator 29.8.1, SVG Export Plug-In . SVG Version: 2.1.1 Build 2)  -->
  <defs>
    <style>
      .st0 {
        fill: #ffde55;
      }
    </style>
  </defs>
  <path class="st0" d="M44.4,292.4h-7.4c-3.2,0-5.6-2.6-5.6-5.6s2.6-5.6,5.6-5.6h7.4c3.2,0,5.6,2.6,5.6,5.6s-2.6,5.6-5.6,5.6Z"/>
  <path class="st0" d="M81.4,292.4h-7.4c-3.2,0-5.6-2.6-5.6-5.6s2.6-5.6,5.6-5.6h7.4c3.2,0,5.6,2.6,5.6,5.6s-2.4,5.6-5.6,5.6Z"/>
  <path class="st0" d="M59.2,277.6c-3.2,0-5.6-2.6-5.6-5.6v-7.4c0-3.2,2.6-5.6,5.6-5.6s5.6,2.6,5.6,5.6v7.4c0,3-2.6,5.6-5.6,5.6Z"/>
  <path class="st0" d="M59.2,314.6c-3.2,0-5.6-2.6-5.6-5.6v-7.4c0-3.2,2.6-5.6,5.6-5.6s5.6,2.6,5.6,5.6v7.4c0,3-2.6,5.6-5.6,5.6Z"/>
  <path class="st0" d="M452.8,40.4c-1.4,0-3-.6-4-1.6-.6-.6-1-1.2-1.2-1.8s-.4-1.4-.4-2.2,0-.8.2-1.2c0-.4.2-.6.4-1s.2-.6.6-1c.2-.2.4-.6.8-.8,1.2-1.2,3.2-2,5-1.6.4,0,.8.2,1,.2.4.2.6.4,1,.6.2.2.6.4.8.6.2.2.6.6.6.8.2.4.4.6.6,1,.2.4.2.6.2,1,.2.4.2.8.2,1.2,0,.8-.2,1.4-.4,2.2-.2.6-.8,1.2-1.2,1.8-.2.2-.6.4-.8.6-.4.2-.6.4-1,.6-.4.2-.8.2-1,.4-.6,0-1,.2-1.4.2h0Z"/>
  <path class="st0" d="M443.4,361h-7.4c-3.2,0-5.6-2.6-5.6-5.6s2.6-5.6,5.6-5.6h7.4c3.2,0,5.6,2.6,5.6,5.6s-2.4,5.6-5.6,5.6Z"/>
  <path class="st0" d="M480.4,361h-7.4c-3.2,0-5.6-2.6-5.6-5.6s2.6-5.6,5.6-5.6h7.4c3.2,0,5.6,2.6,5.6,5.6s-2.4,5.6-5.6,5.6Z"/>
  <path class="st0" d="M458.2,346c-3.2,0-5.6-2.6-5.6-5.6v-7.4c0-3.2,2.6-5.6,5.6-5.6s5.6,2.6,5.6,5.6v7.4c0,3.2-2.4,5.6-5.6,5.6Z"/>
  <path class="st0" d="M458.2,383.2c-3.2,0-5.6-2.6-5.6-5.6v-7.4c0-3.2,2.6-5.6,5.6-5.6s5.6,2.6,5.6,5.6v7.4c0,3-2.4,5.6-5.6,5.6Z"/>
  <path class="st0" d="M103.2,96c-18.4,0-33.2-14.8-33.2-33s14.8-33.2,33.2-33.2,33.2,14.8,33.2,33.2-15,33-33.2,33ZM103.2,41c-12,0-22,9.8-22,22s9.8,22,22,22,22-9.8,22-22-10-22-22-22Z"/>
  <path class="st0" d="M16.2,157c-.8,0-1.4-.2-2.2-.4-.6-.2-1.2-.8-1.8-1.2-1-1-1.6-2.4-1.6-4s.2-1.4.4-2.2c.2-.6.6-1.2,1.2-1.8.6-.6,1.2-1,1.8-1.2,1-.4,2.2-.6,3.2-.2.4,0,.8,0,1.2.2.4.2.6.4,1,.6.4.2.6.4.8.8.6.6,1,1.2,1.2,1.8s.4,1.4.4,2.2,0,.8-.2,1.2-.2.8-.4,1c-.2.4-.4.6-.6,1-.2.2-.4.6-.8.8.2,0-.2.2-.4.4-.2.2-.6.4-1,.6-.4.2-.6.2-1,.2-.4.2-.8.2-1.2.2h0Z"/>
  <path class="st0" d="M47.2,389.4c-1.6,0-3-.6-4-1.6s-1.6-2.4-1.6-4,.2-1.4.4-2.2c.2-.8.6-1.4,1.2-1.8,2.2-2,6-2,8,0,.6.6.8,1.2,1.2,1.8.2.6.4,1.4.4,2.2,0,1.4-.6,3-1.6,4-1,.8-2.4,1.6-4,1.6h0Z"/>
  <path class="st0" d="M462,264.6c-1.4,0-3-.6-4-1.6s-.8-1.2-1.2-1.8c-.2-.8-.4-1.4-.4-2.2,0-1.6.6-3,1.6-4,1.2-1.2,3.2-2,5.2-1.6.4.2.6.2,1,.4s.6.4,1,.6c.2.2.6.4.8.8,1,1,1.6,2.4,1.6,4s-.2,1.4-.4,2.2c-.2.6-.6,1.2-1.2,1.8l-.8.8c-.4.2-.6.4-1,.6s-.6.2-1,.2c-.6-.2-.8-.2-1.2-.2h0Z"/>
  <path class="st0" d="M271.2,51.8c-.4,0-.8,0-1.2-.2-.4-.2-.6-.2-1-.4s-.6-.4-1-.6c-.2-.2-.6-.4-.8-.8-1-1-1.6-2.4-1.6-4s.2-1.6.4-2.2c.2-.6.8-1.2,1.2-1.8.2-.2.6-.6.8-.8.4-.2.6-.4,1-.6.4-.2.6-.2,1-.2.8-.2,1.6-.2,2.2,0,.4,0,.8.2,1,.2.4.2.6.4,1,.6.4.2.6.4.8.8.6.6,1,1.2,1.2,1.8s.4,1.4.4,2.2c0,1.4-.6,3-1.6,4-.2.2-.6.6-.8.8-.2.2-.6.4-1,.6-.4.2-.6.2-1,.4-.2.2-.6.2-1,.2h0Z"/>
  <path class="st0" d="M445,153.2c-18.2,0-33.2-14.8-33.2-33.2s14.8-33.2,33.2-33.2,33.2,14.8,33.2,33.2-15,33.2-33.2,33.2ZM445,98.2c-12,0-22,9.8-22,21.8s9.8,22,22,22,21.8-9.8,21.8-22-9.8-21.8-21.8-21.8Z"/>
  <path class="st0" d="M503,482.4c-1.2,0-2.4-.4-3.4-1.2-30.6-23-72.2-41.2-120.2-52.8-3-.8-4.8-3.8-4.2-6.8.8-3,3.8-4.8,6.8-4.2,49.4,12,92.4,31,124.4,54.8,2.4,1.8,3,5.4,1.2,7.8-1.2,1.6-2.8,2.4-4.6,2.4h0Z"/>
  <path class="st0" d="M8.4,482.4c-1.8,0-3.4-.8-4.6-2.2-1.8-2.4-1.4-6,1.2-7.8,31.8-23.8,74.8-42.8,124.2-54.8,3-.8,6,1.2,6.8,4.2s-1.2,6-4.2,6.8c-48,11.6-89.6,29.8-120.2,52.8-.8.6-2,1-3.2,1Z"/>
  <path class="st0" d="M331.8,195.6c-1.4,0-2.8-.6-4-1.6-2.2-2.2-2.2-5.8,0-8l20.4-20.4c2.2-2.2,5.8-2.2,8,0s2.2,5.8,0,8l-20.4,20.4c-1.2,1.2-2.6,1.6-4,1.6Z"/>
  <path class="st0" d="M324.8,344.6c-37.8,0-75.6-14.6-104.2-43.4-51.4-51.4-57.8-131.2-15.6-190.2,1-1.4,2.4-2.2,4.2-2.4,1.6-.2,3.2.4,4.4,1.6l197.8,197.8c1.2,1.2,1.8,2.8,1.6,4.4-.2,1.6-1,3.2-2.4,4.2-25.8,18.8-55.8,28-85.8,28h0ZM210.4,123.2c-34.8,53.8-27.6,124.4,18.2,170.2s116.4,53,170.2,18.2L210.4,123.2Z"/>
  <path class="st0" d="M338.2,454.6h-176.4c-3.2,0-5.6-2.6-5.6-5.6,0-34.4,28-62.6,62.6-62.6h62.8c34.4,0,62.4,28,62.4,62.6s-2.6,5.6-5.8,5.6h0ZM167.8,443.4h164.6c-2.8-25.6-24.6-45.6-51-45.6h-62.8c-26.2,0-48,20-50.8,45.6h0Z"/>
  <path class="st0" d="M218.6,397.8c-3.2,0-5.6-2.6-5.6-5.6v-62.6c0-3.2,2.6-5.6,5.6-5.6s5.6,2.6,5.6,5.6v62.6c.2,3.2-2.4,5.6-5.6,5.6Z"/>
  <path class="st0" d="M281.4,397.8c-3.2,0-5.6-2.6-5.6-5.6v-37.2c0-3.2,2.6-5.6,5.6-5.6s5.6,2.6,5.6,5.6v37.2c0,3.2-2.4,5.6-5.6,5.6Z"/>
  <path class="st0" d="M129.4,191c-.8,0-1.4-.2-2.2-.4-.6-.2-1.2-.8-1.8-1.2-1-1-1.6-2.4-1.6-4s.2-1.4.4-2.2c.2-.6.8-1.2,1.2-1.8.6-.6,1.2-1,1.8-1.2,2-.8,4.6-.4,6.2,1.2s1,1.2,1.2,1.8.4,1.4.4,2.2-.2,1.4-.4,2.2c-.2.6-.6,1.2-1.2,1.8-.6.6-1.2,1-1.8,1.2-.8.2-1.4.4-2.2.4h0Z"/>
</svg>