<?xml version="1.0" encoding="UTF-8"?>
<svg id="a" xmlns="http://www.w3.org/2000/svg" version="1.1" viewBox="0 0 512 512">
  <!-- Generator: Adobe Illustrator 29.8.1, SVG Export Plug-In . SVG Version: 2.1.1 Build 2)  -->
  <defs>
    <style>
      .st0 {
        fill: #ffde55;
      }
    </style>
  </defs>
  <path class="st0" d="M215.6,66.6h-6.8c-3.2,0-5.6-2.6-5.6-5.6s2.6-5.6,5.6-5.6h6.8c3.2,0,5.6,2.6,5.6,5.6s-2.6,5.6-5.6,5.6Z"/>
  <path class="st0" d="M249.6,66.6h-6.8c-3.2,0-5.6-2.6-5.6-5.6s2.6-5.6,5.6-5.6h6.8c3.2,0,5.6,2.6,5.6,5.6s-2.4,5.6-5.6,5.6Z"/>
  <path class="st0" d="M229.2,53c-3.2,0-5.6-2.6-5.6-5.6v-6.8c0-3.2,2.6-5.6,5.6-5.6s5.6,2.6,5.6,5.6v6.8c0,3.2-2.4,5.6-5.6,5.6Z"/>
  <path class="st0" d="M229.2,87.2c-3.2,0-5.6-2.6-5.6-5.6v-6.8c0-3.2,2.6-5.6,5.6-5.6s5.6,2.6,5.6,5.6v6.8c0,3-2.4,5.6-5.6,5.6Z"/>
  <path class="st0" d="M116.2,75.8c-.8,0-1.4-.2-2.2-.4-.6-.2-1.2-.6-1.8-1.2-.6-.6-1-1.2-1.2-1.8-.2-.6-.4-1.4-.4-2.2,0-1.4.6-3,1.6-4s1.2-.8,1.8-1.2c2-.8,4.6-.4,6.2,1.2l.8.8c.2.4.4.6.6,1s.2.6.2,1c.2.4.2.6.2,1,0,1.4-.6,3-1.6,4-1.2,1-2.6,1.8-4.2,1.8h0Z"/>
  <path class="st0" d="M292,357.6c-1.4,0-3-.6-4-1.6l-129.8-129.8c-8.6-8.6-13.4-20-13.4-32.2s4.8-23.6,13.4-32.2l3.4-3.4c8.6-8.6,20-13.4,32.2-13.4s23.6,4.8,32.2,13.4l130,129.6c1,1,1.6,2.4,1.6,4s-.6,3-1.6,4l-60,60c-1,1-2.4,1.6-4,1.6h0ZM194,156.2c-9.2,0-17.8,3.6-24.2,10l-3.4,3.4c-6.4,6.4-10,15.2-10,24.2s3.6,17.8,10,24.2l125.6,126,52-52-125.8-125.8c-6.4-6.4-15-10-24.2-10h0Z"/>
  <path class="st0" d="M68.4,508.6c-1.4,0-2.8-.6-4-1.6l-60-60c-2.2-2.2-2.2-5.8,0-8l158-158c2.2-2.2,5.8-2.2,8,0l60,60c1,1,1.6,2.4,1.6,4s-.6,3-1.6,4l-158,158c-1.2,1-2.6,1.6-4,1.6ZM16.4,443l52,52,150-150-52-52L16.4,443Z"/>
  <path class="st0" d="M147.4,429.6c-1.4,0-2.8-.6-4-1.6l-60-60c-2.2-2.2-2.2-5.8,0-8s5.8-2.2,8,0l60,60c2.2,2.2,2.2,5.8,0,8-1.2,1-2.6,1.6-4,1.6Z"/>
  <path class="st0" d="M188,389c-1.4,0-2.8-.6-4-1.6l-60-60c-2.2-2.2-2.2-5.8,0-8s5.8-2.2,8,0l60,60c2.2,2.2,2.2,5.8,0,8-1.2,1-2.6,1.6-4,1.6Z"/>
  <path class="st0" d="M106.8,470.2c-1.4,0-2.8-.6-4-1.6l-60-60c-2.2-2.2-2.2-5.8,0-8s5.8-2.2,8,0l60,60c2.2,2.2,2.2,5.8,0,8-1.2,1-2.6,1.6-4,1.6Z"/>
  <path class="st0" d="M345,232c-1.4,0-3-.6-4-1.6l-60-60c-2.2-2.2-2.2-5.8,0-8L439,4.4c2.2-2.2,5.8-2.2,8,0l60,60c2.2,2.2,2.2,5.8,0,8l-158,158c-1.2,1-2.6,1.6-4,1.6ZM293,166.4l52,52,150-150-52-52-150,150Z"/>
  <path class="st0" d="M424,153c-1.4,0-2.8-.6-4-1.6l-60-60c-2.2-2.2-2.2-5.8,0-8s5.8-2.2,8,0l60,60c2.2,2.2,2.2,5.8,0,8-1.2,1-2.6,1.6-4,1.6Z"/>
  <path class="st0" d="M464.6,112.4c-1.4,0-2.8-.6-4-1.6l-60-60c-2.2-2.2-2.2-5.8,0-8s5.8-2.2,8,0l60,60c2.2,2.2,2.2,5.8,0,8-1.2,1-2.6,1.6-4,1.6Z"/>
  <path class="st0" d="M383.4,193.6c-1.4,0-2.8-.6-4-1.6l-60-60c-2.2-2.2-2.2-5.8,0-8s5.8-2.2,8,0l60,60c2.2,2.2,2.2,5.8,0,8-1.2,1-2.6,1.6-4,1.6Z"/>
  <path class="st0" d="M302.2,215c-1.4,0-2.8-.6-4-1.6-2.2-2.2-2.2-5.8,0-8L469.2,34.4c2.2-2.2,5.8-2.2,8,0s2.2,5.8,0,8l-171.2,170.8c-1,1.2-2.4,1.8-3.8,1.8h0Z"/>
  <path class="st0" d="M38.4,478.6c-1.4,0-2.8-.6-4-1.6-2.2-2.2-2.2-5.8,0-8l170.4-170.4c2.2-2.2,5.8-2.2,8,0s2.2,5.8,0,8L42.4,477c-1.2,1-2.6,1.6-4,1.6Z"/>
  <path class="st0" d="M382.6,388.2c-1.4,0-2.8-.6-4-1.6l-34.4-34.4c-2.2-2.2-2.2-5.8,0-8s5.8-2.2,8,0l34.4,34.4c2.2,2.2,2.2,5.8,0,8-1.2,1-2.6,1.6-4,1.6Z"/>
  <path class="st0" d="M314.8,414.4h-.4c-1.6-.2-3.2-1-4.2-2.4-21-29.2-17.8-68.8,7.8-94.2,25.4-25.4,65-28.6,94.2-7.8,1.4,1,2.2,2.4,2.4,4.2.2,1.6-.4,3.2-1.6,4.4l-31,31c-2.2,2.2-5.8,2.2-8,0s-2.2-5.8,0-8l26-26c-24-13.6-54.2-9.8-74.2,10.2s-23.8,50.2-10.2,74.2l26-26c2.2-2.2,5.8-2.2,8,0s2.2,5.8,0,8l-31,31c-1,.8-2.4,1.4-3.8,1.4h0Z"/>
  <path class="st0" d="M226.8,460h-6.8c-3.2,0-5.6-2.6-5.6-5.6s2.6-5.6,5.6-5.6h6.8c3.2,0,5.6,2.6,5.6,5.6s-2.4,5.6-5.6,5.6Z"/>
  <path class="st0" d="M260.8,460h-6.8c-3.2,0-5.6-2.6-5.6-5.6s2.6-5.6,5.6-5.6h6.8c3.2,0,5.6,2.6,5.6,5.6s-2.4,5.6-5.6,5.6Z"/>
  <path class="st0" d="M240.4,446.4c-3.2,0-5.6-2.6-5.6-5.6v-6.8c0-3.2,2.6-5.6,5.6-5.6s5.6,2.6,5.6,5.6v6.8c0,3.2-2.4,5.6-5.6,5.6Z"/>
  <path class="st0" d="M240.4,480.6c-3.2,0-5.6-2.6-5.6-5.6v-7c0-3.2,2.6-5.6,5.6-5.6s5.6,2.6,5.6,5.6v6.8c0,3.2-2.4,5.8-5.6,5.8h0Z"/>
  <path class="st0" d="M458.8,261.4c-17,0-31-13.8-31-31s13.8-31,31-31,31,13.8,31,31-14,31-31,31ZM458.8,210.8c-10.8,0-19.6,8.8-19.6,19.6s8.8,19.6,19.6,19.6,19.6-8.8,19.6-19.6-8.8-19.6-19.6-19.6Z"/>
  <path class="st0" d="M65.4,216.4c-17,0-31-13.8-31-31s13.8-31,31-31,31,13.8,31,31-14,31-31,31ZM65.4,165.8c-10.8,0-19.6,8.8-19.6,19.6s8.8,19.6,19.6,19.6,19.6-8.8,19.6-19.6-8.8-19.6-19.6-19.6Z"/>
  <path class="st0" d="M436.6,464.4c-.8,0-1.4-.2-2.2-.4s-1.2-.8-1.8-1.2c-.6-.6-1-1.2-1.2-1.8-.2-.6-.4-1.4-.4-2.2s.2-1.4.4-2.2c.2-.6.6-1.2,1.2-1.8,2-2.2,5.8-2.2,8,0s1,1.2,1.2,1.8c.2.6.4,1.4.4,2.2s-.2,1.4-.4,2.2-.8,1.4-1.2,1.8c-.6.6-1.2,1-1.8,1.2-.6.4-1.4.4-2.2.4Z"/>
  <path class="st0" d="M26.4,328.6c-.8,0-1.4-.2-2.2-.4-.6-.2-1.2-.6-1.8-1.2-1-1-1.6-2.4-1.6-4s.2-1.4.4-2.2c.2-.8.6-1.4,1.2-1.8,2-2,5.8-2,8,0,.6.6,1,1.2,1.2,1.8.2.6.4,1.4.4,2.2,0,1.6-.6,3-1.6,4-1.2,1-2.6,1.6-4,1.6h0Z"/>
  <path class="st0" d="M481.6,362.4c-.8,0-1.4-.2-2.2-.4-.6-.2-1.2-.6-1.8-1.2-1-1.2-1.6-2.6-1.6-4s.2-1.4.4-2.2.6-1.4,1.2-1.8c.6-.6,1.2-.8,1.8-1.2,2-.8,4.6-.4,6.2,1.2s1,1.2,1.2,1.8c.2.6.4,1.4.4,2.2,0,1.4-.6,2.8-1.6,4-1,1-2.6,1.6-4,1.6h0Z"/>
</svg>