<?xml version="1.0" encoding="UTF-8"?>
<svg id="Layer_1" xmlns="http://www.w3.org/2000/svg" version="1.1" viewBox="0 0 512 512">
  <!-- Generator: Adobe Illustrator 29.8.1, SVG Export Plug-In . SVG Version: 2.1.1 Build 2)  -->
  <defs>
    <style>
      .st0 {
        fill: #ffdd4f;
      }

      .st1 {
        fill: #03040a;
        stroke: #000;
        stroke-miterlimit: 10;
      }
    </style>
  </defs>
  <rect class="st1" width="512" height="512"/>
  <path class="st0" d="M255.2,31c-16.3,0-31.1,11.3-32.3,27.1h-47.4c-14,0-27.4,9.8-27.4,24.4v17.8c0,14.6,13.5,24.4,27.4,24.4h161.1c14,0,27.4-9.8,27.4-24.4v-17.8c0-14.6-13.5-24.4-27.4-24.4h-47.4c-1.3-15.9-15.9-27.1-32.3-27.1h-1.6ZM255.2,51.5h1.6c7.9,0,12.4,4.6,12.4,8.6v8.2c0,5.7,4.6,10.1,10.1,10.1h57.2c4.9,0,7,2.7,7,4v17.8c0,1.3-2.1,4-7,4h-161.1c-4.9,0-7-2.7-7-4v-17.8c0-1.3,2.1-4,7-4h57.2c5.7,0,10.1-4.6,10.1-10.1v-8.2c0-4,4.3-8.6,12.4-8.6h0ZM115.1,89.4c-2.7.3-5.1,1.6-6.7,3.6-7.6,9-10.9,20.9-10.9,33.5v308.1c0,25.5,20.8,46.5,46.1,46.5h224.7c25.5,0,46.1-20.9,46.1-46.5V126.5c0-12.4-3.2-24.4-10.9-33.5-3.6-4.3-10.1-4.9-14.4-1.3s-4.9,10.1-1.3,14.4c3.6,4.3,6,11.3,6,20.1v308.1c0,14.6-11.3,26-25.7,26h-224.7c-14.4,0-25.7-11.4-25.7-26V126.3c0-8.9,2.5-15.9,6-20.1,2.9-3.2,3.3-7.8,1.4-11.6-2.1-3.8-6.2-5.9-10.3-5.4h0l.2.2ZM174.2,172c-16.2,0-29.7,13.3-29.7,29.5v2.1c0,16.3,13.5,29.7,29.7,29.7h2.1c16.3,0,29.5-13.5,29.5-29.7v-2.1c0-16.2-13.3-29.5-29.5-29.5h-2.1ZM174.2,192.4h2.1c5.4,0,9,3.8,9,9v2.1c0,5.4-3.8,9.2-9,9.2h-2.1c-5.2,0-9.2-4-9.2-9.2v-2.1c0-5.2,4-9,9.2-9ZM232.7,192.4c-2.7,0-5.2,1.3-7.1,3.3s-2.9,4.6-2.7,7.3c0,2.7,1.3,5.2,3.3,7.1s4.6,2.9,7.3,2.7h123.7c2.7,0,5.4-1,7.3-3,1.9-1.9,3-4.6,3-7.3s-1.1-5.4-3-7.3c-1.9-1.9-4.6-3-7.3-3h-124.6l.2.2ZM202.4,252c-3,.3-5.7,1.9-7.5,4.3l-22.7,30.6-8.6-12.7c-1.4-2.5-3.8-4.3-6.5-4.9-2.9-.6-5.7,0-8.1,1.4-2.4,1.6-4,4.1-4.4,7s.3,5.7,2.1,7.9l16.6,24.7c1.9,2.9,4.9,4.4,8.2,4.6,3.3,0,6.5-1.6,8.4-4.3l31.4-42.3c2.5-3.2,2.9-7.6,1-11.1-1.9-3.5-5.9-5.7-9.8-5.2h-.2ZM232.7,279.8c-2.7,0-5.2,1.3-7.1,3.3-1.9,2.1-2.9,4.6-2.7,7.3,0,2.7,1.3,5.2,3.3,7.1s4.6,2.9,7.3,2.7h123.7c2.7,0,5.4-1,7.3-3,1.9-1.9,3-4.6,3-7.3s-1.1-5.4-3-7.3c-1.9-1.9-4.6-3-7.3-3h-124.6l.2.2ZM174.2,346.7c-16.3,0-29.7,13.5-29.7,29.7v2.1c0,16.3,13.5,29.5,29.7,29.5h2.1c16.2,0,29.5-13.3,29.5-29.5v-2.1c0-16.2-13.3-29.7-29.5-29.7h-2.1ZM174.2,367.2h2.1c5.2,0,9,4,9,9.2v2.1c0,5.4-3.8,9-9,9h-2.1c-5.4,0-9.2-3.8-9.2-9v-2.1c0-5.2,4-9.2,9.2-9.2ZM233.7,367.2c-2.7,0-5.4,1-7.3,3-1.9,1.9-3,4.6-3,7.3s1.1,5.4,3,7.3,4.6,3,7.3,3h123.7c2.7,0,5.4-1,7.3-3,1.9-1.9,3-4.6,3-7.3s-1.1-5.4-3-7.3c-1.9-1.9-4.6-3-7.3-3h-123.7Z"/>
</svg>