<?xml version="1.0" encoding="UTF-8"?>
<svg id="Layer_1" xmlns="http://www.w3.org/2000/svg" version="1.1" viewBox="0 0 512 512">
  <!-- Generator: Adobe Illustrator 29.8.1, SVG Export Plug-In . SVG Version: 2.1.1 Build 2)  -->
  <defs>
    <style>
      .st0 {
        fill: #f6df68;
      }
    </style>
  </defs>
  <path class="st0" d="M54.4,66.1c-15.6,0-28.3-12.8-28.3-28.3s12.8-28.3,28.3-28.3,28.3,12.8,28.3,28.3-12.8,28.3-28.3,28.3ZM54.4,20.5c-9.3,0-17,7.7-17,17s7.7,17,17,17,17-7.7,17-17-7.7-17-17-17Z"/>
  <path class="st0" d="M455.6,452c-15.6,0-28.3-12.8-28.3-28.3s12.8-28.3,28.3-28.3,28.3,12.8,28.3,28.3-12.8,28.3-28.3,28.3ZM455.6,406.4c-9.3,0-17,7.7-17,17s7.7,17,17,17,17-7.7,17-17-7.7-17-17-17Z"/>
  <path class="st0" d="M14.9,210.7c-1.6,0-3-.6-4-1.6s-1.6-2.6-1.6-4,0-.8.2-1c0-.4.2-.8.2-1,.2-.4.4-.6.6-1,.2-.4.4-.6.8-.8.6-.6,1.2-.8,1.8-1.2,1.4-.6,3-.6,4.5,0,.6.2,1.2.6,1.8,1.2,1,1,1.6,2.6,1.6,4s-.6,3-1.6,4c-1.4.8-2.8,1.4-4.3,1.4h0Z"/>
  <path class="st0" d="M335.8,465.7c-.8,0-1.4-.2-2.2-.4s-1.2-.6-1.8-1.2c-1-1-1.6-2.4-1.6-4s.2-1.4.4-2.2c.2-.6.6-1.2,1.2-1.8.6-.6,1.2-1,1.8-1.2,2-.8,4.7-.4,6.3,1.2.6.6.8,1.2,1.2,1.8.2.6.4,1.4.4,2.2,0,1.4-.6,2.8-1.6,4-1.2,1-2.6,1.6-4,1.6h0Z"/>
  <path class="st0" d="M249.1,13.3c-1.6,0-3-.6-4-1.6s-1.6-2.4-1.6-4,.6-3,1.6-4c2-2.2,5.9-2.2,8.1,0,1,1,1.6,2.4,1.6,4s-.6,3-1.6,4-2.6,1.6-4,1.6h-.1Z"/>
  <path class="st0" d="M12.7,439.8h-7.3c-3.2,0-5.7-2.6-5.7-5.7s2.6-5.7,5.7-5.7h7.3c3.2,0,5.7,2.6,5.7,5.7s-2.4,5.7-5.7,5.7Z"/>
  <path class="st0" d="M49.3,439.8h-7.3c-3.2,0-5.7-2.6-5.7-5.7s2.6-5.7,5.7-5.7h7.3c3.2,0,5.7,2.6,5.7,5.7s-2.6,5.7-5.7,5.7Z"/>
  <path class="st0" d="M27.2,425.3c-3.2,0-5.7-2.6-5.7-5.7v-7.3c0-3.2,2.6-5.7,5.7-5.7s5.7,2.6,5.7,5.7v7.3c.2,3-2.4,5.7-5.7,5.7Z"/>
  <path class="st0" d="M27.2,461.9c-3.2,0-5.7-2.6-5.7-5.7v-7.3c0-3.2,2.6-5.7,5.7-5.7s5.7,2.6,5.7,5.7v7.3c.2,3-2.4,5.7-5.7,5.7Z"/>
  <path class="st0" d="M413.7,69.5h-7.3c-3.2,0-5.7-2.6-5.7-5.7s2.6-5.7,5.7-5.7h7.3c3.2,0,5.7,2.6,5.7,5.7s-2.4,5.7-5.7,5.7Z"/>
  <path class="st0" d="M450.4,69.5h-7.3c-3.2,0-5.7-2.6-5.7-5.7s2.6-5.7,5.7-5.7h7.3c3.2,0,5.7,2.6,5.7,5.7s-2.6,5.7-5.7,5.7Z"/>
  <path class="st0" d="M428.3,55c-3.2,0-5.7-2.6-5.7-5.7v-7.3c0-3.2,2.6-5.7,5.7-5.7s5.7,2.6,5.7,5.7v7.3c.2,3-2.4,5.7-5.7,5.7Z"/>
  <path class="st0" d="M428.3,91.6c-3.2,0-5.7-2.6-5.7-5.7v-7.3c0-3.2,2.6-5.7,5.7-5.7s5.7,2.6,5.7,5.7v7.3c.2,3-2.4,5.7-5.7,5.7Z"/>
  <path class="st0" d="M93,331.5c-1.8,0-3.8-1-4.9-2.8-22.7-37.5-28.7-83-16.6-124.9,8.7-30.2,25.9-56.9,50-76.9,20.2-16.8,44.5-28.5,70.2-33.6,24.3-4.9,50-3.8,73.9,3.2,24.1,6.9,45.8,19.2,64,36.2,2.2,2.2,2.4,5.7.2,8.1-2.2,2.2-5.7,2.4-8.1.2-16.8-15.8-36.8-27.1-59.3-33.6-22.7-6.5-45.8-7.5-68.6-3-23.9,4.9-46.4,15.6-65.2,31.2-22.3,18.6-38.3,43.3-46.4,71.3-11.1,38.9-5.7,81.2,15.4,115.8,1.6,2.6.8,6.3-1.8,7.9-.8.6-1.8,1-2.8,1h0Z"/>
  <path class="st0" d="M222.4,404.2c-14.6,0-29.2-2-43.3-6.1-13-3.6-25.1-9.1-36.6-15.8-2.6-1.6-3.6-5.1-2-7.7s5.1-3.6,7.7-2c10.5,6.3,22.1,11.1,34,14.6,38.7,11.1,80.6,5.7,115-15,2.6-1.6,6.3-.8,7.9,2,1.6,2.6.8,6.3-2,7.9-24.5,14.6-52.4,22.1-80.6,22.1h-.1Z"/>
  <path class="st0" d="M57.8,371.2c-16.8,0-29.2-4.3-34.6-13.8-8.1-14.6,2.4-37.5,30.6-65.8,2.2-2.2,5.9-2.2,8.1,0s2.2,5.9,0,8.1c-23.1,23.5-33.8,42.9-28.7,52.2,9.7,17.4,77.1,7.9,173.1-38.7,2.8-1.4,6.3-.2,7.7,2.6,1.4,2.8.2,6.3-2.6,7.7-55.9,26.9-116,47.6-153.5,47.6h0Z"/>
  <path class="st0" d="M134.7,285c-2.2,0-4.5-1.4-5.3-3.6-18.6-51,7.9-107.7,58.9-126.3,3-1,6.3.4,7.3,3.4s-.4,6.3-3.4,7.3c-45.1,16.4-68.4,66.6-52,111.8,1,3-.4,6.3-3.4,7.3-.8,0-1.4.2-2,.2h-.1Z"/>
  <path class="st0" d="M329.1,305.6c-2,0-3.8-1-4.9-2.8l-36-62.2c-1.2-2-1-4.5.4-6.3,17-22.5,41.3-43.1,69.6-59.5,55.3-32,115-41.1,148.8-22.9,1.8,1,3,3,3,5.1-1,38.5-38.7,85.6-93.9,117.6-28.5,16.4-58.3,27.1-86.4,30.8,0,0-.2.2-.6.2h0ZM300.1,238.2l32.2,55.5c25.5-3.8,52.4-13.8,78.3-28.7,49.4-28.5,84.8-71.1,88.1-104.5-30.8-14-85.2-4.3-134.4,24.3-26.1,14.8-48.2,33.2-64.2,53.4h0Z"/>
  <path class="st0" d="M329.3,359.3c-1,0-2-.2-2.8-.8-1.8-1-2.8-2.8-2.8-4.9l-.2-53.6c0-2.8,2-5.3,5.1-5.7,19.6-2.4,40.9-8.9,61.7-18.6,2.2-1,4.7-.6,6.5,1.2,1.6,1.6,2.2,4.3,1.2,6.5l-22.5,49.2c-.4,1-1.2,2-2.2,2.6l-40.7,23.5c-1.2.2-2.2.6-3.2.6h-.1ZM335,304.8v38.9l30.6-17.6,15.6-34.2c-15.6,6.1-31.4,10.5-46.2,13h0Z"/>
  <path class="st0" d="M293.3,243.5c-1,0-2-.2-2.8-.8l-46.6-26.9c-1.8-1-2.8-2.8-2.8-4.9s1-3.8,2.8-4.9l40.7-23.5c1-.6,2.2-.8,3.4-.8l53.9,5.1c2.4.2,4.5,1.8,5.1,4.3.6,2.2-.2,4.7-2.2,6.1-18.8,13.2-35,28.5-47,44.1-1,1.4-2.8,2.2-4.5,2.2h0ZM258,210.9l33.6,19.4c9.5-11.7,21.3-23.3,34.4-33.6l-37.5-3.4-30.6,17.6h.1Z"/>
  <path class="st0" d="M407.8,246.3c-11.5,0-22.7-5.9-29-16.6-4.5-7.7-5.7-16.8-3.4-25.3,2.2-8.7,7.9-15.8,15.6-20.2,7.7-4.5,16.8-5.7,25.3-3.4,8.7,2.2,15.8,7.9,20.2,15.6,4.5,7.7,5.7,16.6,3.4,25.3-2.2,8.7-7.9,15.8-15.6,20.2-5.3,3-10.9,4.5-16.6,4.5h.1ZM396.7,193.9c-5.1,3-8.7,7.7-10.3,13.4-1.4,5.7-.8,11.5,2.2,16.6,6.1,10.5,19.6,14.2,30,8.1,5.1-3,8.7-7.7,10.3-13.4,1.6-5.7.8-11.5-2.2-16.6s-7.7-8.7-13.4-10.3c-5.5-1.4-11.5-.8-16.6,2.2h0Z"/>
  <path class="st0" d="M267.1,309.2c-5.5,0-10.3-1-14.4-3.2-1.8-1-3-3-3-5.1.4-12.5,11.7-27.3,29.2-37.3,8.7-5.1,17.8-8.3,26.3-9.3,2.2-.2,4.5.8,5.7,2.8l10.3,17.8c1.2,2,1,4.5-.4,6.3-5.3,6.9-12.5,13.2-21.3,18.2-11.1,6.3-22.7,9.7-32.4,9.7h0ZM261.9,297.3c7.3,1.6,19.4-.4,32-7.7,6.1-3.4,11.5-7.9,15.6-12.3l-6.5-11.1c-6.1,1.2-12.5,3.8-18.4,7.3-12.6,7.3-20.5,16.8-22.7,23.9h0Z"/>
  <path class="st0" d="M506,320.4c-1.6,0-3-.6-4-1.6s-.8-1.2-1.2-1.8c-.4-.6-.4-1.4-.4-2.2s.2-1.4.4-2.2c.2-.6.6-1.2,1.2-1.8,2-2.2,6.1-2.2,8.1,0,.6.6.8,1.2,1.2,1.8.2.6.4,1.4.4,2.2,0,1.6-.6,3-1.6,4s-2.4,1.6-4,1.6h-.1Z"/>
  <path class="st0" d="M147.7,509.7c-1.4,0-2.8-.6-4-1.6-1-1-1.6-2.4-1.6-4s.6-3,1.6-4l.8-.8c.2-.2.6-.4,1-.6s.6-.2,1-.2c1-.2,2.2-.2,3.2.2.6.2,1.2.8,1.8,1.2,1,1,1.6,2.4,1.6,4s-.2,1.4-.4,2.2c-.2.6-.8,1.2-1.2,1.8-.6.6-1.2,1-1.8,1.2-.6.4-1.2.6-2,.6h0Z"/>
</svg>