<?xml version="1.0" encoding="UTF-8"?>
<svg id="Layer_1" xmlns="http://www.w3.org/2000/svg" version="1.1" viewBox="0 0 512 512">
  <!-- Generator: Adobe Illustrator 29.8.1, SVG Export Plug-In . SVG Version: 2.1.1 Build 2)  -->
  <defs>
    <style>
      .st0 {
        fill: #ffde55;
      }
    </style>
  </defs>
  <path class="st0" d="M60.3,230.1h-7.4c-3.2,0-5.6-2.6-5.6-5.6s2.6-5.6,5.6-5.6h7.4c3.2,0,5.6,2.6,5.6,5.6s-2.4,5.6-5.6,5.6Z"/>
  <path class="st0" d="M97.6,230.1h-7.4c-3.2,0-5.6-2.6-5.6-5.6s2.6-5.6,5.6-5.6h7.4c3.2,0,5.6,2.6,5.6,5.6s-2.6,5.6-5.6,5.6Z"/>
  <path class="st0" d="M75.2,215.2c-3.2,0-5.6-2.6-5.6-5.6v-7.4c0-3.2,2.6-5.6,5.6-5.6s5.6,2.6,5.6,5.6v7.4c0,3-2.6,5.6-5.6,5.6Z"/>
  <path class="st0" d="M75.2,252.4c-3.2,0-5.6-2.6-5.6-5.6v-7.4c0-3.2,2.6-5.6,5.6-5.6s5.6,2.6,5.6,5.6v7.4c0,3-2.6,5.6-5.6,5.6Z"/>
  <path class="st0" d="M454,39.3c-.8,0-1.4-.2-2.3-.5-.6-.2-1.2-.8-1.8-1.2-.6-.6-1.1-1.2-1.2-1.8-.2-.6-.5-1.4-.5-2.3,0-1.4.6-3,1.7-4.1,1.2-1.4,3.2-2,5-1.7.5.2.8.2,1.1.5.5.2.6.5,1.1.6.5.2.6.5.8.8,1.1,1.1,1.7,2.4,1.7,4.1s-.2,1.4-.5,2.3c-.2.8-.6,1.4-1.2,1.8-1.1.8-2.4,1.4-3.8,1.4h0v.2h-.1Z"/>
  <path class="st0" d="M228.2,139.7h-7.4c-3.2,0-5.6-2.6-5.6-5.6s2.6-5.6,5.6-5.6h7.4c3.2,0,5.6,2.6,5.6,5.6s-2.4,5.6-5.6,5.6Z"/>
  <path class="st0" d="M265.6,139.7h-7.4c-3.2,0-5.6-2.6-5.6-5.6s2.6-5.6,5.6-5.6h7.4c3.2,0,5.6,2.6,5.6,5.6s-2.4,5.6-5.6,5.6Z"/>
  <path class="st0" d="M243.3,124.8c-3.2,0-5.6-2.6-5.6-5.6v-7.4c0-3.2,2.6-5.6,5.6-5.6s5.6,2.6,5.6,5.6v7.4c0,3-2.6,5.6-5.6,5.6Z"/>
  <path class="st0" d="M243.3,162.2c-3.2,0-5.6-2.6-5.6-5.6v-7.4c0-3.2,2.6-5.6,5.6-5.6s5.6,2.6,5.6,5.6v7.4c0,3-2.6,5.6-5.6,5.6Z"/>
  <path class="st0" d="M102.4,95.3c-18.4,0-33.4-15-33.4-33.4s15-33.4,33.4-33.4,33.4,15,33.4,33.4-15,33.4-33.4,33.4ZM102.4,39.9c-12.2,0-22,9.9-22,22s9.9,22,22,22,22-9.9,22-22-9.9-22-22-22Z"/>
  <path class="st0" d="M14.9,156.7c-.5,0-.8,0-1.1-.2-.5-.2-.8-.2-1.1-.5-.5-.2-.6-.5-1.1-.6-.5,0-.8-.5-1.1-.6-.6-.6-.8-1.2-1.2-1.8-.2-.8-.5-1.4-.5-2.3,0-1.4.6-3,1.7-4.1.2-.2.6-.6.8-.8s.6-.5,1.1-.6c.5-.2.6-.2,1.1-.5,1.1-.2,2.3,0,3.2.5.8.2,1.4.6,1.8,1.2.2.2.6.6.6.8.2.2.5.6.6,1.1s.2.6.2,1.1c.2.5.2.8.2,1.1,0,.8-.2,1.4-.5,2.3-.5.6-.8,1.2-1.2,1.8s-1.2,1.1-1.8,1.2c-.6.8-1.4,1.1-2,1.1h0s.3-.2.3-.2Z"/>
  <path class="st0" d="M46.1,390c-.8,0-1.4-.2-2.3-.5-.6-.2-1.2-.6-1.8-1.2-1.1-1.1-1.7-2.4-1.7-4.1s.2-1.4.5-2.3c.2-.6.6-1.2,1.2-1.8,1.7-1.7,4.1-2,6.2-1.2.8.2,1.2.6,1.8,1.2s.8,1.2,1.2,1.8c.5.6.5,1.4.5,2.3,0,1.7-.6,3-1.7,4.1-1.2,1.1-2.6,1.7-4.1,1.7,0,0,.2,0,.2,0Z"/>
  <path class="st0" d="M463.1,338.5c-.8,0-1.4-.2-2.3-.5-.6-.5-1.2-.8-1.8-1.2-.6-.6-1.1-1.2-1.2-1.8-.2-.6-.5-1.4-.5-2.3,0-1.4.6-3,1.7-4.1,2-2,5.9-2,8.1,0,1.1,1.1,1.7,2.6,1.7,4.1s-.6,3-1.7,4.1-1.2.8-1.8,1.2c-.6.5-1.4.5-2.3.5h.2-.1Z"/>
  <path class="st0" d="M505.9,483.5c-1.4,0-2.9-.6-3.8-1.7-26.1-24.5-73.5-44.4-133.2-55.6-3-.6-5-3.6-4.4-6.7s3.5-5,6.7-4.4c61.7,11.7,111.1,32.7,138.7,58.6,2.3,2.3,2.4,5.6.2,8.1-1.1,1.1-2.6,1.7-4.1,1.7h-.1Z"/>
  <path class="st0" d="M309.5,418.3h-.5c-7.1-.6-14.6-1.1-21.9-1.4-3.2-.2-5.5-2.9-5.5-5.9s2.9-5.5,5.9-5.5c7.4.5,15,.8,22.3,1.4,3,.2,5.5,3,5.3,6.1s-2.6,5.3-5.6,5.3h-.2.2Z"/>
  <path class="st0" d="M220.9,416.9c-3,0-5.5-2.4-5.6-5.5-.2-3,2.3-5.9,5.5-6.1,3-.2,5.9-.2,9-.5,4.1-.2,8.4-.2,12.6-.5,3.2,0,5.6,2.4,5.9,5.6,0,3.2-2.4,5.6-5.6,5.9-4.1,0-8.1.2-12.3.5-3,.2-5.9.2-8.7.5h-.8,0Z"/>
  <path class="st0" d="M5.4,483.5c-1.4,0-3-.6-4.1-1.8-2.3-2.3-2-5.9.2-8.1,31.1-29.3,90.2-52,162.4-62.6,3-.5,6.1,1.7,6.5,4.9.5,3-1.7,6.1-4.9,6.5-69.9,10.2-126.7,32.1-156.3,59.6-1.1,1.2-2.4,1.7-3.8,1.7h0s0-.2,0-.2Z"/>
  <path class="st0" d="M317.5,306.5c-2.4,0-4.7-1.7-5.5-4.1-1.1-3,.6-6.2,3.6-7.1l100.9-32.4-20.5-64-149.6,48.2,5.3,16.3c1.1,3-.6,6.2-3.6,7.1-3,1.1-6.2-.6-7.1-3.6l-6.8-21.7c-1.1-3,.6-6.2,3.6-7.1l160.6-51.7c1.4-.5,3-.5,4.3.5,1.4.6,2.4,1.8,2.9,3.2l24.2,74.7c1.1,3-.6,6.2-3.6,7.1l-106.3,34.2c-.8.2-1.4.5-2,.5h-.4Z"/>
  <path class="st0" d="M167.8,343.9c-.8,0-1.8-.2-2.6-.6-1.4-.6-2.4-1.8-2.9-3.2l-17.8-55.3c-1.1-3,.6-6.2,3.6-7.1l92.5-29.8c3-1.1,6.2.6,7.1,3.6,1.1,3-.6,6.2-3.6,7.1l-87.1,28,14.1,44.4,38.3-12.3c3-1.1,6.2.6,7.1,3.6,1.1,3-.6,6.2-3.6,7.1l-43.8,14c-.2.5-.8.6-1.4.6h0l-.2-.2h.3Z"/>
  <path class="st0" d="M99.5,355.4c-2.4,0-4.7-1.7-5.5-4.1l-11.7-36.6c-.5-1.4-.5-3,.5-4.3.6-1.4,1.8-2.4,3.2-2.9l65.2-21.1c3-1.1,6.2.6,7.1,3.6,1.1,3-.6,6.2-3.6,7.1l-59.7,19.4,8.4,25.7,59.9-19.3c3-1.1,6.2.6,7.1,3.6,1.1,3-.6,6.2-3.6,7.1l-65.3,21.3c-.6.2-1.2.2-1.7.2h0l-.2.2h-.1Z"/>
  <path class="st0" d="M264.7,351.3c-5.3,0-10.3-1.2-15.2-3.6-7.9-4.1-13.8-10.9-16.6-19.4-2.9-8.5-2-17.6,2-25.5s10.9-13.8,19.4-16.6c17.6-5.6,36.5,4.1,41.9,21.4,2.6,8.5,2,17.6-2,25.5s-10.9,13.8-19.4,16.6c-3.2,1.1-6.7,1.7-10.2,1.7h.1ZM264.7,295.8c-2.3,0-4.4.5-6.7,1.1-5.6,1.8-10.2,5.6-12.8,10.9s-3.2,11.1-1.4,16.9c1.8,5.6,5.6,10.2,10.9,12.8,5.3,2.6,11.1,3.2,16.9,1.4,5.6-1.8,10.2-5.6,12.8-10.9,2.6-5.3,3.2-11.1,1.4-16.9-3-9.1-11.7-15.2-21.1-15.2h0Z"/>
  <path class="st0" d="M264.7,454.8c-3.2,0-5.6-2.6-5.6-5.6v-79.8c0-3.2,2.6-5.6,5.6-5.6s5.6,2.6,5.6,5.6v79.8c0,3-2.4,5.6-5.6,5.6h0Z"/>
  <path class="st0" d="M168.2,454.8c-1.2,0-2.4-.5-3.5-1.1-2.6-1.8-3-5.5-1.2-7.9l64.6-87.8c1.8-2.4,5.5-3,7.9-1.2,2.6,1.8,3,5.5,1.2,7.9l-64.4,87.7c-1.2,1.7-2.9,2.4-4.7,2.4h.2,0Z"/>
  <path class="st0" d="M364.3,454.8c-1.8,0-3.5-.8-4.7-2.3l-64.6-87.8c-1.8-2.4-1.4-6.1,1.2-7.9s6.1-1.2,7.9,1.2l64.6,87.8c1.8,2.4,1.4,6.1-1.2,7.9-1.1.6-2,1.1-3.2,1.1h0Z"/>
  <path class="st0" d="M328.3,56.4c-1.4,0-3-.6-4.1-1.7s-1.7-2.4-1.7-4.1.2-1.4.5-2.3c.2-.6.6-1.2,1.2-1.8,2-2,5.9-2,8.1,0,.6.6.8,1.2,1.2,1.8.2.8.5,1.4.5,2.3s-.2,1.4-.5,2.3c-.2.6-.6,1.2-1.2,1.8-1.2,1.1-2.6,1.7-4.1,1.7h.2-.1Z"/>
  <path class="st0" d="M463.1,164.1c-18.4,0-33.4-15-33.4-33.4s15-33.4,33.4-33.4,33.4,15,33.4,33.4-15,33.4-33.4,33.4ZM463.1,108.7c-12.2,0-22,9.9-22,22s9.9,22,22,22,22-9.9,22-22-9.9-22-22-22Z"/>
  <path class="st0" d="M264.7,323.6c-1.7,0-3-.6-4.1-1.7s-1.7-2.4-1.7-4.1.6-3,1.7-4.1,3.2-1.8,5-1.7c.5,0,.8.2,1.1.5.5.2.6.2,1.1.6.2.2.6.5.8.6,1.1,1.1,1.7,2.6,1.7,4.1s-.6,3-1.7,4.1c-.8,1.1-2.3,1.7-3.8,1.7h-.1Z"/>
</svg>