<?xml version="1.0" encoding="UTF-8"?>
<svg id="Layer_1" xmlns="http://www.w3.org/2000/svg" version="1.1" viewBox="0 0 512 512">
  <!-- Generator: Adobe Illustrator 29.8.1, SVG Export Plug-In . SVG Version: 2.1.1 Build 2)  -->
  <defs>
    <style>
      .st0 {
        fill: #ffdd4f;
      }
    </style>
  </defs>
  <path class="st0" d="M255.5,114.1c-10.3,0-19.6,7.1-20.4,17.1h-29.9c-8.8,0-17.3,6.2-17.3,15.4v11.2c0,9.2,8.5,15.4,17.3,15.4h101.6c8.8,0,17.3-6.2,17.3-15.4v-11.2c0-9.2-8.5-15.4-17.3-15.4h-29.9c-.8-10-10-17.1-20.4-17.1h-1ZM255.5,127h1c5,0,7.8,2.9,7.8,5.4v5.2c0,3.6,2.9,6.4,6.4,6.4h36.1c3.1,0,4.4,1.7,4.4,2.5v11.2c0,.8-1.3,2.5-4.4,2.5h-101.6c-3.1,0-4.4-1.7-4.4-2.5v-11.2c0-.8,1.3-2.5,4.4-2.5h36.1c3.6,0,6.4-2.9,6.4-6.4v-5.2c0-2.5,2.7-5.4,7.8-5.4h0ZM167.1,150.9c-1.7.2-3.2,1-4.2,2.3-4.8,5.7-6.9,13.2-6.9,21.1v194.3c0,16.1,13.1,29.3,29.1,29.3h141.7c16.1,0,29.1-13.2,29.1-29.3v-194.3c0-7.8-2-15.4-6.9-21.1-2.3-2.7-6.4-3.1-9.1-.8s-3.1,6.4-.8,9.1c2.3,2.7,3.8,7.1,3.8,12.7v194.3c0,9.2-7.1,16.4-16.2,16.4h-141.7c-9.1,0-16.2-7.2-16.2-16.4v-194.3c0-5.6,1.6-10,3.8-12.7,1.8-2,2.1-4.9.9-7.3-1.3-2.4-3.9-3.7-6.5-3.4h0ZM204.4,203c-10.2,0-18.7,8.4-18.7,18.6v1.3c0,10.3,8.5,18.7,18.7,18.7h1.3c10.3,0,18.6-8.5,18.6-18.7v-1.3c0-10.2-8.4-18.6-18.6-18.6h-1.3ZM204.4,215.9h1.3c3.4,0,5.7,2.4,5.7,5.7v1.3c0,3.4-2.4,5.8-5.7,5.8h-1.3c-3.3,0-5.8-2.5-5.8-5.8v-1.3c0-3.3,2.5-5.7,5.8-5.7ZM241.3,215.9c-1.7,0-3.3.8-4.5,2.1s-1.8,2.9-1.7,4.6c0,1.7.8,3.3,2.1,4.5s2.9,1.8,4.6,1.7h78c1.7,0,3.4-.6,4.6-1.9,1.2-1.2,1.9-2.9,1.9-4.6s-.7-3.4-1.9-4.6c-1.2-1.2-2.9-1.9-4.6-1.9h-78.6,0ZM222.2,253.5c-1.9.2-3.6,1.2-4.7,2.7l-14.3,19.3-5.4-8c-.9-1.6-2.4-2.7-4.1-3.1-1.8-.4-3.6,0-5.1.9-1.5,1-2.5,2.6-2.8,4.4s.2,3.6,1.3,5l10.5,15.6c1.2,1.8,3.1,2.8,5.2,2.9,2.1,0,4.1-1,5.3-2.7l19.8-26.7c1.6-2,1.8-4.8.6-7-1.2-2.2-3.7-3.6-6.2-3.3h-.1ZM241.3,271c-1.7,0-3.3.8-4.5,2.1-1.2,1.3-1.8,2.9-1.7,4.6,0,1.7.8,3.3,2.1,4.5s2.9,1.8,4.6,1.7h78c1.7,0,3.4-.6,4.6-1.9,1.2-1.2,1.9-2.9,1.9-4.6s-.7-3.4-1.9-4.6c-1.2-1.2-2.9-1.9-4.6-1.9h-78.6,0ZM204.4,313.2c-10.3,0-18.7,8.5-18.7,18.7v1.3c0,10.3,8.5,18.6,18.7,18.6h1.3c10.2,0,18.6-8.4,18.6-18.6v-1.3c0-10.2-8.4-18.7-18.6-18.7h-1.3ZM204.4,326.1h1.3c3.3,0,5.7,2.5,5.7,5.8v1.3c0,3.4-2.4,5.7-5.7,5.7h-1.3c-3.4,0-5.8-2.4-5.8-5.7v-1.3c0-3.3,2.5-5.8,5.8-5.8ZM241.9,326.1c-1.7,0-3.4.6-4.6,1.9-1.2,1.2-1.9,2.9-1.9,4.6s.7,3.4,1.9,4.6,2.9,1.9,4.6,1.9h78c1.7,0,3.4-.6,4.6-1.9,1.2-1.2,1.9-2.9,1.9-4.6s-.7-3.4-1.9-4.6c-1.2-1.2-2.9-1.9-4.6-1.9h-78Z"/>
</svg>