<?xml version="1.0" encoding="UTF-8"?>
<svg id="Layer_1" xmlns="http://www.w3.org/2000/svg" version="1.1" viewBox="0 0 512 512">
  <!-- Generator: Adobe Illustrator 29.8.1, SVG Export Plug-In . SVG Version: 2.1.1 Build 2)  -->
  <defs>
    <style>
      .st0 {
        fill: #ffde55;
      }
    </style>
  </defs>
  <path class="st0" d="M44.4,292.4h-7.4c-3.2,0-5.6-2.6-5.6-5.6s2.6-5.6,5.6-5.6h7.4c3.2,0,5.6,2.6,5.6,5.6s-2.6,5.6-5.6,5.6Z"/>
  <path class="st0" d="M81.4,292.4h-7.4c-3.2,0-5.6-2.6-5.6-5.6s2.6-5.6,5.6-5.6h7.4c3.2,0,5.6,2.6,5.6,5.6s-2.4,5.6-5.6,5.6Z"/>
  <path class="st0" d="M59.2,277.6c-3.2,0-5.6-2.6-5.6-5.6v-7.4c0-3.2,2.6-5.6,5.6-5.6s5.6,2.6,5.6,5.6v7.4c0,3-2.6,5.6-5.6,5.6Z"/>
  <path class="st0" d="M59.2,314.6c-3.2,0-5.6-2.6-5.6-5.6v-7.4c0-3.2,2.6-5.6,5.6-5.6s5.6,2.6,5.6,5.6v7.4c0,3-2.6,5.6-5.6,5.6Z"/>
  <path class="st0" d="M452.8,40.4c-1.4,0-3-.6-4-1.6-.6-.6-1-1.2-1.2-1.8s-.4-1.4-.4-2.2,0-.8.2-1.2c0-.4.2-.6.4-1s.2-.6.6-1c.2-.2.4-.6.8-.8,1.2-1.2,3.2-2,5-1.6.4,0,.8.2,1,.2.4.2.6.4,1,.6.2.2.6.4.8.6.2.2.6.6.6.8.2.4.4.6.6,1,.2.4.2.6.2,1,.2.4.2.8.2,1.2,0,.8-.2,1.4-.4,2.2-.2.6-.8,1.2-1.2,1.8-.2.2-.6.4-.8.6-.4.2-.6.4-1,.6-.4.2-.8.2-1,.4-.6,0-1,.2-1.4.2h0Z"/>
  <path class="st0" d="M443.4,361h-7.4c-3.2,0-5.6-2.6-5.6-5.6s2.6-5.6,5.6-5.6h7.4c3.2,0,5.6,2.6,5.6,5.6s-2.4,5.6-5.6,5.6Z"/>
  <path class="st0" d="M480.4,361h-7.4c-3.2,0-5.6-2.6-5.6-5.6s2.6-5.6,5.6-5.6h7.4c3.2,0,5.6,2.6,5.6,5.6s-2.4,5.6-5.6,5.6Z"/>
  <path class="st0" d="M458.2,346c-3.2,0-5.6-2.6-5.6-5.6v-7.4c0-3.2,2.6-5.6,5.6-5.6s5.6,2.6,5.6,5.6v7.4c0,3.2-2.4,5.6-5.6,5.6Z"/>
  <path class="st0" d="M458.2,383.2c-3.2,0-5.6-2.6-5.6-5.6v-7.4c0-3.2,2.6-5.6,5.6-5.6s5.6,2.6,5.6,5.6v7.4c0,3-2.4,5.6-5.6,5.6Z"/>
  <path class="st0" d="M103.2,96c-18.4,0-33.2-14.8-33.2-33s14.8-33.2,33.2-33.2,33.2,14.8,33.2,33.2-15,33-33.2,33ZM103.2,41c-12,0-22,9.8-22,22s9.8,22,22,22,22-9.8,22-22-10-22-22-22Z"/>
  <path class="st0" d="M16.2,157c-.8,0-1.4-.2-2.2-.4-.6-.2-1.2-.8-1.8-1.2-1-1-1.6-2.4-1.6-4s.2-1.4.4-2.2c.2-.6.6-1.2,1.2-1.8.6-.6,1.2-1,1.8-1.2,1-.4,2.2-.6,3.2-.2.4,0,.8,0,1.2.2.4.2.6.4,1,.6.4.2.6.4.8.8.6.6,1,1.2,1.2,1.8s.4,1.4.4,2.2,0,.8-.2,1.2-.2.8-.4,1c-.2.4-.4.6-.6,1-.2.2-.4.6-.8.8.2,0-.2.2-.4.4-.2.2-.6.4-1,.6-.4.2-.6.2-1,.2-.4.2-.8.2-1.2.2h0Z"/>
  <path class="st0" d="M47.2,389.4c-1.6,0-3-.6-4-1.6s-1.6-2.4-1.6-4,.2-1.4.4-2.2c.2-.8.6-1.4,1.2-1.8,2.2-2,6-2,8,0,.6.6.8,1.2,1.2,1.8.2.6.4,1.4.4,2.2,0,1.4-.6,3-1.6,4-1,.8-2.4,1.6-4,1.6h0Z"/>
  <path class="st0" d="M462,264.6c-1.4,0-3-.6-4-1.6s-.8-1.2-1.2-1.8c-.2-.8-.4-1.4-.4-2.2,0-1.6.6-3,1.6-4,1.2-1.2,3.2-2,5.2-1.6.4.2.6.2,1,.4s.6.4,1,.6c.2.2.6.4.8.8,1,1,1.6,2.4,1.6,4s-.2,1.4-.4,2.2c-.2.6-.6,1.2-1.2,1.8l-.8.8c-.4.2-.6.4-1,.6s-.6.2-1,.2c-.6-.2-.8-.2-1.2-.2h0Z"/>
  <path class="st0" d="M271.2,51.8c-.4,0-.8,0-1.2-.2-.4-.2-.6-.2-1-.4s-.6-.4-1-.6c-.2-.2-.6-.4-.8-.8-1-1-1.6-2.4-1.6-4s.2-1.6.4-2.2c.2-.6.8-1.2,1.2-1.8.2-.2.6-.6.8-.8.4-.2.6-.4,1-.6.4-.2.6-.2,1-.2.8-.2,1.6-.2,2.2,0,.4,0,.8.2,1,.2.4.2.6.4,1,.6.4.2.6.4.8.8.6.6,1,1.2,1.2,1.8s.4,1.4.4,2.2c0,1.4-.6,3-1.6,4-.2.2-.6.6-.8.8-.2.2-.6.4-1,.6-.4.2-.6.2-1,.4-.2.2-.6.2-1,.2h0Z"/>
  <path class="st0" d="M405.6,164.4c-18.2,0-33.2-14.8-33.2-33.2s14.8-33.2,33.2-33.2,33.2,14.8,33.2,33.2-14.8,33.2-33.2,33.2ZM405.6,109.4c-12,0-22,9.8-22,21.8s9.8,22,22,22,21.8-9.8,21.8-22c.2-12-9.6-21.8-21.8-21.8Z"/>
  <path class="st0" d="M503,482.4c-1.2,0-2.4-.4-3.4-1.2-28.2-21-65.8-38.2-108.8-50-3-.8-4.8-3.8-4-6.8s3.8-4.8,6.8-4c44.4,12,83.4,30,112.6,51.8,2.4,1.8,3,5.4,1.2,7.8-1,1.6-2.6,2.4-4.4,2.4h0Z"/>
  <path class="st0" d="M8.4,482.4c-1.8,0-3.4-.8-4.6-2.2-1.8-2.4-1.4-6,1.2-7.8,29.2-21.8,68-39.6,112.2-51.6,3-.8,6,1,6.8,4s-1,6-4,6.8c-43,11.6-80.4,28.8-108.4,49.8-.8.6-2,1-3.2,1h0Z"/>
  <path class="st0" d="M129.4,191c-.8,0-1.4-.2-2.2-.4-.6-.2-1.2-.8-1.8-1.2-1-1-1.6-2.4-1.6-4s.2-1.4.4-2.2c.2-.6.8-1.2,1.2-1.8.6-.6,1.2-1,1.8-1.2,2-.8,4.6-.4,6.2,1.2s1,1.2,1.2,1.8.4,1.4.4,2.2-.2,1.4-.4,2.2c-.2.6-.6,1.2-1.2,1.8-.6.6-1.2,1-1.8,1.2-.8.2-1.4.4-2.2.4h0Z"/>
  <path class="st0" d="M268,398h-55.4c-2.2,0-4.4-1.4-5.2-3.4-8.4-20.2-13-44.6-13-70.2,0-49.6,17.2-93.6,43-109.4,1.8-1.2,4-1.2,5.8,0,25.6,15.8,43,59.8,43,109.4s-4.4,49.8-13,70.2c-1,2.2-3,3.4-5.2,3.4h0ZM216.2,386.8h47.8c7-18.2,10.8-39.6,10.8-62.4,0-43.2-14-82.6-34.6-97.8-20.6,15.2-34.6,54.6-34.6,97.8s3.6,44.2,10.6,62.4h0Z"/>
  <path class="st0" d="M176.6,418.8c-1,0-2-.2-2.8-.8-1.8-1-2.8-2.8-2.8-4.8v-36.4c0-1.2.4-2.4,1-3.2l24.2-34.2c1.4-2,3.8-2.8,6-2.2s4,2.6,4.2,5c1.6,17.6,5.4,34.2,11.2,48.2,1,2.6,0,5.6-2.4,7l-36,20.6c-.8.6-1.8.8-2.6.8h0ZM182.2,378.6v24.8l23.4-13.4c-3.8-9.8-6.6-20.8-8.4-32.4l-15,21Z"/>
  <path class="st0" d="M303.8,418.8c-1,0-2-.2-2.8-.8l-36-20.6c-2.4-1.4-3.4-4.4-2.4-7,5.8-14,9.8-30.6,11.2-48.2.2-2.4,1.8-4.4,4.2-5,2.2-.6,4.6.2,6,2.2l24.2,34.2c.6,1,1,2,1,3.2v36.4c0,2-1,3.8-2.8,4.8-.6.6-1.6.8-2.6.8h0ZM275,390l23.4,13.4v-24.8l-14.8-21c-2,11.6-5,22.6-8.6,32.4h0Z"/>
  <path class="st0" d="M240.2,333.2c-14.8,0-27-12.2-27-27s12.2-27,27-27,27,12.2,27,27-12,27-27,27h0ZM240.2,290.4c-8.6,0-15.8,7-15.8,15.8s7,15.8,15.8,15.8,15.8-7,15.8-15.8-7-15.8-15.8-15.8h0Z"/>
  <path class="st0" d="M334.8,421.8c-3.2,0-5.6-2.6-5.6-5.6v-190.6h-38.8c-3.2,0-5.6-2.6-5.6-5.6s2.6-5.6,5.6-5.6h44.4c3.2,0,5.6,2.6,5.6,5.6v196c.2,3.2-2.4,5.8-5.6,5.8h0Z"/>
  <path class="st0" d="M334.8,290.4h-31c-3.2,0-5.6-2.6-5.6-5.6s2.6-5.6,5.6-5.6h31c3.2,0,5.6,2.6,5.6,5.6.2,3.2-2.4,5.6-5.6,5.6Z"/>
  <path class="st0" d="M362.4,463.6c-3.2,0-5.6-2.6-5.6-5.6v-23.8c0-6.8-5.6-12.4-12.4-12.4h-177.4c-6.8,0-12.4,5.6-12.4,12.4v23.8c0,3.2-2.6,5.6-5.6,5.6s-5.6-2.6-5.6-5.6v-23.8c0-13,10.6-23.8,23.8-23.8h177.2c13,0,23.8,10.6,23.8,23.8v23.8c-.2,3-2.6,5.6-5.8,5.6h0Z"/>
  <path class="st0" d="M259.6,152.2c-1.4,0-3-.6-4-1.6s-1.6-2.4-1.6-4,.6-3,1.6-4c2-2,5.8-2.2,8,0,1,1,1.6,2.4,1.6,4s-.6,3-1.6,4-2.4,1.6-4,1.6Z"/>
</svg>