<?xml version="1.0" encoding="UTF-8"?><svg id="b" xmlns="http://www.w3.org/2000/svg" xmlns:xlink="http://www.w3.org/1999/xlink" viewBox="0 0 206.52 330.77"><defs><linearGradient id="d" x1="8.31" y1="94.88" x2="8.31" y2="47.71" gradientUnits="userSpaceOnUse"><stop offset="0" stop-color="#d68b1e"/><stop offset=".8" stop-color="#c4801c"/></linearGradient><linearGradient id="e" x1="56.03" y1="121.15" x2="56.03" y2="57.37" gradientUnits="userSpaceOnUse"><stop offset="0" stop-color="#d68b1e"/><stop offset=".99" stop-color="#ffa41f"/></linearGradient><linearGradient id="f" x1="53.63" y1="321.33" x2="55.61" y2="130.39" gradientUnits="userSpaceOnUse"><stop offset="0" stop-color="#c4801c"/><stop offset="1" stop-color="#e59520"/></linearGradient><linearGradient id="g" x1="6.37" y1="280.28" x2="72.88" y2="117.05" gradientUnits="userSpaceOnUse"><stop offset="0" stop-color="#c4801c"/><stop offset=".56" stop-color="#c5811c"/><stop offset=".76" stop-color="#cc851d"/><stop offset=".91" stop-color="#d88c1e"/><stop offset="1" stop-color="#e59520"/></linearGradient><linearGradient id="h" x1="195.95" y1="321.33" x2="197.93" y2="130.39" gradientTransform="translate(348.84) rotate(-180) scale(1 -1)" xlink:href="#f"/><linearGradient id="i" x1="148.69" y1="280.28" x2="215.2" y2="117.05" gradientTransform="translate(348.84) rotate(-180) scale(1 -1)" xlink:href="#g"/><linearGradient id="j" x1="-884.89" y1="94.88" x2="-884.89" y2="47.71" gradientTransform="translate(-686.68) rotate(-180) scale(1 -1)" xlink:href="#d"/><linearGradient id="k" x1="-837.17" y1="121.15" x2="-837.17" y2="57.37" gradientTransform="translate(-686.68) rotate(-180) scale(1 -1)" xlink:href="#e"/></defs><g id="c"><polygon points="14.57 57.37 14.57 80.99 5.87 94.88 5.87 57.37 2.05 47.71 14.57 57.37" style="fill:url(#d); stroke:#000; stroke-linejoin:round;"/><polygon points="5.87 94.88 21.58 84.89 69.76 84.89 69.76 124.45 76.47 121.15 76.47 77.28 21.63 77.28 14.57 80.99 5.87 94.88" style="fill:#af7618; stroke:#000; stroke-linejoin:round;"/><polygon points="69.76 124.45 76.47 121.15 97.46 121.15 102.09 124.45 69.76 124.45" style="fill:#af7618; stroke:#000; stroke-linejoin:round;"/><polygon points="2.05 47.71 14.57 57.37 97.49 57.37 102.09 47.48 2.05 47.71" style="fill:#ffa41f; isolation:isolate; stroke:#000; stroke-linejoin:round;"/><polyline points="14.57 57.37 97.49 57.37 97.46 121.15 76.47 121.15 76.47 77.28 21.63 77.28 14.57 80.99 14.57 57.37" style="fill:url(#e); stroke:#000; stroke-linejoin:round;"/><line x1="81.6" y1="291.87" x2="76.2" y2="287.92" style="fill:none; stroke:#080706; stroke-linejoin:round;"/><line x1="68.87" y1="291.87" x2="57.39" y2="288.01" style="fill:none; stroke:#080706; stroke-linejoin:round;"/><path d="M75.96,212.38h26.04l-4.52,7.25h-30.26c-.16,0-.21-.22-.06-.29l8.81-6.96Z" style="fill:#d68b1e; stroke:#000; stroke-linejoin:round;"/><polyline points="57.71 275.17 .5 275.17 10.34 270.74 50.59 270.79 57.71 275.17" style="fill:#af7618; stroke:#000; stroke-linecap:round; stroke-linejoin:round;"/><path d="M97.45,219.66v98.92s-28.58-26.71-28.58-26.71h12.73l-.09-54.54s-.02-.05-.05-.05h-22.26s0-.02,0,0l-11.11,25.57s2.54,7.95,2.49,7.92l-40.25-.04s15.59-10.91,15.6-10.93l50.98-117.95s-1.08-7.65-1.06-7.65l21.57.11v14.97s-30.81,70.34-30.56,70.34c12.97,0,30.58.01,30.58.03Z" style="fill:url(#f); stroke:#000; stroke-linejoin:round;"/><path d="M75.86,134.21l1.06,7.65-50.98,117.95c-3,3.1-9.29,7.53-15.6,10.93-4.4,2.37-9.84,4.42-9.84,4.42,11.92-11.63,14.38-14.29,18.2-22.79l49.3-111.81-12.7-15.12,20.55,8.76Z" style="fill:url(#g); stroke:#000; stroke-linejoin:round;"/><polygon points="75.86 134.21 55.31 125.45 102.09 125.45 97.43 134.32 75.86 134.21" style="fill:#e59520; stroke:#000; stroke-linejoin:round;"/><polygon points="75.96 212.38 102.06 151.97 102.09 125.45 97.43 134.32 97.43 149.29 66.88 219.63 75.96 212.38" style="fill:#af7618; stroke:#000; stroke-linejoin:round;"/><polygon points="59.21 237.29 81.46 237.29 76.26 243.05 62.22 243.05 59.21 237.29" style="fill:#af7618; stroke:#000; stroke-linecap:round; stroke-linejoin:round;"/><polygon points="62.22 243.05 53.27 263.93 57.71 275.17 50.59 270.79 48.1 262.86 59.21 237.29 62.22 243.05" style="fill:#af7618; stroke:#000; stroke-linecap:round; stroke-linejoin:round;"/><polygon points="102.06 330.27 57.39 288.01 76.2 287.92 76.26 243.05 81.46 237.29 81.6 291.87 68.87 291.87 97.47 318.58 102.06 330.27" style="fill:#af7618; stroke:#080706; stroke-linejoin:round;"/><polygon points="97.47 318.58 102.06 330.27 101.99 212.38 97.45 219.66 97.47 318.58" style="fill:#af7618; stroke:#080706; stroke-linejoin:round;"/><path d="M109.06,219.66v72.21s-.01,26.71-.01,26.71c0,.04,28.59-26.71,28.59-26.71h-12.73s.09-54.54.09-54.54c0-.03.02-.05.05-.05h22.26s0-.02,0,0l11.11,25.57s-2.54,7.95-2.49,7.92l40.25-.04s-15.59-10.91-15.6-10.93l-50.98-117.95s1.08-7.65,1.06-7.65l-21.57.11v14.97s30.81,70.34,30.56,70.34c-12.97,0-30.58.01-30.58.03Z" style="fill:url(#h); stroke:#000; stroke-linejoin:round;"/><path d="M130.66,134.21l-1.06,7.65,50.98,117.95c3,3.1,9.29,7.53,15.6,10.93,4.4,2.37,9.84,4.42,9.84,4.42-11.92-11.63-14.38-14.29-18.2-22.79l-49.3-111.81,12.7-15.12-20.55,8.76Z" style="fill:url(#i); stroke:#000; stroke-linejoin:round;"/><path d="M130.56,212.38h-26.04s4.52,7.25,4.52,7.25h30.26c.16,0,.21-.22.06-.29l-8.81-6.96Z" style="fill:#d68b1e; stroke:#000; stroke-linejoin:round;"/><polygon points="130.66 134.21 151.21 125.45 104.43 125.45 109.08 134.32 130.66 134.21" style="fill:#e59520; stroke:#000; stroke-linejoin:round;"/><polygon points="130.56 212.38 104.45 151.97 104.43 125.45 109.08 134.32 109.08 149.29 139.64 219.63 130.56 212.38" style="fill:#af7618; stroke:#000; stroke-linejoin:round;"/><polyline points="148.8 275.17 206.02 275.17 196.17 270.74 155.93 270.79 148.8 275.17" style="fill:#af7618; stroke:#000; stroke-linecap:round; stroke-linejoin:round;"/><polygon points="147.31 237.29 125.05 237.29 130.26 243.05 144.3 243.05 147.31 237.29" style="fill:#af7618; stroke:#000; stroke-linecap:round; stroke-linejoin:round;"/><polygon points="144.3 243.05 153.25 263.93 148.8 275.17 155.93 270.79 158.42 262.86 147.31 237.29 144.3 243.05" style="fill:#af7618; stroke:#000; stroke-linecap:round; stroke-linejoin:round;"/><polygon points="104.45 330.27 149.12 288.01 130.32 287.92 130.26 243.05 125.05 237.29 124.92 291.87 137.65 291.87 109.05 318.58 104.45 330.27" style="fill:#af7618; stroke:#080706; stroke-linejoin:round;"/><line x1="124.92" y1="291.87" x2="130.32" y2="287.92" style="fill:none; stroke:#080706; stroke-linejoin:round;"/><line x1="137.65" y1="291.87" x2="149.12" y2="288.01" style="fill:none; stroke:#080706; stroke-linejoin:round;"/><polygon points="109.05 318.58 104.45 330.27 104.53 212.38 109.06 219.66 109.05 318.58" style="fill:#af7618; stroke:#080706; stroke-linejoin:round;"/><polygon points="191.95 57.37 191.95 80.99 200.65 94.88 200.65 57.37 204.46 47.71 191.95 57.37" style="fill:url(#j); stroke:#000; stroke-linejoin:round;"/><polygon points="200.65 94.88 184.94 84.89 136.76 84.89 136.76 124.45 130.05 121.15 130.05 77.28 184.88 77.28 191.95 80.99 200.65 94.88" style="fill:#af7618; stroke:#000; stroke-linejoin:round;"/><polyline points="104.43 124.45 136.76 124.45 130.05 121.15 109.06 121.15 104.43 124.45" style="fill:#af7618; stroke:#000; stroke-miterlimit:10;"/><polygon points="204.46 47.71 191.95 57.37 109.03 57.37 104.43 47.48 204.46 47.71" style="fill:#ffa41f; isolation:isolate; stroke:#000; stroke-linejoin:round;"/><polyline points="191.95 57.37 109.03 57.37 109.06 121.15 130.05 121.15 130.05 77.28 184.88 77.28 191.95 80.99 191.95 57.37" style="fill:url(#k); stroke:#000; stroke-linejoin:round;"/><polygon points="104.43 47.48 109.03 57.37 109.06 121.15 104.43 124.45 104.43 47.48" style="fill:#af7618; stroke:#000; stroke-linejoin:round;"/><polygon points="102.09 47.48 97.49 57.37 97.46 121.15 102.09 124.45 102.09 47.48" style="fill:#af7618; stroke:#000; stroke-linejoin:round;"/><polygon points="103.26 .5 95.67 20.77 95.7 44.4 110.82 44.4 110.85 20.77 103.26 .5" style="fill:#af7618; stroke:#080706; stroke-linejoin:round;"/><polygon points="100.41 40.22 106.11 40.22 106.11 23.05 103.26 13.16 100.41 23.05 100.41 40.22" style="fill:#e59520; stroke:#080706; stroke-linejoin:round;"/><line x1="103.26" y1=".5" x2="103.26" y2="13.16" style="fill:#af7618; stroke:#080706; stroke-linejoin:round;"/><line x1="110.85" y1="20.77" x2="106.11" y2="23.05" style="fill:#af7618; stroke:#080706; stroke-linejoin:round;"/><line x1="110.82" y1="44.4" x2="106.11" y2="40.22" style="fill:#af7618; stroke:#080706; stroke-linejoin:round;"/><line x1="95.7" y1="44.4" x2="100.41" y2="40.22" style="fill:#af7618; stroke:#080706; stroke-linejoin:round;"/><line x1="95.67" y1="20.77" x2="100.41" y2="23.05" style="fill:#af7618; stroke:#080706; stroke-linejoin:round;"/><polygon points="103.26 155.08 95.21 175.36 95.24 210.08 111.27 210.08 111.31 175.36 103.26 155.08" style="fill:#af7618; stroke:#080706; stroke-linejoin:round;"/><polygon points="100.24 205.64 106.28 205.64 106.28 175.36 103.26 164.86 100.24 175.36 100.24 205.64" style="fill:#e59520; stroke:#080706; stroke-linejoin:round;"/><line x1="103.26" y1="155.08" x2="103.26" y2="164.86" style="fill:#af7618; stroke:#080706; stroke-linejoin:round;"/><line x1="111.31" y1="174.75" x2="106.28" y2="177.17" style="fill:#af7618; stroke:#080706; stroke-linejoin:round;"/><line x1="111.27" y1="209.47" x2="106.28" y2="205.04" style="fill:#af7618; stroke:#080706; stroke-linejoin:round;"/><line x1="95.24" y1="209.47" x2="100.24" y2="205.04" style="fill:#af7618; stroke:#080706; stroke-linejoin:round;"/><line x1="95.21" y1="174.75" x2="100.24" y2="177.17" style="fill:#af7618; stroke:#080706; stroke-linejoin:round;"/></g></svg>