<?xml version="1.0" encoding="UTF-8"?><svg id="b" xmlns="http://www.w3.org/2000/svg" xmlns:xlink="http://www.w3.org/1999/xlink" viewBox="0 0 641.47 532.45"><defs><linearGradient id="d" x1="226.07" y1="94.18" x2="226.07" y2="47.01" gradientUnits="userSpaceOnUse"><stop offset="0" stop-color="#d68b1e"/><stop offset=".8" stop-color="#c4801c"/></linearGradient><linearGradient id="e" x1="273.79" y1="120.45" x2="273.79" y2="56.67" gradientUnits="userSpaceOnUse"><stop offset="0" stop-color="#d68b1e"/><stop offset=".99" stop-color="#ffa41f"/></linearGradient><linearGradient id="f" x1="271.38" y1="320.63" x2="273.37" y2="129.69" gradientUnits="userSpaceOnUse"><stop offset="0" stop-color="#c4801c"/><stop offset="1" stop-color="#e59520"/></linearGradient><linearGradient id="g" x1="224.13" y1="279.58" x2="290.64" y2="116.35" gradientUnits="userSpaceOnUse"><stop offset="0" stop-color="#c4801c"/><stop offset=".56" stop-color="#c5811c"/><stop offset=".76" stop-color="#cc851d"/><stop offset=".91" stop-color="#d88c1e"/><stop offset="1" stop-color="#e59520"/></linearGradient><linearGradient id="h" x1="1408.08" y1="320.63" x2="1410.06" y2="129.69" gradientTransform="translate(1778.73) rotate(-180) scale(1 -1)" xlink:href="#f"/><linearGradient id="i" x1="1360.82" y1="279.58" x2="1427.33" y2="116.35" gradientTransform="translate(1778.73) rotate(-180) scale(1 -1)" xlink:href="#g"/><linearGradient id="j" x1="327.24" y1="94.18" x2="327.24" y2="47.01" gradientTransform="translate(743.21) rotate(-180) scale(1 -1)" xlink:href="#d"/><linearGradient id="k" x1="374.96" y1="120.45" x2="374.96" y2="56.67" gradientTransform="translate(743.21) rotate(-180) scale(1 -1)" xlink:href="#e"/></defs><g id="c"><polygon points="232.33 56.67 232.33 80.29 223.63 94.18 223.63 56.67 219.81 47.01 232.33 56.67" style="fill:url(#d); stroke:#000; stroke-linejoin:round;"/><polygon points="223.63 94.18 239.33 84.19 287.52 84.19 287.52 123.75 294.23 120.45 294.23 76.58 239.39 76.58 232.33 80.29 223.63 94.18" style="fill:#af7618; stroke:#000; stroke-linejoin:round;"/><polygon points="287.52 123.75 294.23 120.45 315.22 120.45 319.84 123.75 287.52 123.75" style="fill:#af7618; stroke:#000; stroke-linejoin:round;"/><polygon points="219.81 47.01 232.33 56.67 315.25 56.67 319.84 46.78 219.81 47.01" style="fill:#ffa41f; isolation:isolate; stroke:#000; stroke-linejoin:round;"/><polyline points="232.33 56.67 315.25 56.67 315.22 120.45 294.23 120.45 294.23 76.58 239.39 76.58 232.33 80.29 232.33 56.67" style="fill:url(#e); stroke:#000; stroke-linejoin:round;"/><line x1="299.36" y1="291.17" x2="293.96" y2="287.22" style="fill:none; stroke:#080706; stroke-linejoin:round;"/><path d="M293.71,211.68h26.04l-4.52,7.25h-30.26c-.16,0-.21-.22-.06-.29l8.81-6.96Z" style="fill:#d68b1e; stroke:#000; stroke-linejoin:round;"/><polyline points="275.47 274.47 218.26 274.47 228.1 270.04 268.35 270.09 275.47 274.47" style="fill:#af7618; stroke:#000; stroke-linecap:round; stroke-linejoin:round;"/><path d="M315.21,218.96v98.92s-28.58-26.71-28.58-26.71h12.73l-.09-54.54s-.02-.05-.05-.05h-22.26s0-.02,0,0l-11.11,25.57s2.54,7.95,2.49,7.92l-40.25-.04s15.59-10.91,15.6-10.93l50.98-117.95s-1.08-7.65-1.06-7.65l21.57.11v14.97s-30.81,70.34-30.56,70.34c12.97,0,30.58.01,30.58.03Z" style="fill:url(#f); stroke:#000; stroke-linejoin:round;"/><path d="M293.62,133.51l1.06,7.65-50.98,117.95c-3,3.1-9.29,7.53-15.6,10.93-4.4,2.37-9.84,4.42-9.84,4.42,11.92-11.63,14.38-14.29,18.2-22.79l49.3-111.81-12.7-15.12,20.55,8.76Z" style="fill:url(#g); stroke:#000; stroke-linejoin:round;"/><polygon points="293.62 133.51 273.06 124.75 319.84 124.75 315.19 133.62 293.62 133.51" style="fill:#e59520; stroke:#000; stroke-linejoin:round;"/><polygon points="293.71 211.68 319.82 151.27 319.84 124.75 315.19 133.62 315.19 148.59 284.64 218.93 293.71 211.68" style="fill:#af7618; stroke:#000; stroke-linejoin:round;"/><polygon points="276.96 236.59 299.22 236.59 294.01 242.35 279.98 242.35 276.96 236.59" style="fill:#af7618; stroke:#000; stroke-linecap:round; stroke-linejoin:round;"/><polygon points="279.98 242.35 271.02 263.23 275.47 274.47 268.35 270.09 265.85 262.16 276.96 236.59 279.98 242.35" style="fill:#af7618; stroke:#000; stroke-linecap:round; stroke-linejoin:round;"/><polygon points="319.82 329.57 275.15 287.31 293.96 287.22 294.01 242.35 299.22 236.59 299.36 291.17 286.63 291.17 315.22 317.88 319.82 329.57" style="fill:#af7618; stroke:#080706; stroke-linejoin:round;"/><polygon points="315.22 317.88 319.82 329.57 319.75 211.68 315.21 218.96 315.22 317.88" style="fill:#af7618; stroke:#080706; stroke-linejoin:round;"/><path d="M326.82,218.96v72.21s-.01,26.71-.01,26.71c0,.04,28.59-26.71,28.59-26.71h-12.73s.09-54.54.09-54.54c0-.03.02-.05.05-.05h22.26s0-.02,0,0l11.11,25.57s-2.54,7.95-2.49,7.92l40.25-.04s-15.59-10.91-15.6-10.93l-50.98-117.95s1.08-7.65,1.06-7.65l-21.57.11v14.97s30.81,70.34,30.56,70.34c-12.97,0-30.58.01-30.58.03Z" style="fill:url(#h); stroke:#000; stroke-linejoin:round;"/><path d="M348.41,133.51l-1.06,7.65,50.98,117.95c3,3.1,9.29,7.53,15.6,10.93,4.4,2.37,9.84,4.42,9.84,4.42-11.92-11.63-14.38-14.29-18.2-22.79l-49.3-111.81,12.7-15.12-20.55,8.76Z" style="fill:url(#i); stroke:#000; stroke-linejoin:round;"/><path d="M348.32,211.68h-26.04s4.52,7.25,4.52,7.25h30.26c.16,0,.21-.22.06-.29l-8.81-6.96Z" style="fill:#d68b1e; stroke:#000; stroke-linejoin:round;"/><polygon points="348.41 133.51 368.97 124.75 322.19 124.75 326.84 133.62 348.41 133.51" style="fill:#e59520; stroke:#000; stroke-linejoin:round;"/><polygon points="348.32 211.68 322.21 151.27 322.19 124.75 326.84 133.62 326.84 148.59 357.4 218.93 348.32 211.68" style="fill:#af7618; stroke:#000; stroke-linejoin:round;"/><polyline points="366.56 274.47 423.77 274.47 413.93 270.04 373.68 270.09 366.56 274.47" style="fill:#af7618; stroke:#000; stroke-linecap:round; stroke-linejoin:round;"/><polygon points="365.07 236.59 342.81 236.59 348.02 242.35 362.05 242.35 365.07 236.59" style="fill:#af7618; stroke:#000; stroke-linecap:round; stroke-linejoin:round;"/><polygon points="362.05 242.35 371.01 263.23 366.56 274.47 373.68 270.09 376.18 262.16 365.07 236.59 362.05 242.35" style="fill:#af7618; stroke:#000; stroke-linecap:round; stroke-linejoin:round;"/><polygon points="322.21 329.57 366.88 287.31 348.07 287.22 348.02 242.35 342.81 236.59 342.67 291.17 355.4 291.17 326.81 317.88 322.21 329.57" style="fill:#af7618; stroke:#080706; stroke-linejoin:round;"/><line x1="342.67" y1="291.17" x2="348.07" y2="287.22" style="fill:none; stroke:#080706; stroke-linejoin:round;"/><line x1="355.4" y1="291.17" x2="366.88" y2="287.31" style="fill:none; stroke:#080706; stroke-linejoin:round;"/><polygon points="326.81 317.88 322.21 329.57 322.28 211.68 326.82 218.96 326.81 317.88" style="fill:#af7618; stroke:#080706; stroke-linejoin:round;"/><polygon points="409.7 56.67 409.7 80.29 418.4 94.18 418.4 56.67 422.22 47.01 409.7 56.67" style="fill:url(#j); stroke:#000; stroke-linejoin:round;"/><polygon points="418.4 94.18 402.7 84.19 354.51 84.19 354.51 123.75 347.81 120.45 347.81 76.58 402.64 76.58 409.7 80.29 418.4 94.18" style="fill:#af7618; stroke:#000; stroke-linejoin:round;"/><polyline points="322.19 123.75 354.51 123.75 347.81 120.45 326.82 120.45 322.19 123.75" style="fill:#af7618; stroke:#000; stroke-miterlimit:10;"/><polygon points="422.22 47.01 409.7 56.67 326.78 56.67 322.19 46.78 422.22 47.01" style="fill:#ffa41f; isolation:isolate; stroke:#000; stroke-linejoin:round;"/><polyline points="409.7 56.67 326.78 56.67 326.82 120.45 347.81 120.45 347.81 76.58 402.64 76.58 409.7 80.29 409.7 56.67" style="fill:url(#k); stroke:#000; stroke-linejoin:round;"/><polygon points="322.19 46.78 326.78 56.67 326.82 120.45 322.19 123.75 322.19 46.78" style="fill:#af7618; stroke:#000; stroke-linejoin:round;"/><line x1="286.63" y1="291.17" x2="275.15" y2="287.31" style="fill:none; stroke:#080706; stroke-linejoin:round;"/><polygon points="319.84 46.78 315.25 56.67 315.22 120.45 319.84 123.75 319.84 46.78" style="fill:#af7618; stroke:#000; stroke-linejoin:round;"/><polygon points="321.02 .5 313.42 20.77 313.45 44.4 328.58 44.4 328.61 20.77 321.02 .5" style="fill:#af7618; stroke:#080706; stroke-linejoin:round;"/><polygon points="318.16 40.22 323.87 40.22 323.87 23.05 321.02 13.16 318.16 23.05 318.16 40.22" style="fill:#e59520; stroke:#080706; stroke-linejoin:round;"/><line x1="321.02" y1=".5" x2="321.02" y2="13.16" style="fill:#af7618; stroke:#080706; stroke-linejoin:round;"/><line x1="328.61" y1="20.77" x2="323.87" y2="23.05" style="fill:#af7618; stroke:#080706; stroke-linejoin:round;"/><line x1="328.58" y1="44.4" x2="323.87" y2="40.22" style="fill:#af7618; stroke:#080706; stroke-linejoin:round;"/><line x1="313.45" y1="44.4" x2="318.16" y2="40.22" style="fill:#af7618; stroke:#080706; stroke-linejoin:round;"/><line x1="313.42" y1="20.77" x2="318.16" y2="23.05" style="fill:#af7618; stroke:#080706; stroke-linejoin:round;"/><polygon points="321.02 154.38 312.97 174.66 313 209.38 329.03 209.38 329.06 174.66 321.02 154.38" style="fill:#af7618; stroke:#080706; stroke-linejoin:round;"/><polygon points="317.99 204.94 324.04 204.94 324.04 174.66 321.02 164.16 317.99 174.66 317.99 204.94" style="fill:#e59520; stroke:#080706; stroke-linejoin:round;"/><line x1="321.02" y1="154.38" x2="321.02" y2="164.16" style="fill:#af7618; stroke:#080706; stroke-linejoin:round;"/><line x1="329.06" y1="174.05" x2="324.04" y2="176.47" style="fill:#af7618; stroke:#080706; stroke-linejoin:round;"/><line x1="329.03" y1="208.77" x2="324.04" y2="204.34" style="fill:#af7618; stroke:#080706; stroke-linejoin:round;"/><line x1="313" y1="208.77" x2="317.99" y2="204.34" style="fill:#af7618; stroke:#080706; stroke-linejoin:round;"/><line x1="312.97" y1="174.05" x2="317.99" y2="176.47" style="fill:#af7618; stroke:#080706; stroke-linejoin:round;"/><path d="M46.98,388.66c0-4.29.02-8.57.03-12.86-2.38.04-4.76.08-7.14.12-.04,20.08-.08,40.15-.12,60.23,2.24-.16,4.47-.32,6.71-.48-.01,5.34-.02,10.68-.03,16.01-10.81.92-21.61,1.9-32.4,2.92,0-5.51.01-11.01.02-16.52,2.23-.18,4.47-.35,6.7-.52.03-20.44.06-40.88.09-61.33-2.38.04-4.76.08-7.14.13,0,4.42-.01,8.85-.02,13.27-4.57.14-9.14.29-13.71.44,0-10.07.01-20.14.02-30.21,20.25-.04,40.5-.07,60.76-.1-.02,9.51-.05,19.01-.07,28.52-4.57.12-9.14.24-13.71.37Z" style="fill:#fff;"/><path d="M109.77,446.91c-3.98-11.24-7.95-22.58-11.93-34.01-.51.02-1.03.04-1.54.07-.61.03-1.21.05-1.82.08-.02,6.51-.04,13.02-.06,19.54,1.45-.08,2.89-.17,4.34-.25-.02,5.11-.03,10.22-.05,15.33-9.75.67-19.49,1.39-29.23,2.15.01-5.23.03-10.46.04-15.69,2.14-.14,4.29-.28,6.43-.41.05-19.45.1-38.89.16-58.34-2.15.03-4.29.06-6.44.09.01-5.23.03-10.46.04-15.69,10.83-.02,21.65-.03,32.48-.04,16.8.02,24.74,11.45,24.7,26.93-.03,9.97-3.41,16.94-11.54,21.2,3.15,7.75,6.3,15.44,9.45,23.09,1.77-.09,3.55-.18,5.32-.26-.02,4.99-.03,9.99-.05,14.98-6.77.4-13.53.82-20.3,1.26ZM99.98,399.12c4.48-.15,7.99-4.12,8.01-12.22.02-7.85-3.04-11.93-8.5-11.87-1.63.02-3.27.04-4.9.06-.02,8.07-.05,16.13-.07,24.2,1.82-.06,3.64-.12,5.46-.17Z" style="fill:#fff;"/><path d="M138.05,445.18c.02-4.97.03-9.94.05-14.9,2.15-.1,4.29-.2,6.44-.3.06-18.49.11-36.99.17-55.48-2.15.02-4.29.04-6.44.07.02-4.97.03-9.94.05-14.9,17.83-.02,35.65-.03,53.48-.05-.02,8.26-.04,16.52-.07,24.78-5.84.07-11.67.15-17.51.23.01-3.47.02-6.94.03-10.4-3.5.03-7,.06-10.5.09-.02,6.37-.04,12.75-.06,19.12,5.28-.11,10.55-.21,15.83-.3-.01,4.85-.03,9.7-.04,14.55-5.28.13-10.55.28-15.83.43-.02,7.02-.04,14.03-.06,21.05,3.69-.15,7.38-.29,11.07-.43.01-3.75.02-7.49.03-11.24,5.88-.19,11.77-.36,17.65-.52-.02,8.53-.05,17.06-.07,25.6-18.08.72-36.16,1.59-54.22,2.61Z" style="fill:#fff;"/><path d="M262.8,440.54c-7.01.13-14.03.27-21.04.45-6.09-16.98-12.18-34.04-18.26-51.2-.19,0-.37,0-.56,0,0,.12.26,10.29.23,23.63-.01,4.6-.02,9.2-.03,13.8,2.15-.05,4.3-.11,6.45-.16,0,4.75-.02,9.49-.03,14.24-9.16.26-18.32.56-27.48.89.01-4.8.02-9.6.04-14.39,2.15-.07,4.3-.13,6.45-.19.04-17.88.09-35.77.13-53.65-2.15.01-4.29.03-6.44.04.01-4.8.02-9.6.04-14.39,9.01,0,18.01-.01,27.02-.02,6.22,17.39,12.44,34.67,18.67,51.87.19,0,.37,0,.56,0,0-.12-.26-11.37-.24-23.67,0-4.68.02-9.36.02-14.04-2.15,0-4.29.02-6.44.03,0-4.73.02-9.46.03-14.19,9.15,0,18.29,0,27.44-.01,0,4.7-.01,9.39-.02,14.09-2.15,0-4.29.01-6.44.02-.03,22.28-.06,44.56-.09,66.84Z" style="fill:#fff;"/><path d="M330.41,418.54c-1.68,11.05-4.34,22.93-26.51,23.02-16.7.1-27.77-7.09-27.73-42.06.04-35.43,11.11-41.41,23.57-41.41,7.42,0,11.34,1.95,14,5.29.14,0,.28,0,.42,0,.19-1.26.37-2.53.56-3.79,5.23,0,10.45,0,15.68,0,0,9.65,0,19.31,0,28.96-5.84,0-11.68,0-17.51,0,0-.8,0-1.61,0-2.41,0-7.36-1.68-13.1-8.4-13.1-7.42,0-8.55,6.34-8.56,24.75-.02,23.7,1.67,28.86,8.68,28.83,5.61-.02,6.87-4.5,7.86-11.98,5.98,1.29,11.96,2.59,17.95,3.91Z" style="fill:#fff;"/><path d="M405.99,426.92c0,4.74.02,9.47.03,14.21-9.86-.26-19.73-.47-29.59-.64,0-4.7-.01-9.4-.02-14.1,1.36.02,2.71.04,4.07.06,0-6.75-.02-13.5-.03-20.24-5-.05-10-.1-15-.14,0,6.73.01,13.46.02,20.18,1.36.02,2.71.03,4.07.05,0,4.69.01,9.39.02,14.08-9.87-.15-19.73-.25-29.6-.31,0-4.68,0-9.35,0-14.03,2.15.01,4.3.02,6.45.04-.01-17.49-.02-34.98-.03-52.46-2.15,0-4.29,0-6.44,0,0-4.68,0-9.35,0-14.03,9.85,0,19.69,0,29.54,0,0,4.69.01,9.39.02,14.08-1.35,0-2.71,0-4.06-.01,0,6.11.01,12.23.02,18.34,5,.03,10,.06,14.99.1,0-6.13-.02-12.26-.03-18.39-1.35,0-2.71,0-4.06-.01,0-4.7-.01-9.4-.02-14.1,9.85,0,19.69,0,29.54.01,0,4.74.02,9.47.03,14.21-2.15-.01-4.29-.02-6.44-.03.03,17.67.07,35.34.1,53.01,2.15.04,4.3.09,6.45.14Z" style="fill:#fff;"/><path d="M494.13,429.83c.02,4.94.03,9.87.05,14.81-9.85-.53-19.71-1.01-29.56-1.45-.01-4.85-.03-9.71-.04-14.56,1.77.07,3.55.13,5.32.2-.01-3.43-.02-6.86-.03-10.3-.04-14.72.33-31.36.19-31.36-.19,0-.37,0-.56,0-.14,0-2.35,9.66-4.99,19.62-1.43,5.18-2.87,10.34-4.3,15.49-4.25-.14-8.5-.27-12.75-.4-1.37-5.21-2.74-10.41-4.1-15.6-2.55-9.98-4.67-19.55-4.81-19.56-.19,0-.37,0-.56,0-.14,0,.32,16.39.36,30.89,0,3.38.02,6.76.03,10.14,1.78.05,3.55.11,5.33.16.01,4.81.03,9.61.04,14.42-9.35-.35-18.69-.67-28.04-.94-.01-4.75-.02-9.5-.03-14.26,2.15.05,4.3.11,6.45.16-.04-17.8-.08-35.61-.12-53.41-2.15-.01-4.29-.03-6.44-.04-.01-4.75-.02-9.5-.03-14.26,10.78,0,21.56.01,32.34.02,2.5,11.65,5.01,23.33,7.52,35.06.19,0,.37,0,.56.01,2.49-11.64,4.98-23.33,7.46-35.06,10.17,0,20.35.02,30.52.03.02,4.94.03,9.87.05,14.81-2.15-.02-4.29-.04-6.44-.06.06,18.38.11,36.76.17,55.15,2.15.09,4.29.19,6.44.28Z" style="fill:#fff;"/><path d="M566.82,449.35c-9.65-.73-19.3-1.43-28.96-2.07-.02-5.09-.03-10.17-.05-15.26,1.63.09,3.27.18,4.9.28-.57-3.63-1.14-7.26-1.71-10.88-5.08-.25-10.17-.48-15.26-.71-.55,3.53-1.1,7.06-1.65,10.58,1.63.09,3.27.17,4.9.26.02,5.05.03,10.11.05,15.16-9-.58-18.01-1.12-27.02-1.63-.02-4.96-.03-9.92-.05-14.89,1.59.07,3.17.15,4.76.22,2.62-14.36,5.23-28.78,7.85-43.29.82-5.89,1.92-11.79,2.06-12.28-.14-.08-.28-.17-.42-.25-1.12.11-1.96.1-3.22.09-.51,0-1.03-.01-1.54-.02-.02-4.99-.03-9.99-.05-14.98,12.41.01,24.83.03,37.24.04,4.46,24.31,8.91,48.88,13.36,73.72,1.59.1,3.17.2,4.76.3.01,5.21.03,10.41.04,15.62ZM536.87,395.96c-2.43-15.81-3.29-22.16-3.43-22.54-.14,0-.28,0-.42,0-.14.37-1.1,6.73-3.43,22.47-.5,3.14-1.01,6.27-1.51,9.4,3.45.12,6.91.24,10.36.36-.52-3.23-1.05-6.46-1.57-9.68Z" style="fill:#fff;"/><path d="M635.13,455.29c-6.98-.68-13.96-1.34-20.94-1.97-6.13-20.23-12.27-40.11-18.42-59.65-.19,0-.37-.01-.56-.02,0,.13.3,11.56.34,26.53.01,5.16.02,10.33.03,15.49,2.14.15,4.29.3,6.43.46.01,5.37.02,10.74.03,16.11-9.13-.8-18.26-1.55-27.39-2.27-.01-5.24-.03-10.48-.04-15.72,2.14.14,4.29.28,6.43.42-.05-19.7-.1-39.39-.14-59.09-2.15-.03-4.29-.07-6.44-.1-.01-5.24-.03-10.48-.04-15.72,9.01.01,18.01.03,27.02.04,6.29,19.68,12.57,39.7,18.85,60.09.19.01.37.02.56.03,0-.13-.3-13.19-.32-27.43,0-5.42-.02-10.84-.02-16.26-2.15-.04-4.29-.08-6.44-.11,0-5.43-.02-10.86-.03-16.29,9.15.02,18.29.03,27.44.05,0,5.58,0,11.16.01,16.74-2.14-.04-4.29-.08-6.44-.12.03,26.27.05,52.53.08,78.8Z" style="fill:#fff;"/><rect x="81.27" y="464.71" width="479.5" height="67.74" style="fill:none;"/><path d="M158.48,498.31h-18.63v-6.22h3.15l-1.08-4.39h-9.81l-1.08,4.39h3.15v6.22h-17.37v-6.22h3.06l5.13-18.1c.54-2.45,1.26-4.9,1.35-5.1l-.27-.1c-.72.05-1.26.05-2.07.05h-.99v-6.22h23.94l8.46,29.47h3.06v6.22ZM139.31,477.4c-1.53-6.42-2.07-9.03-2.16-9.18h-.27c-.09.15-.72,2.75-2.25,9.23l-.99,3.88h6.66l-.99-3.93Z" style="fill:#af7618;"/><path d="M213.02,488.78c-1.08,4.9-2.79,10.2-17.01,10.2-10.71,0-17.82-3.26-17.82-18.71s7.11-18.31,15.12-18.31c4.77,0,7.29.87,9,2.35h.27l.36-1.68h10.08v12.85h-11.25v-1.07c0-3.26-1.08-5.81-5.4-5.81-4.77,0-5.49,2.8-5.49,10.96,0,10.5,1.08,12.8,5.58,12.8,3.6,0,4.41-1.99,5.04-5.3l11.52,1.73Z" style="fill:#af7618;"/><path d="M275.12,498.31h-18.63v-6.22h3.15l-1.08-4.39h-9.81l-1.08,4.39h3.15v6.22h-17.37v-6.22h3.06l5.13-18.1c.54-2.45,1.26-4.9,1.35-5.1l-.27-.1c-.72.05-1.26.05-2.07.05h-.99v-6.22h23.94l8.46,29.47h3.06v6.22ZM255.95,477.4c-1.53-6.42-2.07-9.03-2.16-9.18h-.27c-.09.15-.72,2.75-2.25,9.23l-.99,3.88h6.66l-.99-3.93Z" style="fill:#af7618;"/><path d="M316.52,462.62c15.03,0,18.99,6.53,18.99,18.05s-3.33,17.64-18.18,17.64h-21.42v-6.22h4.5v-23.25h-4.5v-6.22h20.61ZM315.17,492.09c6.39,0,7.65-2.8,7.65-11.17,0-9.74-1.26-12.08-7.47-12.08h-2.79v23.25h2.61Z" style="fill:#af7618;"/><path d="M356.66,498.31v-6.22h4.14v-23.25h-4.14v-6.22h34.38v10.66h-11.25v-4.44h-6.75v8.11h10.17v6.22h-10.17v8.92h7.11v-4.79h11.34v11.01h-34.83Z" style="fill:#af7618;"/><path d="M463.93,492.09v6.22h-18.99v-6.22h3.42v-4.39c0-6.27.27-13.36.18-13.36h-.36c-.09,0-1.53,4.13-3.24,8.41l-2.79,6.68h-8.19l-2.61-6.68c-1.62-4.28-2.97-8.41-3.06-8.41h-.36c-.09,0,.18,7.09.18,13.36v4.39h3.42v6.22h-18v-6.22h4.14v-23.25h-4.14v-6.22h20.79l4.77,15.04h.36l4.86-15.04h19.62v6.22h-4.14v23.25h4.14Z" style="fill:#af7618;"/><path d="M511.09,492.09h4.23v6.22h-20.61v-6.22h4.23v-7.7l-11.07-15.55h-3.06v-6.22h19.08v6.22h-3.06l2.43,4.28c1.53,2.65,2.61,4.54,2.7,4.59h.27c.09-.05,1.08-1.99,2.61-4.54l2.52-4.33h-2.7v-6.22h16.47v6.22h-3.33l-10.71,15.55v7.7Z" style="fill:#af7618;"/></g></svg>